<svg width="35" height="53" viewBox="0 0 35 53" fill="none" xmlns="http://www.w3.org/2000/svg">
<path opacity="0.2" d="M15.625 42.7266H13.125V32.0234H15.625V42.7266ZM15.625 49.7969H13.125V45.5H3.39844V43.5078H15.625V49.7969ZM11.25 35.0508H7.67578C7.68229 35.7734 7.83854 36.4733 8.14453 37.1504C8.45703 37.8275 8.92904 38.4329 9.56055 38.9668C10.1986 39.5007 10.9831 39.9076 11.9141 40.1875L10.6445 42.1211C9.67448 41.8216 8.83464 41.3691 8.125 40.7637C7.41536 40.1582 6.85547 39.4421 6.44531 38.6152C6.02865 39.5137 5.45573 40.2949 4.72656 40.959C3.9974 41.6165 3.125 42.1146 2.10938 42.4531L0.820312 40.5195C1.75781 40.2135 2.54883 39.7773 3.19336 39.2109C3.8444 38.638 4.32943 37.9935 4.64844 37.2773C4.96745 36.5547 5.13021 35.8125 5.13672 35.0508H1.48438V33.0586H11.25V35.0508ZM33.0078 41.75H30.5273V38.0391H27.7148V36.0078H30.5273V32.0234H33.0078V41.75ZM23.6133 44.1133H30.5273V42.4336H33.0078V49.6016H21.1523V42.4336H23.6133V44.1133ZM30.5273 47.6094V46.0273H23.6133V47.6094H30.5273ZM28.2812 34.8555H24.7559C24.7949 35.5391 24.9674 36.2031 25.2734 36.8477C25.5859 37.4922 26.0384 38.0716 26.6309 38.5859C27.2298 39.1003 27.9622 39.4974 28.8281 39.7773L27.5977 41.6914C26.6341 41.3724 25.8073 40.9102 25.1172 40.3047C24.4336 39.6992 23.8932 38.9863 23.4961 38.166C23.0924 39.084 22.5293 39.8815 21.8066 40.5586C21.084 41.2292 20.2148 41.7305 19.1992 42.0625L17.9297 40.1094C18.8281 39.8099 19.5866 39.39 20.2051 38.8496C20.8301 38.3027 21.3053 37.6875 21.6309 37.0039C21.9629 36.3203 22.1517 35.6042 22.1973 34.8555H18.6328V32.8242H28.2812V34.8555Z" fill="#695739"/>
<path opacity="0.2" d="M7.66667 2.66667H11.6667L14.3333 0H22.3333L25 2.66667H29C29.7072 2.66667 30.3855 2.94762 30.8856 3.44772C31.3857 3.94781 31.6667 4.62609 31.6667 5.33333V21.3333C31.6667 22.0406 31.3857 22.7189 30.8856 23.219C30.3855 23.719 29.7072 24 29 24H7.66667C6.95942 24 6.28115 23.719 5.78105 23.219C5.28095 22.7189 5 22.0406 5 21.3333V5.33333C5 4.62609 5.28095 3.94781 5.78105 3.44772C6.28115 2.94762 6.95942 2.66667 7.66667 2.66667ZM18.3333 6.66667C16.5652 6.66667 14.8695 7.36905 13.6193 8.61929C12.369 9.86953 11.6667 11.5652 11.6667 13.3333C11.6667 15.1014 12.369 16.7971 13.6193 18.0474C14.8695 19.2976 16.5652 20 18.3333 20C20.1014 20 21.7971 19.2976 23.0474 18.0474C24.2976 16.7971 25 15.1014 25 13.3333C25 11.5652 24.2976 9.86953 23.0474 8.61929C21.7971 7.36905 20.1014 6.66667 18.3333 6.66667ZM18.3333 9.33333C19.3942 9.33333 20.4116 9.75476 21.1618 10.5049C21.9119 11.2551 22.3333 12.2725 22.3333 13.3333C22.3333 14.3942 21.9119 15.4116 21.1618 16.1618C20.4116 16.9119 19.3942 17.3333 18.3333 17.3333C17.2725 17.3333 16.2551 16.9119 15.5049 16.1618C14.7548 15.4116 14.3333 14.3942 14.3333 13.3333C14.3333 12.2725 14.7548 11.2551 15.5049 10.5049C16.2551 9.75476 17.2725 9.33333 18.3333 9.33333Z" fill="#695739"/>
</svg>
