<svg width="134" height="177" viewBox="0 0 134 177" fill="none" xmlns="http://www.w3.org/2000/svg">
<rect x="0.314453" width="132.75" height="177" fill="#F6F6F6"/>
<path opacity="0.2" d="M64.625 120.727H62.125V110.023H64.625V120.727ZM64.625 127.797H62.125V123.5H52.3984V121.508H64.625V127.797ZM60.25 113.051H56.6758C56.6823 113.773 56.8385 114.473 57.1445 115.15C57.457 115.827 57.929 116.433 58.5605 116.967C59.1986 117.501 59.9831 117.908 60.9141 118.188L59.6445 120.121C58.6745 119.822 57.8346 119.369 57.125 118.764C56.4154 118.158 55.8555 117.442 55.4453 116.615C55.0286 117.514 54.4557 118.295 53.7266 118.959C52.9974 119.617 52.125 120.115 51.1094 120.453L49.8203 118.52C50.7578 118.214 51.5488 117.777 52.1934 117.211C52.8444 116.638 53.3294 115.993 53.6484 115.277C53.9674 114.555 54.1302 113.812 54.1367 113.051H50.4844V111.059H60.25V113.051ZM82.0078 119.75H79.5273V116.039H76.7148V114.008H79.5273V110.023H82.0078V119.75ZM72.6133 122.113H79.5273V120.434H82.0078V127.602H70.1523V120.434H72.6133V122.113ZM79.5273 125.609V124.027H72.6133V125.609H79.5273ZM77.2812 112.855H73.7559C73.7949 113.539 73.9674 114.203 74.2734 114.848C74.5859 115.492 75.0384 116.072 75.6309 116.586C76.2298 117.1 76.9622 117.497 77.8281 117.777L76.5977 119.691C75.6341 119.372 74.8073 118.91 74.1172 118.305C73.4336 117.699 72.8932 116.986 72.4961 116.166C72.0924 117.084 71.5293 117.882 70.8066 118.559C70.084 119.229 69.2148 119.73 68.1992 120.062L66.9297 118.109C67.8281 117.81 68.5866 117.39 69.2051 116.85C69.8301 116.303 70.3053 115.688 70.6309 115.004C70.9629 114.32 71.1517 113.604 71.1973 112.855H67.6328V110.824H77.2812V112.855Z" fill="#695739"/>
<path opacity="0.2" d="M56.6667 80.6667H60.6667L63.3333 78H71.3333L74 80.6667H78C78.7072 80.6667 79.3855 80.9476 79.8856 81.4477C80.3857 81.9478 80.6667 82.6261 80.6667 83.3333V99.3333C80.6667 100.041 80.3857 100.719 79.8856 101.219C79.3855 101.719 78.7072 102 78 102H56.6667C55.9594 102 55.2811 101.719 54.781 101.219C54.281 100.719 54 100.041 54 99.3333V83.3333C54 82.6261 54.281 81.9478 54.781 81.4477C55.2811 80.9476 55.9594 80.6667 56.6667 80.6667ZM67.3333 84.6667C65.5652 84.6667 63.8695 85.369 62.6193 86.6193C61.369 87.8695 60.6667 89.5652 60.6667 91.3333C60.6667 93.1014 61.369 94.7971 62.6193 96.0474C63.8695 97.2976 65.5652 98 67.3333 98C69.1014 98 70.7971 97.2976 72.0474 96.0474C73.2976 94.7971 74 93.1014 74 91.3333C74 89.5652 73.2976 87.8695 72.0474 86.6193C70.7971 85.369 69.1014 84.6667 67.3333 84.6667ZM67.3333 87.3333C68.3942 87.3333 69.4116 87.7548 70.1618 88.5049C70.9119 89.2551 71.3333 90.2725 71.3333 91.3333C71.3333 92.3942 70.9119 93.4116 70.1618 94.1618C69.4116 94.9119 68.3942 95.3333 67.3333 95.3333C66.2725 95.3333 65.2551 94.9119 64.5049 94.1618C63.7548 93.4116 63.3333 92.3942 63.3333 91.3333C63.3333 90.2725 63.7548 89.2551 64.5049 88.5049C65.2551 87.7548 66.2725 87.3333 67.3333 87.3333Z" fill="#695739"/>
</svg>
