<svg width="34" height="64" viewBox="0 0 34 64" fill="none" xmlns="http://www.w3.org/2000/svg">
<path opacity="0.2" d="M26.8751 1.90539C27.2056 0.938328 28.5418 0.909039 28.9336 1.81753L28.9667 1.90594L29.4127 3.2101C29.5149 3.50919 29.68 3.78288 29.897 4.01272C30.114 4.24255 30.3777 4.42319 30.6704 4.54243L30.7903 4.58719L32.0945 5.0326C33.0615 5.36306 33.0908 6.69926 32.1829 7.09106L32.0945 7.12422L30.7903 7.57017C30.4911 7.6723 30.2173 7.83743 29.9874 8.0544C29.7575 8.27137 29.5767 8.53514 29.4574 8.82791L29.4127 8.94727L28.9673 10.252C28.6368 11.219 27.3006 11.2483 26.9094 10.3404L26.8751 10.252L26.4297 8.94782C26.3276 8.64863 26.1624 8.37483 25.9455 8.14489C25.7285 7.91496 25.4647 7.73424 25.172 7.61493L25.0526 7.57017L23.7484 7.12477C22.7808 6.79431 22.7515 5.4581 23.66 5.06686L23.7484 5.0326L25.0526 4.58719C25.3517 4.48499 25.6254 4.31984 25.8552 4.10287C26.085 3.88591 26.2657 3.62217 26.3849 3.32946L26.4297 3.2101L26.8751 1.90539ZM32.342 9.98493e-08C32.4454 -1.304e-07 32.5467 0.0289999 32.6345 0.0837043C32.7222 0.138409 32.7928 0.216624 32.8383 0.30946L32.8648 0.374115L33.0582 0.941091L33.6257 1.1345C33.7293 1.1697 33.8202 1.23487 33.8867 1.32174C33.9532 1.40861 33.9925 1.51327 33.9995 1.62247C34.0064 1.73166 33.9809 1.84048 33.9259 1.93511C33.871 2.02975 33.7892 2.10595 33.691 2.15406L33.6257 2.18059L33.0588 2.374L32.8654 2.94153C32.8301 3.0451 32.7649 3.13588 32.678 3.20236C32.5911 3.26883 32.4864 3.30801 32.3772 3.31494C32.268 3.32186 32.1592 3.29622 32.0646 3.24125C31.97 3.18629 31.8939 3.10448 31.8458 3.00619L31.8193 2.94153L31.6259 2.37455L31.0583 2.18114C30.9547 2.14594 30.8639 2.08078 30.7974 1.99391C30.7308 1.90704 30.6916 1.80237 30.6846 1.69318C30.6776 1.58398 30.7032 1.47517 30.7581 1.38053C30.8131 1.28589 30.8948 1.20969 30.9931 1.16158L31.0583 1.13506L31.6253 0.941643L31.8187 0.374115C31.856 0.264934 31.9265 0.170153 32.0203 0.103061C32.1142 0.0359687 32.2267 -6.92314e-05 32.342 9.98493e-08Z" fill="#695739"/>
<path opacity="0.2" d="M3.55664 59L8.45898 44.8594H12.2285L17.1113 59H13.9668L12.9023 55.7383H7.78516L6.7207 59H3.55664ZM12.1602 53.4531L10.3926 48.043H10.2949L8.52734 53.4531H12.1602ZM21.6426 59H18.7129V44.8594H21.6426V59Z" fill="#695739"/>
<path opacity="0.2" d="M2.66667 13.6667H6.66667L9.33333 11H17.3333L20 13.6667H24C24.7072 13.6667 25.3855 13.9476 25.8856 14.4477C26.3857 14.9478 26.6667 15.6261 26.6667 16.3333V32.3333C26.6667 33.0406 26.3857 33.7189 25.8856 34.219C25.3855 34.719 24.7072 35 24 35H2.66667C1.95942 35 1.28115 34.719 0.781048 34.219C0.280951 33.7189 0 33.0406 0 32.3333V16.3333C0 15.6261 0.280951 14.9478 0.781048 14.4477C1.28115 13.9476 1.95942 13.6667 2.66667 13.6667ZM13.3333 17.6667C11.5652 17.6667 9.86953 18.369 8.61929 19.6193C7.36905 20.8695 6.66667 22.5652 6.66667 24.3333C6.66667 26.1014 7.36905 27.7971 8.61929 29.0474C9.86953 30.2976 11.5652 31 13.3333 31C15.1014 31 16.7971 30.2976 18.0474 29.0474C19.2976 27.7971 20 26.1014 20 24.3333C20 22.5652 19.2976 20.8695 18.0474 19.6193C16.7971 18.369 15.1014 17.6667 13.3333 17.6667ZM13.3333 20.3333C14.3942 20.3333 15.4116 20.7548 16.1618 21.5049C16.9119 22.2551 17.3333 23.2725 17.3333 24.3333C17.3333 25.3942 16.9119 26.4116 16.1618 27.1618C15.4116 27.9119 14.3942 28.3333 13.3333 28.3333C12.2725 28.3333 11.2551 27.9119 10.5049 27.1618C9.75476 26.4116 9.33333 25.3942 9.33333 24.3333C9.33333 23.2725 9.75476 22.2551 10.5049 21.5049C11.2551 20.7548 12.2725 20.3333 13.3333 20.3333Z" fill="#695739"/>
</svg>
