<svg width="133" height="177" viewBox="0 0 133 177" fill="none" xmlns="http://www.w3.org/2000/svg">
<rect width="132.75" height="177" fill="#F6F6F6"/>
<path opacity="0.2" d="M79.8751 68.9054C80.2056 67.9383 81.5418 67.909 81.9336 68.8175L81.9667 68.9059L82.4127 70.2101C82.5149 70.5092 82.68 70.7829 82.897 71.0127C83.114 71.2426 83.3777 71.4232 83.6704 71.5424L83.7903 71.5872L85.0945 72.0326C86.0615 72.3631 86.0908 73.6993 85.1829 74.0911L85.0945 74.1242L83.7903 74.5702C83.4911 74.6723 83.2173 74.8374 82.9874 75.0544C82.7575 75.2714 82.5767 75.5351 82.4574 75.8279L82.4127 75.9473L81.9673 77.252C81.6368 78.219 80.3006 78.2483 79.9094 77.3404L79.8751 77.252L79.4297 75.9478C79.3276 75.6486 79.1624 75.3748 78.9455 75.1449C78.7285 74.915 78.4647 74.7342 78.172 74.6149L78.0526 74.5702L76.7484 74.1248C75.7808 73.7943 75.7515 72.4581 76.66 72.0669L76.7484 72.0326L78.0526 71.5872C78.3517 71.485 78.6254 71.3198 78.8552 71.1029C79.085 70.8859 79.2657 70.6222 79.3849 70.3295L79.4297 70.2101L79.8751 68.9054ZM85.342 67C85.4454 67 85.5467 67.029 85.6345 67.0837C85.7222 67.1384 85.7928 67.2166 85.8383 67.3095L85.8648 67.3741L86.0582 67.9411L86.6257 68.1345C86.7293 68.1697 86.8202 68.2349 86.8867 68.3217C86.9532 68.4086 86.9925 68.5133 86.9995 68.6225C87.0064 68.7317 86.9809 68.8405 86.9259 68.9351C86.871 69.0298 86.7892 69.106 86.691 69.1541L86.6257 69.1806L86.0588 69.374L85.8654 69.9415C85.8301 70.0451 85.7649 70.1359 85.678 70.2024C85.5911 70.2688 85.4864 70.308 85.3772 70.3149C85.268 70.3219 85.1592 70.2962 85.0646 70.2413C84.97 70.1863 84.8939 70.1045 84.8458 70.0062L84.8193 69.9415L84.6259 69.3746L84.0583 69.1811C83.9547 69.1459 83.8639 69.0808 83.7974 68.9939C83.7308 68.907 83.6916 68.8024 83.6846 68.6932C83.6776 68.584 83.7032 68.4752 83.7581 68.3805C83.8131 68.2859 83.8948 68.2097 83.9931 68.1616L84.0583 68.1351L84.6253 67.9416L84.8187 67.3741C84.856 67.2649 84.9265 67.1702 85.0203 67.1031C85.1142 67.036 85.2267 66.9999 85.342 67Z" fill="#695739"/>
<path opacity="0.2" d="M56.5566 126L61.459 111.859H65.2285L70.1113 126H66.9668L65.9023 122.738H60.7852L59.7207 126H56.5566ZM65.1602 120.453L63.3926 115.043H63.2949L61.5273 120.453H65.1602ZM74.6426 126H71.7129V111.859H74.6426V126Z" fill="#695739"/>
<path opacity="0.2" d="M55.6667 80.6667H59.6667L62.3333 78H70.3333L73 80.6667H77C77.7072 80.6667 78.3855 80.9476 78.8856 81.4477C79.3857 81.9478 79.6667 82.6261 79.6667 83.3333V99.3333C79.6667 100.041 79.3857 100.719 78.8856 101.219C78.3855 101.719 77.7072 102 77 102H55.6667C54.9594 102 54.2811 101.719 53.781 101.219C53.281 100.719 53 100.041 53 99.3333V83.3333C53 82.6261 53.281 81.9478 53.781 81.4477C54.2811 80.9476 54.9594 80.6667 55.6667 80.6667ZM66.3333 84.6667C64.5652 84.6667 62.8695 85.369 61.6193 86.6193C60.369 87.8695 59.6667 89.5652 59.6667 91.3333C59.6667 93.1014 60.369 94.7971 61.6193 96.0474C62.8695 97.2976 64.5652 98 66.3333 98C68.1014 98 69.7971 97.2976 71.0474 96.0474C72.2976 94.7971 73 93.1014 73 91.3333C73 89.5652 72.2976 87.8695 71.0474 86.6193C69.7971 85.369 68.1014 84.6667 66.3333 84.6667ZM66.3333 87.3333C67.3942 87.3333 68.4116 87.7548 69.1618 88.5049C69.9119 89.2551 70.3333 90.2725 70.3333 91.3333C70.3333 92.3942 69.9119 93.4116 69.1618 94.1618C68.4116 94.9119 67.3942 95.3333 66.3333 95.3333C65.2725 95.3333 64.2551 94.9119 63.5049 94.1618C62.7548 93.4116 62.3333 92.3942 62.3333 91.3333C62.3333 90.2725 62.7548 89.2551 63.5049 88.5049C64.2551 87.7548 65.2725 87.3333 66.3333 87.3333Z" fill="#695739"/>
</svg>
