<svg width="27" height="36" viewBox="0 0 27 36" fill="none" xmlns="http://www.w3.org/2000/svg">
<path d="M25 18.5C25 16.2019 24.6767 13.9262 24.0485 11.803C23.4203 9.67984 22.4996 7.75066 21.3388 6.12563C20.1781 4.50061 18.8001 3.21157 17.2835 2.33211C15.767 1.45265 14.1415 1 12.5 1C10.8585 1 9.23303 1.45265 7.71646 2.33211C6.19989 3.21157 4.8219 4.50061 3.66116 6.12563C2.50043 7.75066 1.57969 9.67984 0.951505 11.803C0.323322 13.9262 -1.43506e-07 16.2019 0 18.5L12.5 18.5H25Z" fill="#DFDFDF"/>
<path d="M6 19.5C6 21.2239 6.68482 22.8772 7.90381 24.0962C9.12279 25.3152 10.7761 26 12.5 26C14.2239 26 15.8772 25.3152 17.0962 24.0962C18.3152 22.8772 19 21.2239 19 19.5L12.5 19.5L6 19.5Z" fill="#DFDFDF"/>
<circle cx="21.5" cy="6.5" r="5.5" fill="#695739"/>
</svg>
