<svg width="25" height="35" viewBox="0 0 25 35" fill="none" xmlns="http://www.w3.org/2000/svg">
<path d="M25 17.5C25 15.2019 24.6767 12.9262 24.0485 10.803C23.4203 8.67984 22.4996 6.75066 21.3388 5.12563C20.1781 3.50061 18.8001 2.21157 17.2835 1.33211C15.767 0.452651 14.1415 -1.00455e-07 12.5 0C10.8585 1.00455e-07 9.23303 0.452651 7.71646 1.33211C6.19989 2.21157 4.8219 3.50061 3.66116 5.12563C2.50043 6.75066 1.57969 8.67984 0.951505 10.803C0.323322 12.9262 -1.43506e-07 15.2019 0 17.5L12.5 17.5H25Z" fill="#D9D9D9"/>
<path d="M6 18.5C6 20.2239 6.68482 21.8772 7.90381 23.0962C9.12279 24.3152 10.7761 25 12.5 25C14.2239 25 15.8772 24.3152 17.0962 23.0962C18.3152 21.8772 19 20.2239 19 18.5L12.5 18.5L6 18.5Z" fill="#D9D9D9"/>
</svg>
