<svg width="208" height="205" viewBox="0 0 208 205" fill="none" xmlns="http://www.w3.org/2000/svg">
<mask id="path-1-inside-1_25_2002" fill="white">
<path d="M103.864 0.607086C115.198 0.60712 128.11 7.71442 128.11 40.5358C128.11 42.6808 128.046 44.7823 127.927 46.8395C129.397 45.1726 130.949 43.5141 132.591 41.8727C155.799 18.6645 169.956 22.7697 177.97 30.7838C185.984 38.798 189.942 52.8081 166.734 76.0163C165.111 77.6395 163.475 79.1758 161.835 80.6335C163.869 80.5228 165.948 80.4645 168.071 80.4645C200.893 80.4645 208 93.1699 208 104.504C208 115.837 200.893 128.75 168.071 128.75C165.946 128.75 163.863 128.687 161.823 128.57C163.467 130.031 165.107 131.571 166.734 133.198C189.942 156.406 185.984 170.416 177.97 178.43C169.956 186.444 155.799 190.549 132.591 167.341C131.019 165.77 129.53 164.183 128.115 162.588C128.131 163.373 128.143 164.166 128.143 164.965C128.142 197.786 115.437 204.892 104.104 204.892C92.77 204.892 79.8575 197.785 79.8574 164.965C79.8574 164.153 79.8682 163.347 79.8857 162.548C78.4612 164.156 76.961 165.757 75.377 167.341C52.1689 190.549 38.0122 186.444 29.998 178.43C21.984 170.416 18.0253 156.406 41.2334 133.198C42.8559 131.575 44.4907 130.039 46.1299 128.582C44.1074 128.691 42.0402 128.75 39.9287 128.75C7.10729 128.75 1.69187e-05 116.044 0 104.711C-4.9541e-07 93.3769 7.10725 80.4635 39.9287 80.4635C42.0554 80.4635 44.1393 80.526 46.1797 80.6432C44.524 79.1732 42.8722 77.6228 41.2334 75.984C18.0253 52.7758 21.984 38.7657 29.998 30.7516C38.0122 22.7376 52.1689 18.6325 75.377 41.8405C77.0008 43.4643 78.5368 45.1057 79.9932 46.7545C79.8831 44.7265 79.8252 42.6534 79.8252 40.5358C79.8252 7.71434 92.5306 0.607087 103.864 0.607086Z"/>
</mask>
<path d="M103.864 0.607086C115.198 0.60712 128.11 7.71442 128.11 40.5358C128.11 42.6808 128.046 44.7823 127.927 46.8395C129.397 45.1726 130.949 43.5141 132.591 41.8727C155.799 18.6645 169.956 22.7697 177.97 30.7838C185.984 38.798 189.942 52.8081 166.734 76.0163C165.111 77.6395 163.475 79.1758 161.835 80.6335C163.869 80.5228 165.948 80.4645 168.071 80.4645C200.893 80.4645 208 93.1699 208 104.504C208 115.837 200.893 128.75 168.071 128.75C165.946 128.75 163.863 128.687 161.823 128.57C163.467 130.031 165.107 131.571 166.734 133.198C189.942 156.406 185.984 170.416 177.97 178.43C169.956 186.444 155.799 190.549 132.591 167.341C131.019 165.77 129.53 164.183 128.115 162.588C128.131 163.373 128.143 164.166 128.143 164.965C128.142 197.786 115.437 204.892 104.104 204.892C92.77 204.892 79.8575 197.785 79.8574 164.965C79.8574 164.153 79.8682 163.347 79.8857 162.548C78.4612 164.156 76.961 165.757 75.377 167.341C52.1689 190.549 38.0122 186.444 29.998 178.43C21.984 170.416 18.0253 156.406 41.2334 133.198C42.8559 131.575 44.4907 130.039 46.1299 128.582C44.1074 128.691 42.0402 128.75 39.9287 128.75C7.10729 128.75 1.69187e-05 116.044 0 104.711C-4.9541e-07 93.3769 7.10725 80.4635 39.9287 80.4635C42.0554 80.4635 44.1393 80.526 46.1797 80.6432C44.524 79.1732 42.8722 77.6228 41.2334 75.984C18.0253 52.7758 21.984 38.7657 29.998 30.7516C38.0122 22.7376 52.1689 18.6325 75.377 41.8405C77.0008 43.4643 78.5368 45.1057 79.9932 46.7545C79.8831 44.7265 79.8252 42.6534 79.8252 40.5358C79.8252 7.71434 92.5306 0.607087 103.864 0.607086Z" fill="#695739"/>
<path d="M103.864 0.607086V0.0356576V0.607086ZM128.11 40.5358H128.682H128.11ZM127.927 46.8395L127.356 46.8065L127.261 48.4586L128.355 47.2175L127.927 46.8395ZM132.591 41.8727L132.187 41.4687L132.591 41.8727ZM177.97 30.7838L178.374 30.3798L177.97 30.7838ZM166.734 76.0163L167.138 76.4203L166.734 76.0163ZM161.835 80.6335L161.455 80.2064L160.233 81.2929L161.866 81.204L161.835 80.6335ZM168.071 80.4645V79.8931V80.4645ZM208 104.504L208.571 104.504V104.504H208ZM168.071 128.75V129.321V128.75ZM161.823 128.57L161.856 127.999L160.215 127.905L161.444 128.997L161.823 128.57ZM166.734 133.198L167.138 132.794V132.794L166.734 133.198ZM177.97 178.43L178.374 178.834H178.374L177.97 178.43ZM132.591 167.341L132.187 167.746H132.187L132.591 167.341ZM128.115 162.588L128.543 162.208L127.512 161.046L127.544 162.599L128.115 162.588ZM128.143 164.965H128.714H128.143ZM104.104 204.892L104.104 205.464H104.104V204.892ZM79.8574 164.965H79.286H79.8574ZM79.8857 162.548L80.457 162.561L80.4912 161.003L79.458 162.17L79.8857 162.548ZM75.377 167.341L75.781 167.746L75.377 167.341ZM29.998 178.43L29.594 178.834H29.594L29.998 178.43ZM41.2334 133.198L40.8293 132.794L41.2334 133.198ZM46.1299 128.582L46.5095 129.009L47.7313 127.923L46.099 128.011L46.1299 128.582ZM39.9287 128.75V129.321V128.75ZM0 104.711H-0.571429H0ZM39.9287 80.4635V79.8921V80.4635ZM46.1797 80.6432L46.1469 81.2137L47.7892 81.308L46.5591 80.2159L46.1797 80.6432ZM41.2334 75.984L40.8293 76.3881L41.2334 75.984ZM29.998 30.7516L29.594 30.3476L29.594 30.3476L29.998 30.7516ZM75.377 41.8405L75.781 41.4364L75.377 41.8405ZM79.9932 46.7545L79.5649 47.1328L80.6528 48.3646L80.5638 46.7236L79.9932 46.7545ZM79.8252 40.5358H79.2538H79.8252ZM103.864 0.607086V1.17851C109.404 1.17853 115.279 2.90864 119.789 8.61767C124.32 14.3528 127.539 24.1844 127.539 40.5358H128.11H128.682C128.682 24.0659 125.445 13.9331 120.686 7.90921C115.906 1.85923 109.659 0.0356748 103.864 0.0356576V0.607086ZM128.11 40.5358H127.539C127.539 42.6693 127.475 44.7598 127.356 46.8065L127.927 46.8395L128.497 46.8726C128.617 44.8048 128.682 42.6922 128.682 40.5358H128.11ZM127.927 46.8395L128.355 47.2175C129.818 45.5592 131.362 43.9094 132.995 42.2768L132.591 41.8727L132.187 41.4687C130.537 43.1187 128.976 44.786 127.498 46.4615L127.927 46.8395ZM132.591 41.8727L132.995 42.2768C144.557 30.7146 153.785 26.039 161.045 25.1875C168.271 24.3398 173.649 27.271 177.566 31.1879L177.97 30.7838L178.374 30.3798C174.277 26.2826 168.569 23.1541 160.911 24.0524C153.287 24.9468 143.833 29.8227 132.187 41.4687L132.591 41.8727ZM177.97 30.7838L177.566 31.1879C181.482 35.1042 184.376 40.4443 183.493 47.6326C182.606 54.8561 177.894 64.0488 166.33 75.6122L166.734 76.0163L167.138 76.4203C178.783 64.7756 183.696 55.3591 184.628 47.7719C185.564 40.1497 182.472 34.4776 178.374 30.3798L177.97 30.7838ZM166.734 76.0163L166.33 75.6122C164.715 77.2272 163.087 78.7558 161.455 80.2064L161.835 80.6335L162.215 81.0606C163.862 79.5959 165.507 78.0519 167.138 76.4203L166.734 76.0163ZM161.835 80.6335L161.866 81.204C163.889 81.0939 165.958 81.0359 168.071 81.0359V80.4645V79.8931C165.937 79.8931 163.848 79.9516 161.804 80.0629L161.835 80.6335ZM168.071 80.4645V81.0359C184.425 81.0359 194.257 84.204 199.992 88.6842C205.699 93.1427 207.429 98.965 207.429 104.504H208H208.571C208.571 98.7085 206.747 92.5112 200.695 87.7836C194.672 83.0777 184.539 79.8931 168.071 79.8931V80.4645ZM208 104.504L207.429 104.504C207.429 110.043 205.698 115.918 199.989 120.428C194.254 124.959 184.423 128.178 168.071 128.178V128.75V129.321C184.541 129.321 194.674 126.084 200.698 121.325C206.748 116.546 208.571 110.298 208.571 104.504L208 104.504ZM168.071 128.75V128.178C165.957 128.178 163.885 128.116 161.856 127.999L161.823 128.57L161.79 129.14C163.841 129.258 165.934 129.321 168.071 129.321V128.75ZM161.823 128.57L161.444 128.997C163.08 130.451 164.711 131.983 166.33 133.602L166.734 133.198L167.138 132.794C165.503 131.158 163.855 129.611 162.203 128.143L161.823 128.57ZM166.734 133.198L166.33 133.602C177.894 145.165 182.606 154.358 183.493 161.582C184.376 168.77 181.482 174.11 177.566 178.026L177.97 178.43L178.374 178.834C182.472 174.737 185.564 169.065 184.628 161.442C183.696 153.855 178.783 144.439 167.138 132.794L166.734 133.198ZM177.97 178.43L177.566 178.026C173.649 181.943 168.271 184.874 161.045 184.027C153.785 183.175 144.557 178.5 132.995 166.937L132.591 167.341L132.187 167.746C143.833 179.391 153.287 184.267 160.911 185.162C168.569 186.06 174.277 182.932 178.374 178.834L177.97 178.43ZM132.591 167.341L132.995 166.937C131.432 165.374 129.95 163.795 128.543 162.208L128.115 162.588L127.688 162.967C129.109 164.57 130.607 166.166 132.187 167.746L132.591 167.341ZM128.115 162.588L127.544 162.599C127.56 163.383 127.571 164.171 127.571 164.965H128.143H128.714C128.714 164.161 128.703 163.364 128.687 162.576L128.115 162.588ZM128.143 164.965H127.571C127.571 181.318 124.403 191.15 119.923 196.884C115.464 202.592 109.642 204.321 104.104 204.321V204.892V205.464C109.899 205.464 116.096 203.64 120.823 197.588C125.529 191.564 128.714 181.433 128.714 164.965H128.143ZM104.104 204.892L104.104 204.321C98.5642 204.321 92.6889 202.591 88.1788 196.882C83.648 191.147 80.4289 181.316 80.4288 164.965H79.8574H79.286C79.286 181.434 82.5232 191.567 87.282 197.59C92.0615 203.64 98.3093 205.464 104.104 205.464L104.104 204.892ZM79.8574 164.965H80.4288C80.4288 164.158 80.4396 163.357 80.457 162.561L79.8857 162.548L79.3145 162.536C79.2968 163.338 79.286 164.148 79.286 164.965H79.8574ZM79.8857 162.548L79.458 162.17C78.0407 163.769 76.5483 165.362 74.9729 166.937L75.377 167.341L75.781 167.746C77.3736 166.153 78.8817 164.544 80.3135 162.927L79.8857 162.548ZM75.377 167.341L74.9729 166.937C63.4107 178.5 54.1824 183.175 46.9232 184.027C39.697 184.874 34.319 181.943 30.4021 178.026L29.998 178.43L29.594 178.834C33.6912 182.932 39.3986 186.06 47.0563 185.162C54.681 184.267 64.1351 179.391 75.781 167.746L75.377 167.341ZM29.998 178.43L30.4021 178.026C26.4858 174.11 23.5916 168.77 24.4746 161.582C25.3618 154.358 30.074 145.165 41.6375 133.602L41.2334 133.198L40.8293 132.794C29.1846 144.439 24.2721 153.855 23.3402 161.442C22.404 169.065 25.4962 174.737 29.594 178.834L29.998 178.43ZM41.2334 133.198L41.6375 133.602C43.2519 131.988 44.8784 130.459 46.5095 129.009L46.1299 128.582L45.7502 128.155C44.103 129.619 42.46 131.163 40.8293 132.794L41.2334 133.198ZM46.1299 128.582L46.099 128.011C44.0866 128.12 42.0297 128.178 39.9287 128.178V128.75V129.321C42.0508 129.321 44.1283 129.262 46.1608 129.152L46.1299 128.582ZM39.9287 128.75V128.178C23.5755 128.178 13.7432 125.01 8.00811 120.53C2.30088 116.071 0.571437 110.249 0.571429 104.711H0H-0.571429C-0.57142 110.506 1.25278 116.703 7.30455 121.431C13.3284 126.136 23.4605 129.321 39.9287 129.321V128.75ZM0 104.711H0.571429C0.571428 99.1712 2.30152 93.2957 8.01055 88.7853C13.7457 84.2543 23.5772 81.035 39.9287 81.035V80.4635V79.8921C23.4587 79.8921 13.3259 83.1295 7.30207 87.8886C1.2521 92.6683 -0.571429 98.9163 -0.571429 104.711H0ZM39.9287 80.4635V81.035C42.0442 81.035 44.1172 81.0971 46.1469 81.2137L46.1797 80.6432L46.2125 80.0727C44.1615 79.9549 42.0666 79.8921 39.9287 79.8921V80.4635ZM46.1797 80.6432L46.5591 80.2159C44.9115 78.7531 43.2679 77.2104 41.6375 75.58L41.2334 75.984L40.8293 76.3881C42.4765 78.0352 44.1365 79.5934 45.8003 81.0705L46.1797 80.6432ZM41.2334 75.984L41.6375 75.58C30.074 64.0165 25.3618 54.8238 24.4746 47.6004C23.5916 40.412 26.4858 35.072 30.4021 31.1557L29.998 30.7516L29.594 30.3476C25.4962 34.4453 22.404 40.1174 23.3402 47.7397C24.2721 55.3269 29.1846 64.7434 40.8293 76.3881L41.2334 75.984ZM29.998 30.7516L30.4021 31.1557C34.319 27.2388 39.697 24.3077 46.9232 25.1553C54.1824 26.0069 63.4107 30.6824 74.9729 42.2445L75.377 41.8405L75.781 41.4364C64.1351 29.7905 54.681 24.9147 47.0563 24.0203C39.3986 23.122 33.6912 26.2504 29.594 30.3476L29.998 30.7516ZM75.377 41.8405L74.9729 42.2445C76.588 43.8596 78.116 45.4924 79.5649 47.1328L79.9932 46.7545L80.4215 46.3763C78.9577 44.719 77.4136 43.069 75.781 41.4364L75.377 41.8405ZM79.9932 46.7545L80.5638 46.7236C80.4542 44.7058 80.3966 42.643 80.3966 40.5358H79.8252H79.2538C79.2538 42.6638 79.312 44.7473 79.4226 46.7855L79.9932 46.7545ZM79.8252 40.5358H80.3966C80.3966 24.1825 83.5647 14.3503 88.0449 8.61518C92.5034 2.90795 98.3257 1.17852 103.864 1.17851V0.607086V0.0356576C98.0691 0.0356581 91.8719 1.85985 87.1443 7.91161C82.4384 13.9355 79.2538 24.0676 79.2538 40.5358H79.8252Z" fill="#695739" mask="url(#path-1-inside-1_25_2002)"/>
</svg>
