<svg width="393" height="780" viewBox="0 0 393 780" fill="none" xmlns="http://www.w3.org/2000/svg">
<path opacity="0.05" d="M357.479 73C359.169 73 361.093 74.0595 361.093 78.9512C361.093 79.2712 361.083 79.5847 361.065 79.8916C361.285 79.6429 361.516 79.3952 361.761 79.1504C365.22 75.6915 367.33 76.3027 368.524 77.4971C369.719 78.6915 370.309 80.7803 366.85 84.2393C366.607 84.4815 366.362 84.7093 366.117 84.9268C366.421 84.9102 366.732 84.9014 367.049 84.9014C371.94 84.9014 373 86.7953 373 88.4844C373 90.1735 371.94 92.0986 367.049 92.0986C366.731 92.0986 366.42 92.0879 366.115 92.0703C366.361 92.2885 366.607 92.5177 366.85 92.7607C370.309 96.2197 369.719 98.3085 368.524 99.5029C367.33 100.697 365.22 101.308 361.761 97.8496C361.526 97.6148 361.304 97.377 361.093 97.1387C361.095 97.2565 361.099 97.3753 361.099 97.4951C361.099 102.387 359.205 103.446 357.516 103.446C355.826 103.446 353.901 102.387 353.901 97.4951C353.901 97.3737 353.904 97.2533 353.906 97.1338C353.694 97.3737 353.471 97.6133 353.234 97.8496C349.776 101.308 347.665 100.697 346.471 99.5029C345.276 98.3085 344.687 96.2197 348.146 92.7607C348.387 92.5191 348.631 92.2903 348.875 92.0732C348.574 92.0895 348.266 92.0986 347.951 92.0986C343.06 92.0986 342 90.2047 342 88.5156C342 86.8265 343.06 84.9014 347.951 84.9014C348.268 84.9014 348.579 84.9112 348.884 84.9287C348.637 84.7095 348.39 84.4788 348.146 84.2344C344.687 80.7757 345.276 78.6876 346.471 77.4932C347.665 76.2988 349.775 75.6866 353.234 79.1455C353.476 79.3873 353.704 79.6324 353.921 79.8779C353.904 79.5757 353.896 79.2667 353.896 78.9512C353.896 74.0595 355.79 73 357.479 73Z" fill="#695739"/>
<path opacity="0.05" d="M357.479 421C359.169 421 361.093 422.06 361.093 426.951C361.093 427.271 361.083 427.585 361.065 427.892C361.285 427.643 361.516 427.395 361.761 427.15C365.22 423.692 367.33 424.303 368.524 425.497C369.719 426.691 370.309 428.78 366.85 432.239C366.607 432.481 366.362 432.709 366.117 432.927C366.421 432.91 366.732 432.901 367.049 432.901C371.94 432.901 373 434.795 373 436.484C373 438.174 371.94 440.099 367.049 440.099C366.731 440.099 366.42 440.088 366.115 440.07C366.361 440.288 366.607 440.518 366.85 440.761C370.309 444.22 369.719 446.309 368.524 447.503C367.33 448.697 365.22 449.308 361.761 445.85C361.526 445.615 361.304 445.377 361.093 445.139C361.095 445.257 361.099 445.375 361.099 445.495C361.099 450.387 359.205 451.446 357.516 451.446C355.826 451.446 353.901 450.387 353.901 445.495C353.901 445.374 353.904 445.253 353.906 445.134C353.694 445.374 353.471 445.613 353.234 445.85C349.776 449.308 347.665 448.697 346.471 447.503C345.276 446.309 344.687 444.22 348.146 440.761C348.387 440.519 348.631 440.29 348.875 440.073C348.574 440.09 348.266 440.099 347.951 440.099C343.06 440.099 342 438.205 342 436.516C342 434.826 343.06 432.901 347.951 432.901C348.268 432.901 348.579 432.911 348.884 432.929C348.637 432.709 348.39 432.479 348.146 432.234C344.687 428.776 345.276 426.688 346.471 425.493C347.665 424.299 349.775 423.687 353.234 427.146C353.476 427.387 353.704 427.632 353.921 427.878C353.904 427.576 353.896 427.267 353.896 426.951C353.896 422.06 355.79 421 357.479 421Z" fill="#695739"/>
<path opacity="0.05" d="M357.479 749C359.169 749 361.093 750.06 361.093 754.951C361.093 755.271 361.083 755.585 361.065 755.892C361.285 755.643 361.516 755.395 361.761 755.15C365.22 751.692 367.33 752.303 368.524 753.497C369.719 754.691 370.309 756.78 366.85 760.239C366.607 760.481 366.362 760.709 366.117 760.927C366.421 760.91 366.732 760.901 367.049 760.901C371.94 760.901 373 762.795 373 764.484C373 766.174 371.94 768.099 367.049 768.099C366.731 768.099 366.42 768.088 366.115 768.07C366.361 768.288 366.607 768.518 366.85 768.761C370.309 772.22 369.719 774.309 368.524 775.503C367.33 776.697 365.22 777.308 361.761 773.85C361.526 773.615 361.304 773.377 361.093 773.139C361.095 773.257 361.099 773.375 361.099 773.495C361.099 778.387 359.205 779.446 357.516 779.446C355.826 779.446 353.901 778.387 353.901 773.495C353.901 773.374 353.904 773.253 353.906 773.134C353.694 773.374 353.471 773.613 353.234 773.85C349.776 777.308 347.665 776.697 346.471 775.503C345.276 774.309 344.687 772.22 348.146 768.761C348.387 768.519 348.631 768.29 348.875 768.073C348.574 768.09 348.266 768.099 347.951 768.099C343.06 768.099 342 766.205 342 764.516C342 762.826 343.06 760.901 347.951 760.901C348.268 760.901 348.579 760.911 348.884 760.929C348.637 760.709 348.39 760.479 348.146 760.234C344.687 756.776 345.276 754.688 346.471 753.493C347.665 752.299 349.775 751.687 353.234 755.146C353.476 755.387 353.704 755.632 353.921 755.878C353.904 755.576 353.896 755.267 353.896 754.951C353.896 750.06 355.79 749 357.479 749Z" fill="#695739"/>
<path opacity="0.05" d="M389.479 193C391.169 193 393.093 194.06 393.093 198.951C393.093 199.271 393.083 199.585 393.065 199.892C393.285 199.643 393.516 199.395 393.761 199.15C397.22 195.692 399.33 196.303 400.524 197.497C401.719 198.691 402.309 200.78 398.85 204.239C398.607 204.481 398.362 204.709 398.117 204.927C398.421 204.91 398.732 204.901 399.049 204.901C403.94 204.901 405 206.795 405 208.484C405 210.174 403.94 212.099 399.049 212.099C398.731 212.099 398.42 212.088 398.115 212.07C398.361 212.288 398.607 212.518 398.85 212.761C402.309 216.22 401.719 218.309 400.524 219.503C399.33 220.697 397.22 221.308 393.761 217.85C393.526 217.615 393.304 217.377 393.093 217.139C393.095 217.257 393.099 217.375 393.099 217.495C393.099 222.387 391.205 223.446 389.516 223.446C387.826 223.446 385.901 222.387 385.901 217.495C385.901 217.374 385.904 217.253 385.906 217.134C385.694 217.374 385.471 217.613 385.234 217.85C381.776 221.308 379.665 220.697 378.471 219.503C377.276 218.309 376.687 216.22 380.146 212.761C380.387 212.519 380.631 212.29 380.875 212.073C380.574 212.09 380.266 212.099 379.951 212.099C375.06 212.099 374 210.205 374 208.516C374 206.826 375.06 204.901 379.951 204.901C380.268 204.901 380.579 204.911 380.884 204.929C380.637 204.709 380.39 204.479 380.146 204.234C376.687 200.776 377.276 198.688 378.471 197.493C379.665 196.299 381.775 195.687 385.234 199.146C385.476 199.387 385.704 199.632 385.921 199.878C385.904 199.576 385.896 199.267 385.896 198.951C385.896 194.06 387.79 193 389.479 193Z" fill="#695739"/>
<path opacity="0.05" d="M389.479 545C391.169 545 393.093 546.06 393.093 550.951C393.093 551.271 393.083 551.585 393.065 551.892C393.285 551.643 393.516 551.395 393.761 551.15C397.22 547.692 399.33 548.303 400.524 549.497C401.719 550.691 402.309 552.78 398.85 556.239C398.607 556.481 398.362 556.709 398.117 556.927C398.421 556.91 398.732 556.901 399.049 556.901C403.94 556.901 405 558.795 405 560.484C405 562.174 403.94 564.099 399.049 564.099C398.731 564.099 398.42 564.088 398.115 564.07C398.361 564.288 398.607 564.518 398.85 564.761C402.309 568.22 401.719 570.309 400.524 571.503C399.33 572.697 397.22 573.308 393.761 569.85C393.526 569.615 393.304 569.377 393.093 569.139C393.095 569.257 393.099 569.375 393.099 569.495C393.099 574.387 391.205 575.446 389.516 575.446C387.826 575.446 385.901 574.387 385.901 569.495C385.901 569.374 385.904 569.253 385.906 569.134C385.694 569.374 385.471 569.613 385.234 569.85C381.776 573.308 379.665 572.697 378.471 571.503C377.276 570.309 376.687 568.22 380.146 564.761C380.387 564.519 380.631 564.29 380.875 564.073C380.574 564.09 380.266 564.099 379.951 564.099C375.06 564.099 374 562.205 374 560.516C374 558.826 375.06 556.901 379.951 556.901C380.268 556.901 380.579 556.911 380.884 556.929C380.637 556.709 380.39 556.479 380.146 556.234C376.687 552.776 377.276 550.688 378.471 549.493C379.665 548.299 381.775 547.687 385.234 551.146C385.476 551.387 385.704 551.632 385.921 551.878C385.904 551.576 385.896 551.267 385.896 550.951C385.896 546.06 387.79 545 389.479 545Z" fill="#695739"/>
<path opacity="0.05" d="M35.5205 0C33.8314 -1.4767e-07 31.9072 1.05951 31.9072 5.95117C31.9072 6.27119 31.9168 6.5847 31.9346 6.8916C31.7153 6.64294 31.4841 6.39524 31.2393 6.15039C27.7804 2.69152 25.67 3.3027 24.4756 4.49707C23.2812 5.69148 22.6915 7.78033 26.1504 11.2393C26.3926 11.4815 26.6381 11.7093 26.8828 11.9268C26.579 11.9102 26.2684 11.9014 25.9512 11.9014C21.0597 11.9014 20.0001 13.7953 20 15.4844C20 17.1735 21.0595 19.0986 25.9512 19.0986C26.2688 19.0986 26.58 19.0879 26.8848 19.0703C26.6392 19.2885 26.3935 19.5177 26.1504 19.7607C22.6915 23.2197 23.2812 25.3085 24.4756 26.5029C25.67 27.6973 27.7804 28.3085 31.2393 24.8496C31.4741 24.6148 31.6959 24.377 31.9072 24.1387C31.9048 24.2565 31.9014 24.3753 31.9014 24.4951C31.9014 29.3866 33.7953 30.4462 35.4844 30.4463C37.1735 30.4463 39.0986 29.3868 39.0986 24.4951C39.0986 24.3737 39.0964 24.2533 39.0938 24.1338C39.3063 24.3737 39.5293 24.6133 39.7656 24.8496C43.2244 28.3084 45.3349 27.6973 46.5293 26.5029C47.7237 25.3085 48.3134 23.2197 44.8545 19.7607C44.6128 19.5191 44.3692 19.2903 44.125 19.0732C44.4263 19.0895 44.7343 19.0986 45.0488 19.0986C49.9403 19.0986 50.9999 17.2047 51 15.5156C51 13.8265 49.9405 11.9014 45.0488 11.9014C44.7315 11.9014 44.4206 11.9112 44.1162 11.9287C44.3632 11.7095 44.6101 11.4788 44.8545 11.2344C48.3131 7.77574 47.7235 5.68762 46.5293 4.49316C45.3349 3.29875 43.2246 2.68658 39.7656 6.14551C39.5238 6.3873 39.296 6.63241 39.0791 6.87793C39.0955 6.57572 39.1035 6.26674 39.1035 5.95117C39.1035 1.05951 37.2097 2.98077e-07 35.5205 0Z" fill="#695739"/>
<path opacity="0.05" d="M35.5205 348C33.8314 348 31.9072 349.06 31.9072 353.951C31.9072 354.271 31.9168 354.585 31.9346 354.892C31.7153 354.643 31.4841 354.395 31.2393 354.15C27.7804 350.692 25.67 351.303 24.4756 352.497C23.2812 353.691 22.6915 355.78 26.1504 359.239C26.3926 359.481 26.6381 359.709 26.8828 359.927C26.579 359.91 26.2684 359.901 25.9512 359.901C21.0597 359.901 20.0001 361.795 20 363.484C20 365.174 21.0595 367.099 25.9512 367.099C26.2688 367.099 26.58 367.088 26.8848 367.07C26.6392 367.288 26.3935 367.518 26.1504 367.761C22.6915 371.22 23.2812 373.309 24.4756 374.503C25.67 375.697 27.7804 376.308 31.2393 372.85C31.4741 372.615 31.6959 372.377 31.9072 372.139C31.9048 372.257 31.9014 372.375 31.9014 372.495C31.9014 377.387 33.7953 378.446 35.4844 378.446C37.1735 378.446 39.0986 377.387 39.0986 372.495C39.0986 372.374 39.0964 372.253 39.0938 372.134C39.3063 372.374 39.5293 372.613 39.7656 372.85C43.2244 376.308 45.3349 375.697 46.5293 374.503C47.7237 373.309 48.3134 371.22 44.8545 367.761C44.6128 367.519 44.3692 367.29 44.125 367.073C44.4263 367.09 44.7343 367.099 45.0488 367.099C49.9403 367.099 50.9999 365.205 51 363.516C51 361.826 49.9405 359.901 45.0488 359.901C44.7315 359.901 44.4206 359.911 44.1162 359.929C44.3632 359.709 44.6101 359.479 44.8545 359.234C48.3131 355.776 47.7235 353.688 46.5293 352.493C45.3349 351.299 43.2246 350.687 39.7656 354.146C39.5238 354.387 39.296 354.632 39.0791 354.878C39.0955 354.576 39.1035 354.267 39.1035 353.951C39.1035 349.06 37.2097 348 35.5205 348Z" fill="#695739"/>
<path opacity="0.05" d="M35.5205 676C33.8314 676 31.9072 677.06 31.9072 681.951C31.9072 682.271 31.9168 682.585 31.9346 682.892C31.7153 682.643 31.4841 682.395 31.2393 682.15C27.7804 678.692 25.67 679.303 24.4756 680.497C23.2812 681.691 22.6915 683.78 26.1504 687.239C26.3926 687.481 26.6381 687.709 26.8828 687.927C26.579 687.91 26.2684 687.901 25.9512 687.901C21.0597 687.901 20.0001 689.795 20 691.484C20 693.174 21.0595 695.099 25.9512 695.099C26.2688 695.099 26.58 695.088 26.8848 695.07C26.6392 695.288 26.3935 695.518 26.1504 695.761C22.6915 699.22 23.2812 701.309 24.4756 702.503C25.67 703.697 27.7804 704.308 31.2393 700.85C31.4741 700.615 31.6959 700.377 31.9072 700.139C31.9048 700.257 31.9014 700.375 31.9014 700.495C31.9014 705.387 33.7953 706.446 35.4844 706.446C37.1735 706.446 39.0986 705.387 39.0986 700.495C39.0986 700.374 39.0964 700.253 39.0938 700.134C39.3063 700.374 39.5293 700.613 39.7656 700.85C43.2244 704.308 45.3349 703.697 46.5293 702.503C47.7237 701.309 48.3134 699.22 44.8545 695.761C44.6128 695.519 44.3692 695.29 44.125 695.073C44.4263 695.09 44.7343 695.099 45.0488 695.099C49.9403 695.099 50.9999 693.205 51 691.516C51 689.826 49.9405 687.901 45.0488 687.901C44.7315 687.901 44.4206 687.911 44.1162 687.929C44.3632 687.709 44.6101 687.479 44.8545 687.234C48.3131 683.776 47.7235 681.688 46.5293 680.493C45.3349 679.299 43.2246 678.687 39.7656 682.146C39.5238 682.387 39.296 682.632 39.0791 682.878C39.0955 682.576 39.1035 682.267 39.1035 681.951C39.1035 677.06 37.2097 676 35.5205 676Z" fill="#695739"/>
<path opacity="0.05" d="M3.52051 120C1.83136 120 -0.0927734 121.06 -0.0927734 125.951C-0.0927677 126.271 -0.0832329 126.585 -0.0654297 126.892C-0.284723 126.643 -0.515905 126.395 -0.760742 126.15C-4.21962 122.692 -6.32999 123.303 -7.52441 124.497C-8.71882 125.691 -9.30853 127.78 -5.84961 131.239C-5.60737 131.481 -5.36191 131.709 -5.11719 131.927C-5.42097 131.91 -5.73155 131.901 -6.04883 131.901C-10.9403 131.901 -11.9999 133.795 -12 135.484C-12 137.174 -10.9405 139.099 -6.04883 139.099C-5.73117 139.099 -5.41997 139.088 -5.11523 139.07C-5.36081 139.288 -5.60653 139.518 -5.84961 139.761C-9.30853 143.22 -8.71882 145.309 -7.52441 146.503C-6.32999 147.697 -4.21961 148.308 -0.760742 144.85C-0.525938 144.615 -0.304062 144.377 -0.0927734 144.139C-0.0952015 144.257 -0.0986309 144.375 -0.0986328 144.495C-0.0986328 149.387 1.79527 150.446 3.48438 150.446C5.17353 150.446 7.09863 149.387 7.09863 144.495C7.09863 144.374 7.09639 144.253 7.09375 144.134C7.30627 144.374 7.52929 144.613 7.76562 144.85C11.2244 148.308 13.3349 147.697 14.5293 146.503C15.7237 145.309 16.3134 143.22 12.8545 139.761C12.6128 139.519 12.3692 139.29 12.125 139.073C12.4263 139.09 12.7343 139.099 13.0488 139.099C17.9403 139.099 18.9999 137.205 19 135.516C19 133.826 17.9405 131.901 13.0488 131.901C12.7315 131.901 12.4206 131.911 12.1162 131.929C12.3632 131.709 12.6101 131.479 12.8545 131.234C16.3131 127.776 15.7235 125.688 14.5293 124.493C13.3349 123.299 11.2246 122.687 7.76562 126.146C7.52384 126.387 7.29596 126.632 7.0791 126.878C7.09551 126.576 7.10351 126.267 7.10352 125.951C7.10352 121.06 5.20966 120 3.52051 120Z" fill="#695739"/>
<path opacity="0.05" d="M3.52051 472C1.83136 472 -0.0927734 473.06 -0.0927734 477.951C-0.0927677 478.271 -0.0832329 478.585 -0.0654297 478.892C-0.284723 478.643 -0.515905 478.395 -0.760742 478.15C-4.21962 474.692 -6.32999 475.303 -7.52441 476.497C-8.71882 477.691 -9.30853 479.78 -5.84961 483.239C-5.60737 483.481 -5.36191 483.709 -5.11719 483.927C-5.42097 483.91 -5.73155 483.901 -6.04883 483.901C-10.9403 483.901 -11.9999 485.795 -12 487.484C-12 489.174 -10.9405 491.099 -6.04883 491.099C-5.73117 491.099 -5.41997 491.088 -5.11523 491.07C-5.36081 491.288 -5.60653 491.518 -5.84961 491.761C-9.30853 495.22 -8.71882 497.309 -7.52441 498.503C-6.32999 499.697 -4.21961 500.308 -0.760742 496.85C-0.525938 496.615 -0.304062 496.377 -0.0927734 496.139C-0.0952015 496.257 -0.0986309 496.375 -0.0986328 496.495C-0.0986328 501.387 1.79527 502.446 3.48438 502.446C5.17353 502.446 7.09863 501.387 7.09863 496.495C7.09863 496.374 7.09639 496.253 7.09375 496.134C7.30627 496.374 7.52929 496.613 7.76562 496.85C11.2244 500.308 13.3349 499.697 14.5293 498.503C15.7237 497.309 16.3134 495.22 12.8545 491.761C12.6128 491.519 12.3692 491.29 12.125 491.073C12.4263 491.09 12.7343 491.099 13.0488 491.099C17.9403 491.099 18.9999 489.205 19 487.516C19 485.826 17.9405 483.901 13.0488 483.901C12.7315 483.901 12.4206 483.911 12.1162 483.929C12.3632 483.709 12.6101 483.479 12.8545 483.234C16.3131 479.776 15.7235 477.688 14.5293 476.493C13.3349 475.299 11.2246 474.687 7.76562 478.146C7.52384 478.387 7.29596 478.632 7.0791 478.878C7.09551 478.576 7.10351 478.267 7.10352 477.951C7.10352 473.06 5.20966 472 3.52051 472Z" fill="#695739"/>
</svg>
