<svg width="186" height="186" viewBox="0 0 186 186" fill="none" xmlns="http://www.w3.org/2000/svg">
<mask id="mask0_43_2391" style="mask-type:luminance" maskUnits="userSpaceOnUse" x="7" y="7" width="172" height="172">
<path d="M93.0001 170.5C103.179 170.513 113.261 168.514 122.665 164.618C132.07 160.723 140.612 155.007 147.8 147.8C155.007 140.612 160.723 132.07 164.618 122.665C168.514 113.261 170.513 103.179 170.5 93.0001C170.513 82.8208 168.514 72.7393 164.618 63.335C160.723 53.9306 155.007 45.3886 147.8 38.1998C140.612 30.9929 132.07 25.2775 122.665 21.382C113.261 17.4864 103.179 15.4875 93.0001 15.5001C82.8208 15.4875 72.7393 17.4864 63.335 21.382C53.9306 25.2775 45.3886 30.9929 38.1998 38.1998C30.9929 45.3886 25.2775 53.9306 21.382 63.335C17.4864 72.7393 15.4875 82.8208 15.5001 93.0001C15.4875 103.179 17.4864 113.261 21.382 122.665C25.2775 132.07 30.9929 140.612 38.1998 147.8C45.3886 155.007 53.9306 160.723 63.335 164.618C72.7393 168.514 82.8208 170.513 93.0001 170.5Z" fill="white" stroke="white" stroke-width="15.5" stroke-linejoin="round"/>
<path d="M62 93L85.25 116.25L131.75 69.75" stroke="black" stroke-width="15.5" stroke-linecap="round" stroke-linejoin="round"/>
</mask>
<g mask="url(#mask0_43_2391)">
<path d="M0 0H186V186H0V0Z" fill="#695739"/>
</g>
</svg>
