<svg width="182" height="252" viewBox="0 0 182 252" fill="none" xmlns="http://www.w3.org/2000/svg">
<mask id="path-1-inside-1_18_1033" fill="white">
<path d="M181.763 -106C201.597 -106 224.193 -93.5622 224.193 -36.125C224.193 -32.3748 224.084 -28.7004 223.876 -25.1035C226.447 -28.018 229.164 -30.9153 232.034 -33.7852C272.648 -74.3992 297.422 -67.215 311.446 -53.1904C325.471 -39.1657 332.399 -14.6487 291.784 25.9658C288.945 28.8049 286.087 31.4954 283.219 34.0449C286.775 33.8515 290.411 33.75 294.125 33.75C351.562 33.75 364 55.9845 364 75.8184C364 95.6523 351.563 118.25 294.125 118.25C290.408 118.25 286.766 118.141 283.2 117.937C286.075 120.491 288.939 123.189 291.784 126.034C332.399 166.649 325.471 191.166 311.446 205.19C297.422 219.215 272.648 226.398 232.034 185.784C229.287 183.037 226.68 180.264 224.207 177.476C224.235 178.848 224.25 180.231 224.25 181.625C224.25 239.062 202.016 251.5 182.182 251.5C162.348 251.5 139.75 239.062 139.75 181.625C139.75 180.208 139.766 178.802 139.797 177.406C137.306 180.218 134.679 183.014 131.909 185.784C91.295 226.398 66.5218 219.215 52.4971 205.19C38.4724 191.166 31.5447 166.649 72.1592 126.034C74.9968 123.197 77.853 120.506 80.7197 117.958C77.1828 118.149 73.5676 118.249 69.875 118.249C12.4374 118.249 8.66968e-07 96.0146 0 76.1807C0.000151092 56.3468 12.4378 33.75 69.875 33.75C73.5936 33.75 77.2378 33.8568 80.8057 34.0615C77.9101 31.4905 75.0251 28.7751 72.1592 25.9092C31.5449 -14.7052 38.4724 -39.2214 52.4971 -53.2461C66.5217 -67.2708 91.2948 -74.4552 131.909 -33.8408C134.749 -31.0009 137.439 -28.1337 139.986 -25.25C139.794 -28.7965 139.694 -32.4219 139.694 -36.125C139.694 -93.5626 161.929 -106 181.763 -106Z"/>
</mask>
<path d="M181.763 -106C201.597 -106 224.193 -93.5622 224.193 -36.125C224.193 -32.3748 224.084 -28.7004 223.876 -25.1035C226.447 -28.018 229.164 -30.9153 232.034 -33.7852C272.648 -74.3992 297.422 -67.215 311.446 -53.1904C325.471 -39.1657 332.399 -14.6487 291.784 25.9658C288.945 28.8049 286.087 31.4954 283.219 34.0449C286.775 33.8515 290.411 33.75 294.125 33.75C351.562 33.75 364 55.9845 364 75.8184C364 95.6523 351.563 118.25 294.125 118.25C290.408 118.25 286.766 118.141 283.2 117.937C286.075 120.491 288.939 123.189 291.784 126.034C332.399 166.649 325.471 191.166 311.446 205.19C297.422 219.215 272.648 226.398 232.034 185.784C229.287 183.037 226.68 180.264 224.207 177.476C224.235 178.848 224.25 180.231 224.25 181.625C224.25 239.062 202.016 251.5 182.182 251.5C162.348 251.5 139.75 239.062 139.75 181.625C139.75 180.208 139.766 178.802 139.797 177.406C137.306 180.218 134.679 183.014 131.909 185.784C91.295 226.398 66.5218 219.215 52.4971 205.19C38.4724 191.166 31.5447 166.649 72.1592 126.034C74.9968 123.197 77.853 120.506 80.7197 117.958C77.1828 118.149 73.5676 118.249 69.875 118.249C12.4374 118.249 8.66968e-07 96.0146 0 76.1807C0.000151092 56.3468 12.4378 33.75 69.875 33.75C73.5936 33.75 77.2378 33.8568 80.8057 34.0615C77.9101 31.4905 75.0251 28.7751 72.1592 25.9092C31.5449 -14.7052 38.4724 -39.2214 52.4971 -53.2461C66.5217 -67.2708 91.2948 -74.4552 131.909 -33.8408C134.749 -31.0009 137.439 -28.1337 139.986 -25.25C139.794 -28.7965 139.694 -32.4219 139.694 -36.125C139.694 -93.5626 161.929 -106 181.763 -106Z" fill="#695739"/>
<path d="M181.763 -106L181.763 -107H181.763V-106ZM224.193 -36.125H225.193H224.193ZM223.876 -25.1035L222.878 -25.1613L222.71 -22.2705L224.626 -24.442L223.876 -25.1035ZM232.034 -33.7852L231.327 -34.4923L232.034 -33.7852ZM311.446 -53.1904L312.153 -53.8975L311.446 -53.1904ZM291.784 25.9658L292.491 26.6729L291.784 25.9658ZM283.219 34.0449L282.554 33.2975L280.415 35.1989L283.273 35.0434L283.219 34.0449ZM294.125 33.75V32.75V33.75ZM364 75.8184H365H364ZM294.125 118.25V119.25V118.25ZM283.2 117.937L283.257 116.938L280.386 116.773L282.536 118.684L283.2 117.937ZM291.784 126.034L292.491 125.327L291.784 126.034ZM311.446 205.19L312.153 205.898V205.898L311.446 205.19ZM232.034 185.784L231.327 186.491L232.034 185.784ZM224.207 177.476L224.955 176.812L223.152 174.779L223.207 177.496L224.207 177.476ZM224.25 181.625H225.25H224.25ZM182.182 251.5V252.5V251.5ZM139.75 181.625H138.75H139.75ZM139.797 177.406L140.797 177.428L140.856 174.703L139.048 176.743L139.797 177.406ZM131.909 185.784L132.616 186.491L131.909 185.784ZM52.4971 205.19L51.79 205.898L51.79 205.898L52.4971 205.19ZM72.1592 126.034L71.4521 125.327L72.1592 126.034ZM80.7197 117.958L81.3841 118.705L83.5219 116.805L80.6657 116.959L80.7197 117.958ZM69.875 118.249V119.249V118.249ZM0 76.1807H-1H0ZM69.875 33.75V32.75V33.75ZM80.8057 34.0615L80.7484 35.0599L83.6219 35.2248L81.4696 33.3138L80.8057 34.0615ZM72.1592 25.9092L71.4521 26.6163L72.1592 25.9092ZM52.4971 -53.2461L51.79 -53.9532L52.4971 -53.2461ZM131.909 -33.8408L132.616 -34.5479L131.909 -33.8408ZM139.986 -25.25L139.237 -24.588L141.141 -22.4327L140.985 -25.3042L139.986 -25.25ZM139.694 -36.125H138.694H139.694ZM181.763 -106L181.763 -105C191.457 -105 201.738 -101.972 209.631 -91.9815C217.56 -81.945 223.193 -64.7399 223.193 -36.125H224.193H225.193C225.193 -64.9473 219.528 -82.6796 211.2 -93.2213C202.836 -103.809 191.903 -107 181.763 -107L181.763 -106ZM224.193 -36.125H223.193C223.193 -32.3942 223.085 -28.7391 222.878 -25.1613L223.876 -25.1035L224.874 -25.0457C225.084 -28.6617 225.193 -32.3554 225.193 -36.125H224.193ZM223.876 -25.1035L224.626 -24.442C227.183 -27.3408 229.886 -30.223 232.741 -33.078L232.034 -33.7852L231.327 -34.4923C228.442 -31.6077 225.711 -28.6951 223.126 -25.765L223.876 -25.1035ZM232.034 -33.7852L232.741 -33.078C252.975 -53.3118 269.124 -61.494 281.828 -62.9841C294.473 -64.4674 303.885 -59.3379 310.739 -52.4833L311.446 -53.1904L312.153 -53.8975C304.983 -61.0676 294.996 -66.5424 281.595 -64.9705C268.252 -63.4053 251.708 -54.8726 231.327 -34.4923L232.034 -33.7852ZM311.446 -53.1904L310.739 -52.4833C317.593 -45.6297 322.658 -36.2849 321.112 -23.7054C319.56 -11.0645 311.313 5.02259 291.077 25.2587L291.784 25.9658L292.491 26.6729C312.87 6.29456 321.467 -10.1841 323.097 -23.4616C324.736 -36.8004 319.324 -46.7265 312.153 -53.8975L311.446 -53.1904ZM291.784 25.9658L291.077 25.2587C288.252 28.0838 285.408 30.7609 282.554 33.2975L283.219 34.0449L283.883 34.7923C286.766 32.2299 289.638 29.5259 292.491 26.6729L291.784 25.9658ZM283.219 34.0449L283.273 35.0434C286.812 34.851 290.429 34.75 294.125 34.75V33.75V32.75C290.393 32.75 286.739 32.852 283.164 33.0464L283.219 34.0449ZM294.125 33.75V34.75C322.743 34.75 339.95 40.2941 349.986 48.1345C359.974 55.9369 363 66.1259 363 75.8184H364H365C365 65.6769 361.808 54.8318 351.217 46.5584C340.675 38.3232 322.944 32.75 294.125 32.75V33.75ZM364 75.8184H363C363 85.5123 359.972 95.7943 349.982 103.687C339.945 111.616 322.74 117.25 294.125 117.25V118.25V119.25C322.947 119.25 340.68 113.585 351.221 105.257C361.809 96.8922 365 85.9584 365 75.8184H364ZM294.125 118.25V117.25C290.428 117.25 286.805 117.142 283.257 116.938L283.2 117.937L283.143 118.935C286.728 119.141 290.389 119.25 294.125 119.25V118.25ZM283.2 117.937L282.536 118.684C285.396 121.226 288.245 123.91 291.077 126.741L291.784 126.034L292.491 125.327C289.632 122.468 286.754 119.757 283.864 117.189L283.2 117.937ZM291.784 126.034L291.077 126.741C311.313 146.977 319.56 163.064 321.112 175.705C322.658 188.285 317.593 197.63 310.739 204.483L311.446 205.19L312.153 205.898C319.324 198.726 324.736 188.8 323.097 175.462C321.467 162.184 312.87 145.705 292.491 125.327L291.784 126.034ZM311.446 205.19L310.739 204.483C303.885 211.338 294.473 216.467 281.828 214.984C269.124 213.493 252.975 205.311 232.741 185.077L232.034 185.784L231.327 186.491C251.707 206.872 268.252 215.405 281.595 216.97C294.996 218.542 304.983 213.068 312.153 205.898L311.446 205.19ZM232.034 185.784L232.741 185.077C230.008 182.344 227.415 179.586 224.955 176.812L224.207 177.476L223.459 178.139C225.945 180.942 228.566 183.73 231.327 186.491L232.034 185.784ZM224.207 177.476L223.207 177.496C223.235 178.862 223.25 180.238 223.25 181.625H224.25H225.25C225.25 180.224 225.235 178.834 225.207 177.455L224.207 177.476ZM224.25 181.625H223.25C223.25 210.243 217.706 227.449 209.865 237.486C202.063 247.473 191.874 250.5 182.182 250.5V251.5V252.5C192.323 252.5 203.168 249.308 211.442 238.717C219.677 228.175 225.25 210.444 225.25 181.625H224.25ZM182.182 251.5V250.5C172.488 250.5 162.206 247.472 154.313 237.482C146.384 227.445 140.75 210.24 140.75 181.625H139.75H138.75C138.75 210.447 144.415 228.18 152.743 238.721C161.108 249.309 172.042 252.5 182.182 252.5V251.5ZM139.75 181.625H140.75C140.75 180.216 140.766 178.816 140.797 177.428L139.797 177.406L138.797 177.384C138.766 178.787 138.75 180.2 138.75 181.625H139.75ZM139.797 177.406L139.048 176.743C136.57 179.54 133.958 182.322 131.202 185.077L131.909 185.784L132.616 186.491C135.401 183.707 138.041 180.896 140.545 178.069L139.797 177.406ZM131.909 185.784L131.202 185.077C110.968 205.311 94.819 213.493 82.1156 214.984C69.47 216.467 60.0588 211.338 53.2042 204.483L52.4971 205.19L51.79 205.898C58.9601 213.068 68.9478 218.542 82.3486 216.97C95.6915 215.405 112.236 206.872 132.616 186.491L131.909 185.784ZM52.4971 205.19L53.2042 204.483C46.3506 197.63 41.2858 188.285 42.831 175.705C44.3837 163.064 52.6302 146.977 72.8663 126.741L72.1592 126.034L71.4521 125.327C51.0737 145.705 42.4768 162.184 40.8459 175.462C39.2075 188.8 44.6189 198.726 51.79 205.898L52.4971 205.19ZM72.1592 126.034L72.8663 126.741C75.6901 123.917 78.5321 121.241 81.3841 118.705L80.7197 117.958L80.0553 117.211C77.1739 119.772 74.3035 122.476 71.4521 125.327L72.1592 126.034ZM80.7197 117.958L80.6657 116.959C77.1468 117.15 73.5496 117.249 69.875 117.249V118.249V119.249C73.5856 119.249 77.2188 119.149 80.7737 118.957L80.7197 117.958ZM69.875 118.249V117.249C41.2568 117.249 24.0504 111.705 14.014 103.865C4.02645 96.0622 1 85.8731 1 76.1807H0H-1C-1 86.3221 2.19227 97.1672 12.7828 105.441C23.3245 113.676 41.0556 119.249 69.875 119.249V118.249ZM0 76.1807H1C1.00007 66.4868 4.02776 56.2051 14.0185 48.3123C24.055 40.3835 41.2601 34.75 69.875 34.75V33.75V32.75C41.0527 32.75 23.3204 38.415 12.7787 46.743C2.19129 55.1071 -0.999923 66.0407 -1 76.1807H0ZM69.875 33.75V34.75C73.5745 34.75 77.1995 34.8562 80.7484 35.0599L80.8057 34.0615L80.863 33.0632C77.2761 32.8573 73.6128 32.75 69.875 32.75V33.75ZM80.8057 34.0615L81.4696 33.3138C78.5889 30.7559 75.7183 28.0541 72.8663 25.2021L72.1592 25.9092L71.4521 26.6163C74.332 29.4962 77.2314 32.2252 80.1417 34.8093L80.8057 34.0615ZM72.1592 25.9092L72.8663 25.2021C52.6302 4.966 44.3838 -11.1208 42.8311 -23.7615C41.2859 -36.3407 46.3506 -45.6854 53.2042 -52.539L52.4971 -53.2461L51.79 -53.9532C44.6189 -46.7821 39.2075 -36.8563 40.846 -23.5177C42.4769 -10.2405 51.0738 6.23798 71.4521 26.6163L72.1592 25.9092ZM52.4971 -53.2461L53.2042 -52.539C60.0588 -59.3936 69.4699 -64.5232 82.1155 -63.0399C94.8189 -61.5498 110.968 -53.3676 131.202 -33.1337L131.909 -33.8408L132.616 -34.5479C112.236 -54.9284 95.6914 -63.4612 82.3485 -65.0263C68.9477 -66.5982 58.96 -61.1232 51.79 -53.9532L52.4971 -53.2461ZM131.909 -33.8408L131.202 -33.1337C134.027 -30.3085 136.703 -27.4564 139.237 -24.588L139.986 -25.25L140.736 -25.912C138.175 -28.8111 135.471 -31.6933 132.616 -34.5479L131.909 -33.8408ZM139.986 -25.25L140.985 -25.3042C140.794 -28.8325 140.694 -32.4399 140.694 -36.125H139.694H138.694C138.694 -32.404 138.794 -28.7605 138.988 -25.1958L139.986 -25.25ZM139.694 -36.125H140.694C140.694 -64.7432 146.238 -81.9496 154.079 -91.986C161.881 -101.974 172.07 -105 181.763 -105V-106V-107C171.621 -107 160.776 -103.808 152.503 -93.2172C144.268 -82.6755 138.694 -64.9444 138.694 -36.125H139.694Z" fill="#695739" mask="url(#path-1-inside-1_18_1033)"/>
</svg>
