<svg width="182" height="358" viewBox="0 0 182 358" fill="none" xmlns="http://www.w3.org/2000/svg">
<mask id="path-1-inside-1_18_784" fill="white">
<path d="M181.763 0C201.597 0.000156604 224.193 12.4378 224.193 69.875C224.193 73.6252 224.084 77.2996 223.876 80.8965C226.447 77.982 229.164 75.0847 232.034 72.2148C272.648 31.6008 297.422 38.785 311.446 52.8096C325.471 66.8343 332.399 91.3513 291.784 131.966C288.945 134.805 286.087 137.495 283.219 140.045C286.775 139.851 290.411 139.75 294.125 139.75C351.562 139.75 364 161.984 364 181.818C364 201.652 351.563 224.25 294.125 224.25C290.408 224.25 286.766 224.141 283.2 223.937C286.075 226.491 288.939 229.189 291.784 232.034C332.399 272.649 325.471 297.166 311.446 311.19C297.422 325.215 272.648 332.398 232.034 291.784C229.287 289.037 226.68 286.264 224.207 283.476C224.235 284.848 224.25 286.231 224.25 287.625C224.25 345.062 202.016 357.5 182.182 357.5C162.348 357.5 139.75 345.062 139.75 287.625C139.75 286.208 139.766 284.802 139.797 283.406C137.306 286.218 134.679 289.014 131.909 291.784C91.295 332.398 66.5218 325.215 52.4971 311.19C38.4724 297.166 31.5447 272.649 72.1592 232.034C74.9968 229.197 77.853 226.506 80.7197 223.958C77.1828 224.149 73.5676 224.249 69.875 224.249C12.4374 224.249 8.66968e-07 202.015 0 182.181C0.000151092 162.347 12.4378 139.75 69.875 139.75C73.5936 139.75 77.2378 139.857 80.8057 140.062C77.9101 137.491 75.0251 134.775 72.1592 131.909C31.5449 91.2948 38.4724 66.7786 52.4971 52.7539C66.5217 38.7292 91.2948 31.5448 131.909 72.1592C134.749 74.9991 137.439 77.8663 139.986 80.75C139.794 77.2035 139.694 73.5781 139.694 69.875C139.694 12.4374 161.929 1.73394e-06 181.763 0Z"/>
</mask>
<path d="M181.763 0C201.597 0.000156604 224.193 12.4378 224.193 69.875C224.193 73.6252 224.084 77.2996 223.876 80.8965C226.447 77.982 229.164 75.0847 232.034 72.2148C272.648 31.6008 297.422 38.785 311.446 52.8096C325.471 66.8343 332.399 91.3513 291.784 131.966C288.945 134.805 286.087 137.495 283.219 140.045C286.775 139.851 290.411 139.75 294.125 139.75C351.562 139.75 364 161.984 364 181.818C364 201.652 351.563 224.25 294.125 224.25C290.408 224.25 286.766 224.141 283.2 223.937C286.075 226.491 288.939 229.189 291.784 232.034C332.399 272.649 325.471 297.166 311.446 311.19C297.422 325.215 272.648 332.398 232.034 291.784C229.287 289.037 226.68 286.264 224.207 283.476C224.235 284.848 224.25 286.231 224.25 287.625C224.25 345.062 202.016 357.5 182.182 357.5C162.348 357.5 139.75 345.062 139.75 287.625C139.75 286.208 139.766 284.802 139.797 283.406C137.306 286.218 134.679 289.014 131.909 291.784C91.295 332.398 66.5218 325.215 52.4971 311.19C38.4724 297.166 31.5447 272.649 72.1592 232.034C74.9968 229.197 77.853 226.506 80.7197 223.958C77.1828 224.149 73.5676 224.249 69.875 224.249C12.4374 224.249 8.66968e-07 202.015 0 182.181C0.000151092 162.347 12.4378 139.75 69.875 139.75C73.5936 139.75 77.2378 139.857 80.8057 140.062C77.9101 137.491 75.0251 134.775 72.1592 131.909C31.5449 91.2948 38.4724 66.7786 52.4971 52.7539C66.5217 38.7292 91.2948 31.5448 131.909 72.1592C134.749 74.9991 137.439 77.8663 139.986 80.75C139.794 77.2035 139.694 73.5781 139.694 69.875C139.694 12.4374 161.929 1.73394e-06 181.763 0Z" fill="#695739"/>
<path d="M181.763 0L181.763 -1H181.763V0ZM224.193 69.875H225.193H224.193ZM223.876 80.8965L222.878 80.8387L222.71 83.7295L224.626 81.558L223.876 80.8965ZM232.034 72.2148L231.327 71.5077L232.034 72.2148ZM311.446 52.8096L312.153 52.1025L311.446 52.8096ZM291.784 131.966L292.491 132.673L291.784 131.966ZM283.219 140.045L282.554 139.298L280.415 141.199L283.273 141.043L283.219 140.045ZM294.125 139.75V138.75V139.75ZM364 181.818H365H364ZM294.125 224.25V225.25V224.25ZM283.2 223.937L283.257 222.938L280.386 222.773L282.536 224.684L283.2 223.937ZM291.784 232.034L292.491 231.327L291.784 232.034ZM311.446 311.19L312.153 311.898V311.898L311.446 311.19ZM232.034 291.784L231.327 292.491L232.034 291.784ZM224.207 283.476L224.955 282.812L223.152 280.779L223.207 283.496L224.207 283.476ZM224.25 287.625H225.25H224.25ZM182.182 357.5V358.5V357.5ZM139.75 287.625H138.75H139.75ZM139.797 283.406L140.797 283.428L140.856 280.703L139.048 282.743L139.797 283.406ZM131.909 291.784L132.616 292.491L131.909 291.784ZM52.4971 311.19L51.79 311.898L51.79 311.898L52.4971 311.19ZM72.1592 232.034L71.4521 231.327L72.1592 232.034ZM80.7197 223.958L81.3841 224.705L83.5219 222.805L80.6657 222.959L80.7197 223.958ZM69.875 224.249V225.249V224.249ZM0 182.181H-1H0ZM69.875 139.75V138.75V139.75ZM80.8057 140.062L80.7484 141.06L83.6219 141.225L81.4696 139.314L80.8057 140.062ZM72.1592 131.909L71.4521 132.616L72.1592 131.909ZM52.4971 52.7539L51.79 52.0468L52.4971 52.7539ZM131.909 72.1592L132.616 71.4521L131.909 72.1592ZM139.986 80.75L139.237 81.412L141.141 83.5673L140.985 80.6958L139.986 80.75ZM139.694 69.875H138.694H139.694ZM181.763 0L181.763 1C191.457 1.00008 201.738 4.02777 209.631 14.0185C217.56 24.055 223.193 41.2601 223.193 69.875H224.193H225.193C225.193 41.0527 219.528 23.3204 211.2 12.7787C202.836 2.19129 191.903 -0.99992 181.763 -1L181.763 0ZM224.193 69.875H223.193C223.193 73.6058 223.085 77.2609 222.878 80.8387L223.876 80.8965L224.874 80.9543C225.084 77.3383 225.193 73.6446 225.193 69.875H224.193ZM223.876 80.8965L224.626 81.558C227.183 78.6592 229.886 75.777 232.741 72.922L232.034 72.2148L231.327 71.5077C228.442 74.3923 225.711 77.3049 223.126 80.235L223.876 80.8965ZM232.034 72.2148L232.741 72.922C252.975 52.6882 269.124 44.506 281.828 43.0159C294.473 41.5326 303.885 46.6621 310.739 53.5167L311.446 52.8096L312.153 52.1025C304.983 44.9324 294.996 39.4576 281.595 41.0295C268.252 42.5947 251.708 51.1274 231.327 71.5077L232.034 72.2148ZM311.446 52.8096L310.739 53.5167C317.593 60.3703 322.658 69.7151 321.112 82.2946C319.56 94.9355 311.313 111.023 291.077 131.259L291.784 131.966L292.491 132.673C312.87 112.295 321.467 95.8159 323.097 82.5384C324.736 69.1996 319.324 59.2735 312.153 52.1025L311.446 52.8096ZM291.784 131.966L291.077 131.259C288.252 134.084 285.408 136.761 282.554 139.298L283.219 140.045L283.883 140.792C286.766 138.23 289.638 135.526 292.491 132.673L291.784 131.966ZM283.219 140.045L283.273 141.043C286.812 140.851 290.429 140.75 294.125 140.75V139.75V138.75C290.393 138.75 286.739 138.852 283.164 139.046L283.219 140.045ZM294.125 139.75V140.75C322.743 140.75 339.95 146.294 349.986 154.135C359.974 161.937 363 172.126 363 181.818H364H365C365 171.677 361.808 160.832 351.217 152.558C340.675 144.323 322.944 138.75 294.125 138.75V139.75ZM364 181.818H363C363 191.512 359.972 201.794 349.982 209.687C339.945 217.616 322.74 223.25 294.125 223.25V224.25V225.25C322.947 225.25 340.68 219.585 351.221 211.257C361.809 202.892 365 191.958 365 181.818H364ZM294.125 224.25V223.25C290.428 223.25 286.805 223.142 283.257 222.938L283.2 223.937L283.143 224.935C286.728 225.141 290.389 225.25 294.125 225.25V224.25ZM283.2 223.937L282.536 224.684C285.396 227.226 288.245 229.91 291.077 232.741L291.784 232.034L292.491 231.327C289.632 228.468 286.754 225.757 283.864 223.189L283.2 223.937ZM291.784 232.034L291.077 232.741C311.313 252.977 319.56 269.064 321.112 281.705C322.658 294.285 317.593 303.63 310.739 310.483L311.446 311.19L312.153 311.898C319.324 304.726 324.736 294.8 323.097 281.462C321.467 268.184 312.87 251.705 292.491 231.327L291.784 232.034ZM311.446 311.19L310.739 310.483C303.885 317.338 294.473 322.467 281.828 320.984C269.124 319.493 252.975 311.311 232.741 291.077L232.034 291.784L231.327 292.491C251.707 312.872 268.252 321.405 281.595 322.97C294.996 324.542 304.983 319.068 312.153 311.898L311.446 311.19ZM232.034 291.784L232.741 291.077C230.008 288.344 227.415 285.586 224.955 282.812L224.207 283.476L223.459 284.139C225.945 286.942 228.566 289.73 231.327 292.491L232.034 291.784ZM224.207 283.476L223.207 283.496C223.235 284.862 223.25 286.238 223.25 287.625H224.25H225.25C225.25 286.224 225.235 284.834 225.207 283.455L224.207 283.476ZM224.25 287.625H223.25C223.25 316.243 217.706 333.449 209.865 343.486C202.063 353.473 191.874 356.5 182.182 356.5V357.5V358.5C192.323 358.5 203.168 355.308 211.442 344.717C219.677 334.175 225.25 316.444 225.25 287.625H224.25ZM182.182 357.5V356.5C172.488 356.5 162.206 353.472 154.313 343.482C146.384 333.445 140.75 316.24 140.75 287.625H139.75H138.75C138.75 316.447 144.415 334.18 152.743 344.721C161.108 355.309 172.042 358.5 182.182 358.5V357.5ZM139.75 287.625H140.75C140.75 286.216 140.766 284.816 140.797 283.428L139.797 283.406L138.797 283.384C138.766 284.787 138.75 286.2 138.75 287.625H139.75ZM139.797 283.406L139.048 282.743C136.57 285.54 133.958 288.322 131.202 291.077L131.909 291.784L132.616 292.491C135.401 289.707 138.041 286.896 140.545 284.069L139.797 283.406ZM131.909 291.784L131.202 291.077C110.968 311.311 94.819 319.493 82.1156 320.984C69.47 322.467 60.0588 317.338 53.2042 310.483L52.4971 311.19L51.79 311.898C58.9601 319.068 68.9478 324.542 82.3486 322.97C95.6915 321.405 112.236 312.872 132.616 292.491L131.909 291.784ZM52.4971 311.19L53.2042 310.483C46.3506 303.63 41.2858 294.285 42.831 281.705C44.3837 269.064 52.6302 252.977 72.8663 232.741L72.1592 232.034L71.4521 231.327C51.0737 251.705 42.4768 268.184 40.8459 281.462C39.2075 294.8 44.6189 304.726 51.79 311.898L52.4971 311.19ZM72.1592 232.034L72.8663 232.741C75.6901 229.917 78.5321 227.241 81.3841 224.705L80.7197 223.958L80.0553 223.211C77.1739 225.772 74.3035 228.476 71.4521 231.327L72.1592 232.034ZM80.7197 223.958L80.6657 222.959C77.1468 223.15 73.5496 223.249 69.875 223.249V224.249V225.249C73.5856 225.249 77.2188 225.149 80.7737 224.957L80.7197 223.958ZM69.875 224.249V223.249C41.2568 223.249 24.0504 217.705 14.014 209.865C4.02645 202.062 1 191.873 1 182.181H0H-1C-1 192.322 2.19227 203.167 12.7828 211.441C23.3245 219.676 41.0556 225.249 69.875 225.249V224.249ZM0 182.181H1C1.00007 172.487 4.02776 162.205 14.0185 154.312C24.055 146.383 41.2601 140.75 69.875 140.75V139.75V138.75C41.0527 138.75 23.3204 144.415 12.7787 152.743C2.19129 161.107 -0.999923 172.041 -1 182.181H0ZM69.875 139.75V140.75C73.5745 140.75 77.1995 140.856 80.7484 141.06L80.8057 140.062L80.863 139.063C77.2761 138.857 73.6128 138.75 69.875 138.75V139.75ZM80.8057 140.062L81.4696 139.314C78.5889 136.756 75.7183 134.054 72.8663 131.202L72.1592 131.909L71.4521 132.616C74.332 135.496 77.2314 138.225 80.1417 140.809L80.8057 140.062ZM72.1592 131.909L72.8663 131.202C52.6302 110.966 44.3838 94.8792 42.8311 82.2385C41.2859 69.6593 46.3506 60.3146 53.2042 53.461L52.4971 52.7539L51.79 52.0468C44.6189 59.2179 39.2075 69.1437 40.846 82.4823C42.4769 95.7595 51.0738 112.238 71.4521 132.616L72.1592 131.909ZM52.4971 52.7539L53.2042 53.461C60.0588 46.6064 69.4699 41.4768 82.1155 42.9601C94.8189 44.4502 110.968 52.6324 131.202 72.8663L131.909 72.1592L132.616 71.4521C112.236 51.0716 95.6914 42.5388 82.3485 40.9737C68.9477 39.4018 58.96 44.8768 51.79 52.0468L52.4971 52.7539ZM131.909 72.1592L131.202 72.8663C134.027 75.6915 136.703 78.5436 139.237 81.412L139.986 80.75L140.736 80.088C138.175 77.1889 135.471 74.3067 132.616 71.4521L131.909 72.1592ZM139.986 80.75L140.985 80.6958C140.794 77.1675 140.694 73.5601 140.694 69.875H139.694H138.694C138.694 73.596 138.794 77.2395 138.988 80.8042L139.986 80.75ZM139.694 69.875H140.694C140.694 41.2568 146.238 24.0504 154.079 14.014C161.881 4.02645 172.07 1 181.763 1V0V-1C171.621 -0.999999 160.776 2.19227 152.503 12.7828C144.268 23.3245 138.694 41.0556 138.694 69.875H139.694Z" fill="#695739" mask="url(#path-1-inside-1_18_784)"/>
</svg>
