<svg width="32" height="32" viewBox="0 0 32 32" fill="none" xmlns="http://www.w3.org/2000/svg">
<path d="M5.33341 5.33341H9.33341L12.0001 2.66675H20.0001L22.6667 5.33341H26.6667C27.374 5.33341 28.0523 5.61437 28.5524 6.11446C29.0525 6.61456 29.3334 7.29284 29.3334 8.00008V24.0001C29.3334 24.7073 29.0525 25.3856 28.5524 25.8857C28.0523 26.3858 27.374 26.6667 26.6667 26.6667H5.33341C4.62617 26.6667 3.94789 26.3858 3.4478 25.8857C2.9477 25.3856 2.66675 24.7073 2.66675 24.0001V8.00008C2.66675 7.29284 2.9477 6.61456 3.4478 6.11446C3.94789 5.61437 4.62617 5.33341 5.33341 5.33341ZM16.0001 9.33342C14.232 9.33342 12.5363 10.0358 11.286 11.286C10.0358 12.5363 9.33341 14.232 9.33341 16.0001C9.33341 17.7682 10.0358 19.4639 11.286 20.7141C12.5363 21.9644 14.232 22.6667 16.0001 22.6667C17.7682 22.6667 19.4639 21.9644 20.7141 20.7141C21.9644 19.4639 22.6667 17.7682 22.6667 16.0001C22.6667 14.232 21.9644 12.5363 20.7141 11.286C19.4639 10.0358 17.7682 9.33342 16.0001 9.33342ZM16.0001 12.0001C17.0609 12.0001 18.0784 12.4215 18.8285 13.1717C19.5787 13.9218 20.0001 14.9392 20.0001 16.0001C20.0001 17.0609 19.5787 18.0784 18.8285 18.8285C18.0784 19.5787 17.0609 20.0001 16.0001 20.0001C14.9392 20.0001 13.9218 19.5787 13.1717 18.8285C12.4215 18.0784 12.0001 17.0609 12.0001 16.0001C12.0001 14.9392 12.4215 13.9218 13.1717 13.1717C13.9218 12.4215 14.9392 12.0001 16.0001 12.0001Z" fill="#695739"/>
</svg>
