<svg width="151" height="148" viewBox="0 0 151 148" fill="none" xmlns="http://www.w3.org/2000/svg">
<path opacity="0.8" d="M75.2471 0C83.458 0.00016407 92.8125 5.14966 92.8125 28.9277C92.8125 30.4819 92.7661 32.0046 92.6797 33.4951C93.745 32.2872 94.8702 31.0858 96.0596 29.8965C112.873 13.0826 123.129 16.0563 128.936 21.8623C134.742 27.6684 137.609 37.8181 120.795 54.6318C119.619 55.808 118.433 56.9214 117.245 57.9775C118.719 57.8973 120.225 57.8545 121.764 57.8545C145.542 57.8545 150.691 67.0595 150.691 75.2705C150.691 83.4815 145.542 92.8369 121.764 92.8369C121.015 92.8369 120.275 92.8252 119.541 92.8047C119.547 92.8105 119.553 92.8164 119.559 92.8223C136.372 109.636 133.505 119.787 127.699 125.593C121.893 131.399 111.637 134.372 94.8232 117.559C94.1111 116.846 93.4222 116.13 92.7549 115.41C92.8076 116.61 92.8369 117.83 92.8369 119.072C92.8369 142.851 83.6319 148 75.4209 148C67.2099 148 57.8545 142.851 57.8545 119.072C57.8545 118.484 57.8623 117.901 57.875 117.322C56.8428 118.487 55.7562 119.648 54.6084 120.796C37.7946 137.61 27.5384 134.635 21.7324 128.829C15.9266 123.023 13.0595 112.873 29.873 96.0596C31.0482 94.8844 32.2317 93.7712 33.4189 92.7158C31.9542 92.7951 30.457 92.8369 28.9277 92.8369C5.14928 92.8369 3.58914e-07 83.6319 0 75.4209C0.000153266 67.21 5.14964 57.8555 28.9277 57.8555C30.4683 57.8555 31.978 57.9005 33.4561 57.9854C32.2565 56.9204 31.0603 55.7967 29.873 54.6094C13.0596 37.7959 15.9267 27.646 21.7324 21.8398C27.5385 16.0338 37.7946 13.0593 54.6084 29.873C55.7844 31.0491 56.8974 32.2375 57.9521 33.4316C57.8725 31.9628 57.8311 30.4614 57.8311 28.9277C57.8311 5.14928 67.0361 7.17828e-07 75.2471 0Z" fill="#695739"/>
<path d="M48.625 68.0508H45.0898C45.0964 68.7734 45.2461 69.4701 45.5391 70.1406C45.8385 70.8047 46.2975 71.4036 46.916 71.9375C47.5345 72.4714 48.306 72.888 49.2305 73.1875L47.9609 75.1211C46.9974 74.8151 46.1706 74.3626 45.4805 73.7637C44.7969 73.1582 44.2565 72.4453 43.8594 71.625C43.4492 72.5234 42.8861 73.2982 42.1699 73.9492C41.4538 74.6003 40.5911 75.0885 39.582 75.4141L38.2539 73.5C39.1979 73.194 39.9889 72.7578 40.627 72.1914C41.2715 71.625 41.7533 70.987 42.0723 70.2773C42.3913 69.5612 42.5573 68.819 42.5703 68.0508H38.9375V66.0586H48.625V68.0508ZM52.6289 69.3398H55.0312V71.4102H52.6289V75.7461H50.1289V65.0234H52.6289V69.3398ZM52.6289 82.7969H50.1289V78.4805H40.6562V76.5078H52.6289V82.7969ZM60.7734 65.7852C61.5221 65.7786 62.2122 65.9089 62.8438 66.1758C63.4818 66.4427 64.0156 66.8171 64.4453 67.2988C64.8815 67.7806 65.1777 68.3372 65.334 68.9688H68.3125V65.0234H70.793V74.5742H68.3125V70.9609H65.3535C65.2038 71.6055 64.9108 72.1784 64.4746 72.6797C64.0449 73.1745 63.5078 73.5586 62.8633 73.832C62.2253 74.1055 61.5286 74.2422 60.7734 74.2422C59.875 74.2422 59.0645 74.0599 58.3418 73.6953C57.6191 73.3307 57.0527 72.8262 56.6426 72.1816C56.2389 71.5306 56.0404 70.7982 56.0469 69.9844C56.0404 69.1836 56.2389 68.4642 56.6426 67.8262C57.0527 67.1816 57.6191 66.6803 58.3418 66.3223C59.0645 65.9577 59.875 65.7786 60.7734 65.7852ZM60.7734 67.8555C60.3112 67.849 59.8978 67.9336 59.5332 68.1094C59.1751 68.2786 58.8952 68.526 58.6934 68.8516C58.498 69.1706 58.4036 69.5482 58.4102 69.9844C58.4036 70.4206 58.498 70.8014 58.6934 71.127C58.8952 71.4525 59.1751 71.7064 59.5332 71.8887C59.8978 72.0645 60.3112 72.1523 60.7734 72.1523C61.2227 72.1523 61.623 72.0645 61.9746 71.8887C62.3262 71.7064 62.5996 71.4525 62.7949 71.127C62.9967 70.8014 63.0977 70.4206 63.0977 69.9844C63.0977 69.5482 62.9967 69.1706 62.7949 68.8516C62.5996 68.526 62.3262 68.2786 61.9746 68.1094C61.623 67.9336 61.2227 67.849 60.7734 67.8555ZM61.3984 77.0742H68.3125V75.3555H70.793V82.6016H58.9375V75.3555H61.3984V77.0742ZM68.3125 80.5898V78.9883H61.3984V80.5898H68.3125ZM83.0586 65.7461C83.918 65.7461 84.6862 65.8991 85.3633 66.2051C86.0404 66.5046 86.571 66.931 86.9551 67.4844C87.3392 68.0312 87.5312 68.6562 87.5312 69.3594C87.5312 69.9323 87.3978 70.4564 87.1309 70.9316C86.8704 71.4069 86.4993 71.8105 86.0176 72.1426C85.5358 72.4681 84.9792 72.6992 84.3477 72.8359V74.1348C85.8776 74.0371 87.2383 73.9036 88.4297 73.7344L88.625 75.5508C86.9909 75.8372 85.2786 76.0293 83.4883 76.127C81.7044 76.2246 79.849 76.2734 77.9219 76.2734L77.668 74.3008C79.2435 74.3008 80.6367 74.2812 81.8477 74.2422V72.8555C81.1966 72.7253 80.6237 72.4974 80.1289 72.1719C79.6341 71.8398 79.25 71.4329 78.9766 70.9512C78.7096 70.4694 78.5794 69.9388 78.5859 69.3594C78.5794 68.6562 78.765 68.0312 79.1426 67.4844C79.5267 66.931 80.0573 66.5046 80.7344 66.2051C81.418 65.8991 82.1927 65.7461 83.0586 65.7461ZM83.0586 67.6211C82.4076 67.6341 81.8835 67.7936 81.4863 68.0996C81.0957 68.3991 80.9036 68.819 80.9102 69.3594C80.9036 69.8867 81.099 70.3066 81.4961 70.6191C81.8932 70.9251 82.4141 71.0781 83.0586 71.0781C83.7031 71.0781 84.2174 70.9251 84.6016 70.6191C84.9922 70.3132 85.1875 69.8932 85.1875 69.3594C85.1875 68.8125 84.9954 68.3893 84.6113 68.0898C84.2272 67.7904 83.7096 67.6341 83.0586 67.6211ZM91.9258 70.6289H94.1914V72.6992H91.9258V78.5977H89.4258V65.043H91.9258V70.6289ZM92.5312 82.4648H80.0117V77.4062H82.5117V80.4727H92.5312V82.4648ZM111.262 80.8242H94.9922V78.7734H99.1523V76.0586H96.8672V70.082H106.926V68.168H96.8477V66.1758H109.387V72.0742H99.3672V74.0469H109.797V76.0586H107.277V78.7734H111.262V80.8242ZM104.836 78.7734V76.0586H101.574V78.7734H104.836Z" fill="white"/>
</svg>
