<svg width="17" height="17" viewBox="0 0 17 17" fill="none" xmlns="http://www.w3.org/2000/svg">
<path d="M7.50833 9.49167L5.98542 7.96875C5.85556 7.83889 5.69028 7.77396 5.48958 7.77396C5.28889 7.77396 5.12361 7.83889 4.99375 7.96875C4.86389 8.09861 4.79896 8.26389 4.79896 8.46458C4.79896 8.66528 4.86389 8.83055 4.99375 8.96042L7.0125 10.9792C7.15417 11.1208 7.31944 11.1917 7.50833 11.1917C7.69722 11.1917 7.8625 11.1208 8.00417 10.9792L12.0063 6.97708C12.1361 6.84722 12.201 6.68194 12.201 6.48125C12.201 6.28056 12.1361 6.11528 12.0063 5.98542C11.8764 5.85556 11.7111 5.79063 11.5104 5.79063C11.3097 5.79063 11.1444 5.85556 11.0146 5.98542L7.50833 9.49167ZM3.54167 14.875C3.15208 14.875 2.81869 14.7364 2.5415 14.4592C2.26431 14.182 2.12547 13.8484 2.125 13.4583V3.54167C2.125 3.15208 2.26383 2.81869 2.5415 2.5415C2.81917 2.26431 3.15256 2.12547 3.54167 2.125H13.4583C13.8479 2.125 14.1815 2.26383 14.4592 2.5415C14.7369 2.81917 14.8755 3.15256 14.875 3.54167V13.4583C14.875 13.8479 14.7364 14.1815 14.4592 14.4592C14.182 14.7369 13.8484 14.8755 13.4583 14.875H3.54167Z" fill="#A9D0AC"/>
</svg>
