<svg width="83" height="95" viewBox="0 0 83 95" fill="none" xmlns="http://www.w3.org/2000/svg">
<circle cx="41.4846" cy="53.4849" r="30.2301" transform="rotate(-29.1066 41.4846 53.4849)" fill="white" stroke="#695739" stroke-width="0.539823"/>
<path d="M37.2344 15H34.875V5.92188H34.8125L32.2188 7.54688V5.46875L35.0156 3.6875H37.2344V15ZM44.25 15.1562C43.3073 15.1562 42.4948 14.9297 41.8125 14.4766C41.1354 14.0182 40.6146 13.3542 40.25 12.4844C39.8854 11.6146 39.7031 10.5677 39.7031 9.34375C39.7031 8.11979 39.8854 7.07292 40.25 6.20312C40.6146 5.33333 41.1354 4.67188 41.8125 4.21875C42.4948 3.76042 43.3073 3.53125 44.25 3.53125C45.1875 3.53125 45.9974 3.76042 46.6797 4.21875C47.362 4.67188 47.8854 5.33594 48.25 6.21094C48.6146 7.08073 48.7969 8.125 48.7969 9.34375C48.7969 10.5729 48.6146 11.6224 48.25 12.4922C47.8854 13.362 47.362 14.0234 46.6797 14.4766C46.0026 14.9297 45.1927 15.1562 44.25 15.1562ZM44.25 13.2188C44.6875 13.2188 45.0651 13.0781 45.3828 12.7969C45.7057 12.5156 45.9531 12.0911 46.125 11.5234C46.3021 10.9557 46.3906 10.2552 46.3906 9.42188C46.3906 8.125 46.2031 7.14062 45.8281 6.46875C45.4531 5.79167 44.9271 5.45312 44.25 5.45312C43.5729 5.45312 43.0469 5.79167 42.6719 6.46875C42.2969 7.14062 42.1094 8.125 42.1094 9.42188C42.1094 10.2552 42.1953 10.9557 42.3672 11.5234C42.5443 12.0911 42.7917 12.5156 43.1094 12.7969C43.4323 13.0781 43.8125 13.2188 44.25 13.2188Z" fill="#BFB3A0"/>
</svg>
