<svg width="62" height="90" viewBox="0 0 62 90" fill="none" xmlns="http://www.w3.org/2000/svg">
<circle cx="30.7012" cy="58.7012" r="30.2301" fill="white" stroke="#695739" stroke-width="0.539823"/>
<path d="M30.5312 15.1562C29.7552 15.1562 29.0547 15.013 28.4297 14.7266C27.8099 14.4401 27.3203 14.0443 26.9609 13.5391C26.6068 13.0286 26.4219 12.4531 26.4062 11.8125H28.6875C28.7031 12.1042 28.7943 12.362 28.9609 12.5859C29.1276 12.8099 29.349 12.9844 29.625 13.1094C29.901 13.2344 30.2031 13.2969 30.5312 13.2969C30.9167 13.2969 31.2604 13.2135 31.5625 13.0469C31.8698 12.875 32.1068 12.638 32.2734 12.3359C32.4453 12.0286 32.5312 11.6823 32.5312 11.2969C32.5312 10.901 32.4453 10.5495 32.2734 10.2422C32.1016 9.9349 31.8594 9.69531 31.5469 9.52344C31.2396 9.34635 30.8906 9.25521 30.5 9.25C29.651 9.25 29.0573 9.56771 28.7188 10.2031H26.5938L27.2031 3.6875H34.1719V5.60938H29.1406L28.8281 8.46875H28.9219C29.1354 8.18229 29.4427 7.95312 29.8438 7.78125C30.25 7.60417 30.6979 7.51562 31.1875 7.51562C31.875 7.51562 32.4922 7.67448 33.0391 7.99219C33.5911 8.3099 34.0234 8.7526 34.3359 9.32031C34.6536 9.88281 34.8125 10.5208 34.8125 11.2344C34.8125 11.9896 34.6328 12.6641 34.2734 13.2578C33.9141 13.8516 33.4089 14.3177 32.7578 14.6562C32.112 14.9896 31.3698 15.1562 30.5312 15.1562Z" fill="#BFB3A0"/>
</svg>
