<svg width="62" height="85" viewBox="0 0 62 85" fill="none" xmlns="http://www.w3.org/2000/svg">
<circle cx="30.625" cy="53.6245" r="30.2301" fill="white" stroke="#695739" stroke-width="0.539823"/>
<path d="M31.4688 15.1562C30.651 15.1562 29.9167 15.0156 29.2656 14.7344C28.6198 14.4479 28.1094 14.0521 27.7344 13.5469C27.3646 13.0365 27.1719 12.4583 27.1562 11.8125H29.5312C29.5469 12.0885 29.6406 12.3333 29.8125 12.5469C29.9844 12.7604 30.2161 12.9271 30.5078 13.0469C30.7995 13.1615 31.125 13.2188 31.4844 13.2188C31.8542 13.2188 32.1849 13.1536 32.4766 13.0234C32.7734 12.888 33.0026 12.7031 33.1641 12.4688C33.3307 12.2344 33.4115 11.9688 33.4062 11.6719C33.4115 11.3646 33.3255 11.0911 33.1484 10.8516C32.9766 10.612 32.7292 10.4271 32.4062 10.2969C32.0833 10.1615 31.7031 10.0938 31.2656 10.0938H30.2188V8.35938H31.2656C31.6302 8.35938 31.9557 8.29688 32.2422 8.17188C32.5286 8.04688 32.7526 7.86979 32.9141 7.64062C33.0755 7.41146 33.1562 7.15104 33.1562 6.85938C33.1562 6.57292 33.0859 6.32031 32.9453 6.10156C32.8099 5.88281 32.6172 5.71354 32.3672 5.59375C32.1172 5.46875 31.8281 5.40625 31.5 5.40625C31.1667 5.40625 30.8594 5.46615 30.5781 5.58594C30.3021 5.70052 30.0781 5.86719 29.9062 6.08594C29.7396 6.29948 29.651 6.54688 29.6406 6.82812H27.3906C27.401 6.1875 27.5859 5.61719 27.9453 5.11719C28.3047 4.61719 28.7943 4.22917 29.4141 3.95312C30.0391 3.67188 30.7344 3.53125 31.5 3.53125C32.2708 3.53125 32.9531 3.67188 33.5469 3.95312C34.1458 4.22917 34.6094 4.61198 34.9375 5.10156C35.2656 5.58594 35.4271 6.125 35.4219 6.71875C35.4271 7.13021 35.3385 7.50521 35.1562 7.84375C34.9792 8.17708 34.7266 8.45312 34.3984 8.67188C34.0755 8.89062 33.7031 9.03646 33.2812 9.10938V9.20312C33.8281 9.27083 34.2943 9.42188 34.6797 9.65625C35.0651 9.89062 35.3568 10.1953 35.5547 10.5703C35.7526 10.9401 35.849 11.3594 35.8438 11.8281C35.849 12.4635 35.6641 13.0365 35.2891 13.5469C34.9141 14.0521 34.3932 14.4479 33.7266 14.7344C33.0599 15.0156 32.3073 15.1562 31.4688 15.1562Z" fill="#BFB3A0"/>
</svg>
