<svg width="29" height="29" viewBox="0 0 29 29" fill="none" xmlns="http://www.w3.org/2000/svg">
<circle cx="14.5" cy="14.5" r="14.3717" fill="white" stroke="#695739" stroke-width="0.256637"/>
<path d="M14.4893 6.21387C15.4062 6.21395 16.4511 6.78906 16.4512 9.44434C16.4512 9.61872 16.4443 9.78982 16.4346 9.95703C16.554 9.8215 16.68 9.68618 16.8135 9.55273C18.6911 7.67519 19.8369 8.00694 20.4854 8.65527C21.1338 9.30372 21.4539 10.4376 19.5762 12.3154C19.4443 12.4473 19.31 12.5711 19.1768 12.6895C19.3422 12.6804 19.5117 12.6758 19.6846 12.6758C22.3401 12.6759 22.915 13.7041 22.915 14.6211C22.9148 15.538 22.3396 16.5829 19.6846 16.583C19.5119 16.583 19.3424 16.5769 19.1768 16.5674C19.3102 16.6859 19.444 16.8103 19.5762 16.9424C21.4541 18.8203 21.1338 19.9541 20.4854 20.6025C19.8369 21.251 18.6914 21.583 16.8135 19.7051C16.6847 19.5763 16.563 19.4461 16.4473 19.3154C16.4486 19.3807 16.4531 19.4464 16.4531 19.5127C16.4531 22.168 15.4257 22.7439 14.5088 22.7441C13.5917 22.7441 12.5469 22.1685 12.5469 19.5127C12.5469 19.2357 12.5611 18.9678 12.585 18.709C12.3396 19.0434 12.0585 19.379 11.7324 19.7051C9.8546 21.5828 8.70899 21.251 8.06055 20.6025C7.41221 19.9541 7.09214 18.82 8.96973 16.9424C9.09634 16.8158 9.22466 16.6962 9.35254 16.582C9.34029 16.5821 9.32771 16.583 9.31543 16.583C6.66006 16.5829 6.08501 15.5547 6.08496 14.6377C6.08496 13.7207 6.65994 12.6759 9.31543 12.6758C9.48844 12.6758 9.65827 12.6808 9.82422 12.6904C9.68968 12.571 9.55406 12.4466 9.4209 12.3135C7.5433 10.4359 7.86347 9.30184 8.51172 8.65332C9.16018 8.00486 10.3057 7.67288 12.1836 9.55078C12.3154 9.6826 12.4394 9.81634 12.5576 9.9502C12.5486 9.78535 12.5439 9.61649 12.5439 9.44434C12.544 6.78887 13.5722 6.21387 14.4893 6.21387Z" fill="#695739"/>
</svg>
