<svg width="51" height="51" viewBox="0 0 51 51" fill="none" xmlns="http://www.w3.org/2000/svg">
<circle opacity="0.2" cx="25.5" cy="25.5" r="25.5" fill="#695739"/>
<path d="M25.5 0C39.5833 0 51 11.4167 51 25.5C51 33.8022 47.0311 41.1758 40.8887 45.832C38.0592 40.2015 32.231 36.3379 25.5 36.3379C18.7687 36.338 12.9406 40.202 10.1113 45.833C3.96865 41.1768 0 33.8024 0 25.5C0 11.4167 11.4167 0 25.5 0ZM25.5 19.7627C20.9232 19.7629 17.213 23.473 17.2129 28.0498C17.2129 32.6267 20.9231 36.3377 25.5 36.3379C30.0771 36.3379 33.7881 32.6269 33.7881 28.0498C33.788 23.4728 30.077 19.7627 25.5 19.7627ZM25.4961 12.75C25.1488 12.7502 24.7588 12.9682 24.7588 13.9736C24.7588 14.0387 24.7603 14.1027 24.7637 14.165C24.7191 14.1146 24.6727 14.0634 24.623 14.0137C23.9118 13.3026 23.4771 13.4282 23.2314 13.6738C22.9861 13.9195 22.8654 14.3497 23.5762 15.0605C23.6264 15.1108 23.6777 15.1581 23.7285 15.2031C23.6659 15.1995 23.6014 15.1982 23.5361 15.1982C22.5306 15.1984 22.3125 15.5941 22.3125 15.9414C22.3127 16.2886 22.5311 16.6776 23.5361 16.6777C23.6008 16.6777 23.6646 16.6752 23.7266 16.6719C23.6762 16.7166 23.626 16.7646 23.5762 16.8145C22.8659 17.525 22.9862 17.9545 23.2314 18.2002C23.4771 18.4458 23.9118 18.5715 24.623 17.8604C24.6722 17.8112 24.7185 17.7609 24.7627 17.7109C24.7621 17.7361 24.7607 17.7615 24.7607 17.7871C24.7607 18.7927 25.1566 19.0106 25.5039 19.0107C25.8512 19.0105 26.2402 18.7926 26.2402 17.7871C26.2402 17.7622 26.2388 17.7374 26.2383 17.7129C26.2819 17.7621 26.3275 17.8118 26.376 17.8604C27.0871 18.5715 27.5209 18.4457 27.7666 18.2002C28.0122 17.9546 28.1337 17.5255 27.4229 16.8145C27.3724 16.764 27.3205 16.7161 27.2695 16.6709C27.3328 16.6746 27.3979 16.6768 27.4639 16.6768C28.4697 16.6767 28.6875 16.2809 28.6875 15.9336C28.6873 15.5864 28.4692 15.1973 27.4639 15.1973C27.3982 15.1973 27.3334 15.1987 27.2705 15.2021C27.3209 15.1574 27.373 15.1114 27.4229 15.0615C28.1339 14.3503 28.0122 13.9204 27.7666 13.6748C27.5209 13.4295 27.0867 13.3041 26.376 14.0146C26.3259 14.0648 26.2783 14.1161 26.2334 14.167C26.2371 14.1039 26.2393 14.0394 26.2393 13.9736C26.2392 12.9679 25.8434 12.7501 25.4961 12.75Z" fill="#F6F6F6"/>
</svg>
