<svg width="84" height="99" viewBox="0 0 84 99" fill="none" xmlns="http://www.w3.org/2000/svg">
<circle cx="41.6638" cy="56.6638" r="30.2301" transform="rotate(30 41.6638 56.6638)" fill="white" stroke="#695739" stroke-width="0.539823"/>
<path d="M48.6282 43.4854C50.5525 44.5963 49.3763 50.3139 46.044 56.7485C52.438 53.4554 58.1034 52.3018 59.2087 54.2162C60.4368 56.3436 55.5682 61.4538 48.3351 65.6298C41.5642 69.539 35.1218 71.2431 33.3184 69.7C31.0805 68.9093 29.335 62.4782 29.335 54.6601C29.335 46.3079 31.327 39.537 33.7836 39.537C36.048 39.5378 37.9153 45.2923 38.1935 52.7347C42.1597 46.4135 46.6643 42.3515 48.6282 43.4854Z" fill="#695739"/>
<path d="M41.6562 15.1562C40.8125 15.1562 40.0469 14.9766 39.3594 14.6172C38.6719 14.2526 38.1172 13.6589 37.6953 12.8359C37.2734 12.0078 37.0625 10.9323 37.0625 9.60938C37.0625 8.35417 37.2526 7.27083 37.6328 6.35938C38.013 5.44271 38.5547 4.74219 39.2578 4.25781C39.9609 3.77344 40.7812 3.53125 41.7188 3.53125C42.4583 3.53125 43.1224 3.67448 43.7109 3.96094C44.2995 4.2474 44.7708 4.64062 45.125 5.14062C45.4844 5.64062 45.7031 6.20312 45.7812 6.82812H43.4688C43.375 6.42708 43.1719 6.11458 42.8594 5.89062C42.5521 5.66146 42.1719 5.54688 41.7188 5.54688C40.9635 5.54688 40.3828 5.86719 39.9766 6.50781C39.5755 7.14323 39.3698 8.02604 39.3594 9.15625H39.4688C39.724 8.66146 40.112 8.27344 40.6328 7.99219C41.1536 7.70573 41.7292 7.5625 42.3594 7.5625C43.0312 7.5625 43.6354 7.72135 44.1719 8.03906C44.7135 8.35156 45.138 8.78646 45.4453 9.34375C45.7526 9.89583 45.9062 10.5208 45.9062 11.2188C45.9062 11.974 45.7266 12.651 45.3672 13.25C45.013 13.8438 44.513 14.3099 43.8672 14.6484C43.2214 14.987 42.4844 15.1562 41.6562 15.1562ZM41.6094 13.2969C41.9896 13.2969 42.3333 13.2083 42.6406 13.0312C42.9479 12.8542 43.1875 12.612 43.3594 12.3047C43.5365 11.9974 43.625 11.6562 43.625 11.2812C43.625 10.9115 43.5391 10.5729 43.3672 10.2656C43.2005 9.95833 42.9661 9.71615 42.6641 9.53906C42.362 9.35677 42.0208 9.26562 41.6406 9.26562C41.2604 9.26562 40.9141 9.35677 40.6016 9.53906C40.2943 9.71615 40.0495 9.96094 39.8672 10.2734C39.6901 10.5807 39.599 10.9167 39.5938 11.2812C39.599 11.651 39.6875 11.9896 39.8594 12.2969C40.0365 12.6042 40.2786 12.849 40.5859 13.0312C40.8932 13.2083 41.2344 13.2969 41.6094 13.2969Z" fill="#695739"/>
</svg>
