<svg width="84" height="98" viewBox="0 0 84 98" fill="none" xmlns="http://www.w3.org/2000/svg">
<circle cx="41.7013" cy="55.7014" r="30.2301" transform="rotate(-30.1939 41.7013 55.7014)" fill="white" stroke="#695739" stroke-width="0.539823"/>
<path d="M33.7275 43.1077C35.648 41.9902 40.0245 45.8528 43.9515 51.9427C44.2723 44.7576 46.0874 39.2683 48.2979 39.2608C50.7544 39.2527 52.7685 46.0172 52.7968 54.3693C52.8232 62.1876 51.0996 68.6248 48.8642 69.4226C47.0658 70.9715 40.6178 69.2894 33.8339 65.4032C26.5866 61.2517 21.7016 56.1575 22.9226 54.026C24.0489 52.0615 29.9703 53.3016 36.5665 56.7596C33.053 50.176 31.7675 44.2482 33.7275 43.1077Z" fill="#695739"/>
<path d="M36.9453 11.1406L41.7266 3.6875H44.6797V11.1094H46.1172V13H44.6797V15H42.4453V13H36.9453V11.1406ZM42.4766 11.1094V6.26562H42.3672L39.3203 11.0156V11.1094H42.4766Z" fill="#695739"/>
</svg>
