<svg width="84" height="103" viewBox="0 0 84 103" fill="none" xmlns="http://www.w3.org/2000/svg">
<circle cx="41.7016" cy="60.7014" r="30.2301" transform="rotate(-30.1953 41.7016 60.7014)" fill="white" stroke="#695739" stroke-width="0.539823"/>
<path d="M33.7273 48.1078C35.6477 46.9903 40.0244 50.8528 43.9515 56.9426C44.2722 49.7575 46.0871 44.2681 48.2976 44.2606C50.7541 44.2524 52.7684 51.0169 52.7969 59.369C52.8235 67.1873 51.1 73.6245 48.8647 74.4224C47.0663 75.9713 40.6182 74.2894 33.8342 70.4034C26.5869 66.252 21.7017 61.158 22.9227 59.0264C24.049 57.0619 29.9704 58.3018 36.5666 61.7597C33.053 55.1761 31.7673 49.2484 33.7273 48.1078Z" fill="#695739"/>
<path d="M42.4922 15.1562C41.6432 15.1562 40.8802 15.0182 40.2031 14.7422C39.5312 14.4661 39.0052 14.0859 38.625 13.6016C38.2448 13.112 38.0547 12.5625 38.0547 11.9531C38.0547 11.4896 38.1641 11.0573 38.3828 10.6562C38.6016 10.2552 38.901 9.92448 39.2812 9.66406C39.6667 9.39844 40.0911 9.22917 40.5547 9.15625V9.07812C40.1536 9 39.7969 8.84375 39.4844 8.60938C39.1719 8.36979 38.9271 8.07292 38.75 7.71875C38.5781 7.36458 38.4922 6.98438 38.4922 6.57812C38.4922 5.99479 38.6641 5.47396 39.0078 5.01562C39.3516 4.55208 39.8281 4.1901 40.4375 3.92969C41.0469 3.66406 41.7318 3.53125 42.4922 3.53125C43.2526 3.53125 43.9375 3.66406 44.5469 3.92969C45.1562 4.1901 45.6328 4.55208 45.9766 5.01562C46.3255 5.47396 46.5026 5.99479 46.5078 6.57812C46.5026 6.98958 46.4115 7.3724 46.2344 7.72656C46.0573 8.07552 45.8125 8.36979 45.5 8.60938C45.1875 8.84375 44.8359 9 44.4453 9.07812V9.15625C44.9036 9.22917 45.3203 9.39844 45.6953 9.66406C46.0755 9.92448 46.375 10.2552 46.5938 10.6562C46.8177 11.0573 46.9297 11.4896 46.9297 11.9531C46.9297 12.5625 46.7396 13.112 46.3594 13.6016C45.9792 14.0859 45.4505 14.4661 44.7734 14.7422C44.1016 15.0182 43.3411 15.1562 42.4922 15.1562ZM42.4922 13.3594C42.8828 13.3594 43.2266 13.2917 43.5234 13.1562C43.8255 13.0156 44.0599 12.8203 44.2266 12.5703C44.3932 12.3203 44.4766 12.0365 44.4766 11.7188C44.4766 11.3958 44.3906 11.1042 44.2188 10.8438C44.0521 10.5833 43.8177 10.3802 43.5156 10.2344C43.2135 10.0885 42.8724 10.0156 42.4922 10.0156C42.112 10.0156 41.7682 10.0885 41.4609 10.2344C41.1589 10.3802 40.9219 10.5833 40.75 10.8438C40.5833 11.1042 40.5026 11.3958 40.5078 11.7188C40.5026 12.0365 40.5807 12.3203 40.7422 12.5703C40.9089 12.8203 41.1432 13.0156 41.4453 13.1562C41.7474 13.2917 42.0964 13.3594 42.4922 13.3594ZM42.4922 8.35938C42.8203 8.35938 43.1146 8.29427 43.375 8.16406C43.6406 8.02865 43.8464 7.84375 43.9922 7.60938C44.138 7.375 44.2109 7.10938 44.2109 6.8125C44.2109 6.52604 44.138 6.26823 43.9922 6.03906C43.8464 5.8099 43.6432 5.63281 43.3828 5.50781C43.1224 5.3776 42.8255 5.3125 42.4922 5.3125C42.1589 5.3125 41.862 5.375 41.6016 5.5C41.3464 5.625 41.1458 5.80208 41 6.03125C40.8594 6.26042 40.7891 6.52083 40.7891 6.8125C40.7891 7.10938 40.862 7.375 41.0078 7.60938C41.1536 7.84375 41.3542 8.02865 41.6094 8.16406C41.8698 8.29427 42.1641 8.35938 42.4922 8.35938Z" fill="#695739"/>
</svg>
