<svg width="84" height="95" viewBox="0 0 84 95" fill="none" xmlns="http://www.w3.org/2000/svg">
<circle cx="41.7397" cy="52.7402" r="30.2301" transform="rotate(30.3975 41.7397 52.7402)" fill="white" stroke="#695739" stroke-width="0.539823"/>
<path d="M48.7949 39.6106C50.7115 40.7349 49.4956 46.4442 46.1188 52.8555C52.5355 49.6068 58.2087 48.4925 59.3007 50.4145C60.514 52.5505 55.6101 57.6267 48.3482 61.7525C41.5503 65.6146 35.0963 67.2739 33.3037 65.7184C31.0713 64.9122 29.3704 58.4692 29.4246 50.6512C29.4826 42.2992 31.5215 35.5423 33.978 35.5593C36.2424 35.5759 38.0697 41.3431 38.2963 48.7873C42.3063 42.4938 46.839 38.4632 48.7949 39.6106Z" fill="#695739"/>
<path d="M37.9922 13.2969L42.0547 9.5625C42.4557 9.17708 42.7656 8.85677 42.9844 8.60156C43.2083 8.34635 43.3802 8.09375 43.5 7.84375C43.6198 7.58854 43.6797 7.31771 43.6797 7.03125C43.6797 6.70312 43.6016 6.41667 43.4453 6.17188C43.2943 5.92708 43.0807 5.73958 42.8047 5.60938C42.5339 5.47396 42.2266 5.40625 41.8828 5.40625C41.3516 5.40625 40.9271 5.5651 40.6094 5.88281C40.2917 6.19531 40.1328 6.61979 40.1328 7.15625H37.8984C37.8932 6.42708 38.0573 5.78906 38.3906 5.24219C38.7292 4.69531 39.2031 4.27344 39.8125 3.97656C40.4219 3.67969 41.1224 3.53125 41.9141 3.53125C42.7109 3.53125 43.4141 3.67448 44.0234 3.96094C44.6328 4.24219 45.1042 4.63542 45.4375 5.14062C45.776 5.64583 45.9453 6.22396 45.9453 6.875C45.9453 7.31771 45.8594 7.74479 45.6875 8.15625C45.5156 8.5625 45.2161 9.01823 44.7891 9.52344C44.3672 10.0234 43.7682 10.625 42.9922 11.3281L41.2734 13V13.0625H46.1016V15H38.0078L37.9922 13.2969Z" fill="#695739"/>
</svg>
