<svg width="82" height="97" viewBox="0 0 82 97" fill="none" xmlns="http://www.w3.org/2000/svg">
<circle cx="40.5099" cy="55.5096" r="30.2301" transform="rotate(24.9123 40.5099 55.5096)" fill="white" stroke="#695739" stroke-width="0.539823"/>
<path d="M46.278 41.7652C48.2932 42.7011 47.6287 48.5005 44.8802 55.2052C50.957 51.3581 56.4977 49.7066 57.7684 51.5154C59.1803 53.5256 54.7841 59.0474 47.9498 63.8484C41.5522 68.3426 35.2864 70.6113 33.3533 69.2342C31.054 68.6451 28.7451 62.3942 28.0518 54.6068C27.3111 46.2876 28.6948 39.3666 31.1417 39.1488C33.3973 38.9488 35.7675 44.515 36.7046 51.9034C40.0947 45.2554 44.2213 40.81 46.278 41.7652Z" fill="#695739"/>
<path d="M40.3438 3.53125C41.1823 3.53125 41.9453 3.71354 42.6328 4.07812C43.3255 4.4375 43.8828 5.02865 44.3047 5.85156C44.7266 6.66927 44.9375 7.73438 44.9375 9.04688C44.9427 10.3125 44.7552 11.4062 44.375 12.3281C43.9948 13.2448 43.4531 13.9453 42.75 14.4297C42.0521 14.9141 41.2292 15.1562 40.2812 15.1562C39.5365 15.1562 38.8698 15.013 38.2812 14.7266C37.6979 14.4401 37.2266 14.0443 36.8672 13.5391C36.513 13.0286 36.2969 12.4531 36.2188 11.8125H38.5312C38.625 12.2292 38.8255 12.5547 39.1328 12.7891C39.4453 13.0234 39.8281 13.1406 40.2812 13.1406C41.0469 13.1406 41.6302 12.8203 42.0312 12.1797C42.4375 11.5391 42.6406 10.6458 42.6406 9.5H42.5469C42.2812 10 41.888 10.3906 41.3672 10.6719C40.8516 10.9531 40.276 11.0938 39.6406 11.0938C38.974 11.0938 38.3698 10.9375 37.8281 10.625C37.2917 10.3125 36.8698 9.88021 36.5625 9.32812C36.2552 8.77083 36.099 8.14583 36.0938 7.45312C36.0938 6.70312 36.2708 6.03125 36.625 5.4375C36.9792 4.83854 37.4792 4.3724 38.125 4.03906C38.7708 3.70052 39.5104 3.53125 40.3438 3.53125ZM40.3906 5.375C40.0156 5.375 39.6745 5.46354 39.3672 5.64062C39.0651 5.81771 38.8255 6.05729 38.6484 6.35938C38.4766 6.66146 38.3906 6.99479 38.3906 7.35938C38.3906 7.73438 38.474 8.07552 38.6406 8.38281C38.8125 8.6901 39.0495 8.93229 39.3516 9.10938C39.6536 9.28646 39.9948 9.375 40.375 9.375C40.75 9.375 41.0911 9.28646 41.3984 9.10938C41.7109 8.92708 41.9557 8.68229 42.1328 8.375C42.3151 8.06771 42.4062 7.73438 42.4062 7.375C42.401 7.01562 42.3099 6.6849 42.1328 6.38281C41.9557 6.07552 41.7135 5.83073 41.4062 5.64844C41.1042 5.46615 40.7656 5.375 40.3906 5.375Z" fill="#695739"/>
</svg>
