<svg width="61" height="87" viewBox="0 0 61 87" fill="none" xmlns="http://www.w3.org/2000/svg">
<circle cx="30.5" cy="56.5" r="30.2301" fill="white" stroke="#695739" stroke-width="0.539823"/>
<path d="M29.9414 41.6045C32.1634 41.6045 34.0035 47.1441 34.335 54.3828C38.2258 48.3339 42.5554 44.5022 44.4697 45.6074C46.597 46.8358 44.9358 53.6956 40.7598 60.9287C36.8506 67.6996 32.1234 72.3966 29.79 71.9619C27.4566 72.3962 22.7294 67.6994 18.8203 60.9287C14.6442 53.6955 12.9839 46.8357 15.1113 45.6074C17.0728 44.476 21.5672 48.5258 25.5293 54.832C25.8036 47.3746 27.6737 41.6045 29.9414 41.6045Z" fill="#695739"/>
<path d="M32.0156 15H29.6562V5.92188H29.5938L27 7.54688V5.46875L29.7969 3.6875H32.0156V15Z" fill="#695739"/>
</svg>
