<svg width="61" height="86" viewBox="0 0 61 86" fill="none" xmlns="http://www.w3.org/2000/svg">
<circle cx="30.5" cy="55.5" r="30.2301" fill="white" stroke="#695739" stroke-width="0.539823"/>
<path d="M29.9414 40.605C32.1634 40.605 34.0035 46.1446 34.335 53.3833C38.2258 47.3344 42.5554 43.5026 44.4697 44.6079C46.597 45.8363 44.9358 52.6961 40.7598 59.9292C36.8506 66.7001 32.1234 71.3971 29.79 70.9624C27.4566 71.3967 22.7294 66.6999 18.8203 59.9292C14.6442 52.696 12.9839 45.8362 15.1113 44.6079C17.0728 43.4764 21.5672 47.5263 25.5293 53.8325C25.8036 46.3751 27.6737 40.605 29.9414 40.605Z" fill="#695739"/>
<path d="M32.4922 5.6875V5.60938H26.9453V3.6875H34.9297V5.64062L30.1641 15H27.7266L32.4922 5.6875Z" fill="#695739"/>
</svg>
