<svg width="26" height="26" viewBox="0 0 26 26" fill="none" xmlns="http://www.w3.org/2000/svg">
<path d="M23.586 9.97624C23.5896 11.605 22.9621 13.1719 21.8352 14.3479C19.2514 17.027 16.7448 19.8204 14.0657 22.4011C13.4507 22.9832 12.4759 22.9621 11.8884 22.3534L4.16653 14.349C1.83251 11.9292 1.83251 8.02328 4.16653 5.60458C4.71817 5.02557 5.38164 4.56462 6.11672 4.24966C6.85181 3.9347 7.6432 3.7723 8.44292 3.7723C9.24264 3.7723 10.034 3.9347 10.7691 4.24966C11.5042 4.56462 12.1677 5.02557 12.7193 5.60458L13.0009 5.89462L13.2814 5.60458C13.8337 5.02636 14.4973 4.56586 15.2322 4.25079C15.9671 3.93572 16.7582 3.7726 17.5578 3.77124C19.1667 3.77124 20.7047 4.43175 21.8342 5.60458C22.9615 6.78043 23.5894 8.34731 23.586 9.97624Z" stroke="#DFDFDF" stroke-width="1.58777" stroke-linejoin="round"/>
</svg>
