<svg width="26" height="26" viewBox="0 0 26 26" fill="none" xmlns="http://www.w3.org/2000/svg">
<path fill-rule="evenodd" clip-rule="evenodd" d="M12.9998 4.76836C14.2396 3.61968 15.8666 2.98021 17.5567 2.97736C19.3837 2.97736 21.1282 3.7289 22.4047 5.05204C23.675 6.37624 24.3826 8.14126 24.3788 9.97624C24.3826 11.8112 23.675 13.5762 22.4047 14.9004C21.5621 15.7737 20.7206 16.6682 19.8749 17.5658C18.1559 19.3906 16.4188 21.2356 14.6141 22.9727L14.6109 22.9769C14.1628 23.4012 13.5653 23.6316 12.9483 23.6179C12.3313 23.6043 11.7446 23.3476 11.3157 22.9039L3.5939 14.9004C0.963493 12.1727 0.963493 7.77983 3.5939 5.0531C4.80971 3.77908 6.47822 3.03494 8.23847 2.98165C9.99872 2.92837 11.7092 3.57022 12.9998 4.76836Z" fill="#FFC2C2"/>
</svg>
