<svg width="21" height="20" viewBox="0 0 21 20" fill="none" xmlns="http://www.w3.org/2000/svg">
<path d="M10.168 0C11.2776 5.01529e-05 12.542 0.695929 12.542 3.90918C12.542 4.11953 12.5351 4.32561 12.5234 4.52734C12.6674 4.36406 12.8197 4.2018 12.9805 4.04102C15.2527 1.76882 16.6392 2.17046 17.4238 2.95508C18.2084 3.73972 18.5953 5.11173 16.3232 7.38379C16.1641 7.54289 16.0026 7.69211 15.8418 7.83496C16.0417 7.82403 16.2462 7.81836 16.4551 7.81836C19.6683 7.81838 20.3642 9.06229 20.3643 10.1719C20.3643 11.2815 19.6684 12.5459 16.4551 12.5459C16.2461 12.5459 16.0413 12.5389 15.8408 12.5273C16.0021 12.6706 16.1636 12.8209 16.3232 12.9805C18.5953 15.2525 18.2084 16.6245 17.4238 17.4092C16.6392 18.1938 15.2527 18.5954 12.9805 16.3232C12.8267 16.1694 12.6804 16.0145 12.542 15.8584C12.5436 15.9353 12.5459 16.0127 12.5459 16.0908C12.5459 19.3042 11.302 20 10.1924 20C9.08277 20 7.81836 19.3042 7.81836 16.0908C7.81836 16.0111 7.81956 15.932 7.82129 15.8535C7.68176 16.011 7.53504 16.1681 7.37988 16.3232C5.10768 18.5954 3.72114 18.1938 2.93652 17.4092C2.152 16.6245 1.76505 15.2525 4.03711 12.9805C4.19621 12.8214 4.35685 12.6712 4.51758 12.5283C4.31915 12.5391 4.11636 12.5459 3.90918 12.5459C0.695978 12.5459 7.09994e-05 11.302 0 10.1924C-4.85029e-08 9.08277 0.695814 7.81836 3.90918 7.81836C4.11817 7.81836 4.32296 7.82438 4.52344 7.83594C4.36095 7.69173 4.19793 7.54069 4.03711 7.37988C1.76505 5.10782 2.152 3.73581 2.93652 2.95117C3.72114 2.16655 5.10768 1.76491 7.37988 4.03711C7.53861 4.19586 7.68867 4.35638 7.83105 4.51758C7.82029 4.31916 7.81445 4.11635 7.81445 3.90918C7.81446 0.695814 9.05835 9.70058e-08 10.168 0Z" fill="#695739"/>
</svg>
