<svg width="393" height="131" viewBox="0 0 393 131" fill="none" xmlns="http://www.w3.org/2000/svg">
<line x1="-4.31236" y1="124.993" x2="184.993" y2="32.3124" stroke="#695739" stroke-width="3" stroke-linecap="round"/>
<line x1="1.5" y1="-1.5" x2="212.276" y2="-1.5" transform="matrix(-0.898138 -0.439713 -0.439713 0.898138 400 127)" stroke="#695739" stroke-width="3" stroke-linecap="round"/>
<path d="M197.479 0C199.169 -1.4767e-07 201.093 1.05951 201.093 5.95117C201.093 6.27119 201.083 6.5847 201.065 6.8916C201.285 6.64294 201.516 6.39524 201.761 6.15039C205.22 2.69152 207.33 3.3027 208.524 4.49707C209.719 5.69148 210.309 7.78033 206.85 11.2393C206.607 11.4815 206.362 11.7093 206.117 11.9268C206.421 11.9102 206.732 11.9014 207.049 11.9014C211.94 11.9014 213 13.7953 213 15.4844C213 17.1735 211.94 19.0986 207.049 19.0986C206.731 19.0986 206.42 19.0879 206.115 19.0703C206.361 19.2885 206.607 19.5177 206.85 19.7607C210.309 23.2197 209.719 25.3085 208.524 26.5029C207.33 27.6973 205.22 28.3085 201.761 24.8496C201.526 24.6148 201.304 24.377 201.093 24.1387C201.095 24.2565 201.099 24.3753 201.099 24.4951C201.099 29.3866 199.205 30.4462 197.516 30.4463C195.826 30.4463 193.901 29.3868 193.901 24.4951C193.901 24.3737 193.904 24.2533 193.906 24.1338C193.694 24.3737 193.471 24.6133 193.234 24.8496C189.776 28.3084 187.665 27.6973 186.471 26.5029C185.276 25.3085 184.687 23.2197 188.146 19.7607C188.387 19.5191 188.631 19.2903 188.875 19.0732C188.574 19.0895 188.266 19.0986 187.951 19.0986C183.06 19.0986 182 17.2047 182 15.5156C182 13.8265 183.06 11.9014 187.951 11.9014C188.268 11.9014 188.579 11.9112 188.884 11.9287C188.637 11.7095 188.39 11.4788 188.146 11.2344C184.687 7.77574 185.276 5.68762 186.471 4.49316C187.665 3.29875 189.775 2.68658 193.234 6.14551C193.476 6.3873 193.704 6.63241 193.921 6.87793C193.904 6.57572 193.896 6.26674 193.896 5.95117C193.896 1.05951 195.79 2.98077e-07 197.479 0Z" fill="#695739"/>
<circle cx="145.5" cy="114.5" r="16.354" fill="white" stroke="#695739" stroke-width="0.292035"/>
<path d="M145.488 105.071C146.531 105.072 147.72 105.726 147.72 108.748C147.72 108.947 147.713 109.141 147.702 109.331C147.838 109.177 147.981 109.023 148.132 108.871C150.269 106.734 151.573 107.112 152.311 107.85C153.049 108.588 153.413 109.878 151.276 112.015C151.126 112.165 150.973 112.305 150.822 112.44C151.01 112.429 151.202 112.424 151.399 112.424C154.421 112.424 155.076 113.594 155.076 114.638C155.076 115.681 154.421 116.87 151.399 116.87C151.202 116.87 151.01 116.864 150.821 116.853C150.973 116.988 151.125 117.129 151.276 117.279C153.413 119.416 153.049 120.707 152.311 121.444C151.573 122.182 150.269 122.561 148.132 120.424C147.986 120.277 147.848 120.128 147.716 119.98C147.718 120.054 147.723 120.129 147.723 120.205C147.723 123.227 146.553 123.881 145.509 123.881C144.466 123.881 143.277 123.227 143.277 120.205C143.277 119.89 143.295 119.585 143.322 119.291C143.043 119.671 142.722 120.053 142.351 120.424C140.214 122.56 138.911 122.182 138.173 121.444C137.435 120.707 137.071 119.416 139.208 117.279C139.352 117.135 139.498 116.999 139.644 116.868C139.63 116.868 139.615 116.87 139.6 116.87C136.579 116.87 135.925 115.701 135.924 114.657C135.924 113.614 136.578 112.424 139.6 112.424C139.797 112.424 139.99 112.431 140.179 112.442C140.026 112.306 139.873 112.163 139.721 112.012C137.584 109.875 137.948 108.585 138.686 107.847C139.424 107.109 140.728 106.731 142.865 108.868C143.015 109.018 143.155 109.17 143.29 109.322C143.279 109.135 143.274 108.944 143.274 108.748C143.274 105.726 144.444 105.071 145.488 105.071Z" fill="#695739"/>
<circle cx="170.5" cy="88.5" r="16.354" fill="white" stroke="#695739" stroke-width="0.292035"/>
<path d="M170.487 79.0714C171.531 79.0715 172.72 79.7264 172.72 82.7482C172.72 82.9466 172.712 83.1409 172.701 83.3312C172.837 83.177 172.98 83.023 173.132 82.8712C175.269 80.7343 176.573 81.1118 177.311 81.8497C178.048 82.5876 178.412 83.8779 176.275 86.0148C176.125 86.1647 175.973 86.305 175.821 86.4396C176.009 86.4293 176.202 86.424 176.398 86.424C179.421 86.424 180.075 87.5943 180.075 88.6378C180.075 89.6814 179.42 90.8702 176.398 90.8702C176.202 90.8702 176.009 90.8636 175.82 90.8527C175.972 90.9877 176.125 91.129 176.275 91.2794C178.412 93.4161 178.048 94.7065 177.311 95.4445C176.573 96.1824 175.269 96.5607 173.132 94.424C172.985 94.2774 172.848 94.1283 172.716 93.9796C172.717 94.0541 172.723 94.1295 172.723 94.2052C172.723 97.2269 171.552 97.881 170.509 97.881C169.465 97.8809 168.276 97.2268 168.276 94.2052C168.276 93.8903 168.294 93.5854 168.321 93.2911C168.042 93.6715 167.721 94.053 167.351 94.424C165.214 96.5604 163.911 96.1823 163.173 95.4445C162.435 94.7065 162.07 93.4163 164.207 91.2794C164.352 91.1349 164.498 90.9985 164.644 90.8683C164.629 90.8683 164.614 90.8702 164.6 90.8702C161.578 90.8701 160.924 89.7007 160.924 88.6573C160.924 87.6138 161.578 86.4241 164.6 86.424C164.797 86.424 164.99 86.4306 165.179 86.4415C165.026 86.3057 164.872 86.1633 164.721 86.0118C162.584 83.8749 162.948 82.5847 163.686 81.8468C164.423 81.1089 165.727 80.7314 167.864 82.8683C168.014 83.0181 168.155 83.1703 168.289 83.3224C168.279 83.1351 168.273 82.9437 168.273 82.7482C168.273 79.7261 169.444 79.0714 170.487 79.0714Z" fill="#695739"/>
<circle cx="196.5" cy="114.5" r="16.354" fill="white" stroke="#695739" stroke-width="0.292035"/>
<path d="M196.487 105.071C197.531 105.072 198.72 105.726 198.72 108.748C198.72 108.947 198.712 109.141 198.701 109.331C198.837 109.177 198.98 109.023 199.132 108.871C201.269 106.734 202.573 107.112 203.311 107.85C204.048 108.588 204.412 109.878 202.275 112.015C202.125 112.165 201.973 112.305 201.821 112.44C202.009 112.429 202.202 112.424 202.398 112.424C205.421 112.424 206.075 113.594 206.075 114.638C206.075 115.681 205.42 116.87 202.398 116.87C202.202 116.87 202.009 116.864 201.82 116.853C201.972 116.988 202.125 117.129 202.275 117.279C204.412 119.416 204.048 120.707 203.311 121.444C202.573 122.182 201.269 122.561 199.132 120.424C198.985 120.277 198.848 120.128 198.716 119.98C198.717 120.054 198.723 120.129 198.723 120.205C198.723 123.227 197.552 123.881 196.509 123.881C195.465 123.881 194.276 123.227 194.276 120.205C194.276 119.89 194.294 119.585 194.321 119.291C194.042 119.671 193.721 120.053 193.351 120.424C191.214 122.56 189.911 122.182 189.173 121.444C188.435 120.707 188.07 119.416 190.207 117.279C190.352 117.135 190.498 116.999 190.644 116.868C190.629 116.868 190.614 116.87 190.6 116.87C187.578 116.87 186.924 115.701 186.924 114.657C186.924 113.614 187.578 112.424 190.6 112.424C190.797 112.424 190.99 112.431 191.179 112.442C191.026 112.306 190.872 112.163 190.721 112.012C188.584 109.875 188.948 108.585 189.686 107.847C190.423 107.109 191.727 106.731 193.864 108.868C194.014 109.018 194.155 109.17 194.289 109.322C194.279 109.135 194.273 108.944 194.273 108.748C194.273 105.726 195.444 105.071 196.487 105.071Z" fill="#695739"/>
<circle cx="222.5" cy="88.5" r="16.354" fill="white" stroke="#695739" stroke-width="0.292035"/>
<path d="M222.487 79.0714C223.531 79.0715 224.72 79.7264 224.72 82.7482C224.72 82.9466 224.712 83.1409 224.701 83.3312C224.837 83.177 224.98 83.023 225.132 82.8712C227.269 80.7343 228.573 81.1118 229.311 81.8497C230.048 82.5876 230.412 83.8779 228.275 86.0148C228.125 86.1647 227.973 86.305 227.821 86.4396C228.009 86.4293 228.202 86.424 228.398 86.424C231.421 86.424 232.075 87.5943 232.075 88.6378C232.075 89.6814 231.42 90.8702 228.398 90.8702C228.202 90.8702 228.009 90.8636 227.82 90.8527C227.972 90.9877 228.125 91.129 228.275 91.2794C230.412 93.4161 230.048 94.7065 229.311 95.4445C228.573 96.1824 227.269 96.5607 225.132 94.424C224.985 94.2774 224.848 94.1283 224.716 93.9796C224.717 94.0541 224.723 94.1295 224.723 94.2052C224.723 97.2269 223.552 97.881 222.509 97.881C221.465 97.8809 220.276 97.2268 220.276 94.2052C220.276 93.8903 220.294 93.5854 220.321 93.2911C220.042 93.6715 219.721 94.053 219.351 94.424C217.214 96.5604 215.911 96.1823 215.173 95.4445C214.435 94.7065 214.07 93.4163 216.207 91.2794C216.352 91.1349 216.498 90.9985 216.644 90.8683C216.629 90.8683 216.614 90.8702 216.6 90.8702C213.578 90.8701 212.924 89.7007 212.924 88.6573C212.924 87.6138 213.578 86.4241 216.6 86.424C216.797 86.424 216.99 86.4306 217.179 86.4415C217.026 86.3057 216.872 86.1633 216.721 86.0118C214.584 83.8749 214.948 82.5847 215.686 81.8468C216.423 81.1089 217.727 80.7314 219.864 82.8683C220.014 83.0181 220.155 83.1703 220.289 83.3224C220.279 83.1351 220.273 82.9437 220.273 82.7482C220.273 79.7261 221.444 79.0714 222.487 79.0714Z" fill="#695739"/>
<circle cx="248.5" cy="114.5" r="16.354" fill="white" stroke="#695739" stroke-width="0.292035"/>
<path d="M248.487 105.071C249.531 105.072 250.72 105.726 250.72 108.748C250.72 108.947 250.712 109.141 250.701 109.331C250.837 109.177 250.98 109.023 251.132 108.871C253.269 106.734 254.573 107.112 255.311 107.85C256.048 108.588 256.412 109.878 254.275 112.015C254.125 112.165 253.973 112.305 253.821 112.44C254.009 112.429 254.202 112.424 254.398 112.424C257.421 112.424 258.075 113.594 258.075 114.638C258.075 115.681 257.42 116.87 254.398 116.87C254.202 116.87 254.009 116.864 253.82 116.853C253.972 116.988 254.125 117.129 254.275 117.279C256.412 119.416 256.048 120.707 255.311 121.444C254.573 122.182 253.269 122.561 251.132 120.424C250.985 120.277 250.848 120.128 250.716 119.98C250.717 120.054 250.723 120.129 250.723 120.205C250.723 123.227 249.552 123.881 248.509 123.881C247.465 123.881 246.276 123.227 246.276 120.205C246.276 119.89 246.294 119.585 246.321 119.291C246.042 119.671 245.721 120.053 245.351 120.424C243.214 122.56 241.911 122.182 241.173 121.444C240.435 120.707 240.07 119.416 242.207 117.279C242.352 117.135 242.498 116.999 242.644 116.868C242.629 116.868 242.614 116.87 242.6 116.87C239.578 116.87 238.924 115.701 238.924 114.657C238.924 113.614 239.578 112.424 242.6 112.424C242.797 112.424 242.99 112.431 243.179 112.442C243.026 112.306 242.872 112.163 242.721 112.012C240.584 109.875 240.948 108.585 241.686 107.847C242.423 107.109 243.727 106.731 245.864 108.868C246.014 109.018 246.155 109.17 246.289 109.322C246.279 109.135 246.273 108.944 246.273 108.748C246.273 105.726 247.444 105.071 248.487 105.071Z" fill="#695739"/>
</svg>
