<svg width="25" height="25" viewBox="0 0 25 25" fill="none" xmlns="http://www.w3.org/2000/svg">
<path d="M12.4997 22.9166C6.74655 22.9166 2.08301 18.2531 2.08301 12.5C2.08301 6.74686 6.74655 2.08331 12.4997 2.08331C18.2528 2.08331 22.9163 6.74686 22.9163 12.5C22.9163 18.2531 18.2528 22.9166 12.4997 22.9166ZM12.4997 20.8333C14.7098 20.8333 16.8294 19.9553 18.3922 18.3925C19.955 16.8297 20.833 14.7101 20.833 12.5C20.833 10.2898 19.955 8.17023 18.3922 6.60742C16.8294 5.04462 14.7098 4.16665 12.4997 4.16665C10.2895 4.16665 8.16992 5.04462 6.60712 6.60742C5.04432 8.17023 4.16634 10.2898 4.16634 12.5C4.16634 14.7101 5.04432 16.8297 6.60712 18.3925C8.16992 19.9553 10.2895 20.8333 12.4997 20.8333ZM11.458 15.625H13.5413V17.7083H11.458V15.625ZM13.5413 13.9114V14.5833H11.458V13.0208C11.458 12.7445 11.5678 12.4796 11.7631 12.2842C11.9585 12.0889 12.2234 11.9791 12.4997 11.9791C12.7956 11.9791 13.0854 11.8951 13.3354 11.7368C13.5854 11.5785 13.7854 11.3524 13.9119 11.085C14.0385 10.8175 14.0865 10.5196 14.0504 10.2259C14.0143 9.93216 13.8955 9.65476 13.7078 9.42593C13.5202 9.1971 13.2715 9.02626 12.9905 8.93328C12.7096 8.8403 12.408 8.82901 12.121 8.90071C11.8339 8.97242 11.573 9.12418 11.3688 9.33833C11.1646 9.55248 11.0254 9.82022 10.9674 10.1104L8.92363 9.70102C9.05033 9.06778 9.34291 8.47953 9.77147 7.99642C10.2 7.51332 10.7492 7.15267 11.3628 6.95135C11.9764 6.75004 12.6325 6.71528 13.2639 6.85062C13.8954 6.98596 14.4796 7.28656 14.9568 7.72167C15.434 8.15679 15.7871 8.71082 15.98 9.32713C16.1729 9.94344 16.1987 10.5999 16.0547 11.2295C15.9108 11.859 15.6022 12.439 15.1606 12.9103C14.719 13.3815 14.1602 13.727 13.5413 13.9114Z" fill="#DFDFDF"/>
</svg>
