<svg width="29" height="29" viewBox="0 0 29 29" fill="none" xmlns="http://www.w3.org/2000/svg">
<circle cx="14.5" cy="14.5" r="14.3717" fill="white" stroke="#695739" stroke-width="0.256637"/>
<path d="M14.4893 6.21436C15.4062 6.21444 16.4511 6.78955 16.4512 9.44482C16.4512 9.61921 16.4443 9.7903 16.4346 9.95752C16.554 9.82199 16.68 9.68667 16.8135 9.55322C18.6911 7.67567 19.8369 8.00743 20.4854 8.65576C21.1338 9.30421 21.4539 10.4381 19.5762 12.3159C19.4443 12.4478 19.31 12.5715 19.1768 12.6899C19.3422 12.6809 19.5117 12.6763 19.6846 12.6763C22.3401 12.6764 22.915 13.7046 22.915 14.6216C22.9148 15.5385 22.3396 16.5834 19.6846 16.5835C19.5119 16.5835 19.3424 16.5774 19.1768 16.5679C19.3102 16.6864 19.444 16.8107 19.5762 16.9429C21.4541 18.8208 21.1338 19.9546 20.4854 20.603C19.8369 21.2515 18.6914 21.5835 16.8135 19.7056C16.6847 19.5768 16.563 19.4466 16.4473 19.3159C16.4486 19.3812 16.4531 19.4469 16.4531 19.5132C16.4531 22.1685 15.4257 22.7444 14.5088 22.7446C13.5917 22.7446 12.5469 22.1689 12.5469 19.5132C12.5469 19.2362 12.5611 18.9683 12.585 18.7095C12.3396 19.0438 12.0585 19.3795 11.7324 19.7056C9.8546 21.5833 8.70899 21.2515 8.06055 20.603C7.41221 19.9546 7.09214 18.8205 8.96973 16.9429C9.09634 16.8163 9.22466 16.6967 9.35254 16.5825C9.34029 16.5826 9.32771 16.5835 9.31543 16.5835C6.66006 16.5834 6.08501 15.5552 6.08496 14.6382C6.08496 13.7212 6.65994 12.6764 9.31543 12.6763C9.48844 12.6763 9.65827 12.6813 9.82422 12.6909C9.68968 12.5715 9.55406 12.4471 9.4209 12.314C7.5433 10.4364 7.86347 9.30232 8.51172 8.65381C9.16018 8.00534 10.3057 7.67337 12.1836 9.55127C12.3154 9.68309 12.4394 9.81683 12.5576 9.95068C12.5486 9.78584 12.5439 9.61698 12.5439 9.44482C12.544 6.78935 13.5722 6.21436 14.4893 6.21436Z" fill="#695739"/>
</svg>
