<svg width="33" height="33" viewBox="0 0 33 33" fill="none" xmlns="http://www.w3.org/2000/svg">
<circle cx="16.5" cy="16.5" r="16.5" fill="#BFB3A0"/>
<path d="M23.4296 13.5038C23.795 13.1384 24.0004 12.6429 24.0004 12.1262C24.0005 11.6095 23.7953 11.1139 23.43 10.7485C23.0647 10.3831 22.5691 10.1778 22.0524 10.1777C21.5357 10.1777 21.0402 10.3829 20.6747 10.7482L11.4508 19.9742C11.2903 20.1342 11.1716 20.3312 11.1052 20.5479L10.1922 23.5557C10.1743 23.6155 10.173 23.679 10.1883 23.7395C10.2036 23.7999 10.235 23.8551 10.2791 23.8992C10.3233 23.9433 10.3785 23.9746 10.439 23.9898C10.4996 24.005 10.563 24.0036 10.6228 23.9856L13.6313 23.0733C13.8478 23.0075 14.0447 22.8895 14.205 22.7298L23.4296 13.5038Z" stroke="white" stroke-width="1.38228" stroke-linecap="round" stroke-linejoin="round"/>
</svg>
