<svg width="87" height="87" viewBox="0 0 87 87" fill="none" xmlns="http://www.w3.org/2000/svg">
<rect x="0.343262" y="0.171875" width="86.6577" height="86.6577" fill="#F6F6F6"/>
<path opacity="0.2" d="M44.126 27.2607C45.9477 27.2607 48.0234 28.4033 48.0234 33.6787C48.0234 34.0236 48.0123 34.3616 47.9932 34.6924C48.2296 34.4243 48.4792 34.1575 48.7432 33.8936C52.4733 30.1635 54.7489 30.8233 56.0371 32.1113C57.3252 33.3995 57.9617 35.6515 54.2314 39.3818C53.9701 39.6432 53.7055 39.8894 53.4414 40.124C53.7693 40.1061 54.1048 40.0967 54.4473 40.0967C59.7221 40.0968 60.8641 42.1384 60.8643 43.96C60.8643 45.7816 59.7224 47.8573 54.4473 47.8574C54.1048 47.8574 53.7689 47.847 53.4404 47.8281C53.7051 48.0633 53.9695 48.3113 54.2314 48.5732C57.9615 52.3034 57.3252 54.5546 56.0371 55.8428C54.749 57.1309 52.4735 57.7909 48.7432 54.0605C48.4904 53.8078 48.2509 53.5525 48.0234 53.2959C48.026 53.4225 48.0283 53.5501 48.0283 53.6787C48.0283 58.954 45.9867 60.0966 44.165 60.0967C42.3433 60.0967 40.2676 58.9542 40.2676 53.6787C40.2676 53.5478 40.2696 53.4179 40.2725 53.2891C40.0433 53.5477 39.8026 53.8057 39.5479 54.0605C35.8175 57.7909 33.542 57.1309 32.2539 55.8428C30.9659 54.5546 30.3298 52.3032 34.0596 48.5732C34.3203 48.3125 34.5833 48.0652 34.8467 47.8311C34.5215 47.8487 34.1891 47.8584 33.8496 47.8584C28.5741 47.8584 27.4316 45.8158 27.4316 43.9941C27.4317 42.1725 28.5743 40.0967 33.8496 40.0967C34.1922 40.0967 34.5278 40.1071 34.8564 40.126C34.5899 39.8894 34.3233 39.6407 34.0596 39.377C30.3293 35.6467 30.9659 33.3946 32.2539 32.1064C33.542 30.8183 35.8175 30.1583 39.5479 33.8887C39.8091 34.1499 40.0558 34.4144 40.29 34.6797C40.2723 34.3533 40.2627 34.0196 40.2627 33.6787C40.2627 28.4037 42.3044 27.2609 44.126 27.2607Z" fill="#695739"/>
</svg>
