<svg width="16" height="16" viewBox="0 0 16 16" fill="none" xmlns="http://www.w3.org/2000/svg">
<path opacity="0.1" d="M7.98926 0C8.86095 0.000186668 9.85348 0.547109 9.85352 3.07129C9.85352 3.23745 9.84718 3.40026 9.83789 3.55957C9.95172 3.43039 10.072 3.30199 10.1992 3.1748C11.9844 1.38961 13.073 1.70486 13.6895 2.32129C14.3059 2.93776 14.6104 4.01553 12.8252 5.80078C12.7002 5.92573 12.5735 6.04308 12.4473 6.15527C12.6042 6.1467 12.7648 6.14258 12.9287 6.14258C15.4533 6.14261 16 7.12038 16 7.99219C15.9998 8.86388 15.4529 9.85641 12.9287 9.85645C12.7639 9.85645 12.6024 9.85094 12.4443 9.8418C12.5716 9.9548 12.6992 10.0732 12.8252 10.1992C14.6104 11.9845 14.3059 13.0622 13.6895 13.6787C13.073 14.2951 11.9844 14.6104 10.1992 12.8252C10.0773 12.7033 9.96218 12.5798 9.85254 12.4561C9.85382 12.5177 9.85742 12.5799 9.85742 12.6426C9.85739 15.1672 8.87962 15.7139 8.00781 15.7139C7.13612 15.7137 6.14359 15.1668 6.14355 12.6426C6.14355 12.578 6.14699 12.5138 6.14844 12.4502C6.03741 12.5757 5.92151 12.7025 5.79785 12.8262C4.0129 14.6109 2.92405 14.2951 2.30762 13.6787C1.69115 13.0622 1.38662 11.9845 3.17188 10.1992C3.29681 10.0743 3.42261 9.95593 3.54883 9.84375C3.39312 9.85218 3.23386 9.85742 3.07129 9.85742C0.546678 9.85739 3.81078e-08 8.87962 0 8.00781C0.000186706 7.13612 0.547109 6.14359 3.07129 6.14355C3.23572 6.14355 3.39696 6.14812 3.55469 6.15723C3.42672 6.04368 3.29853 5.9245 3.17188 5.79785C1.38662 4.0126 1.69115 2.93483 2.30762 2.31836C2.9241 1.70193 4.01266 1.38668 5.79785 3.17188C5.92266 3.29669 6.0404 3.42307 6.15234 3.5498C6.14388 3.3938 6.13965 3.23418 6.13965 3.07129C6.13968 0.546678 7.11745 7.62155e-08 7.98926 0Z" fill="#695739"/>
</svg>
