<svg width="169" height="64" viewBox="0 0 169 64" fill="none" xmlns="http://www.w3.org/2000/svg">
<path opacity="0.2" d="M23.8751 1.90539C24.2056 0.938328 25.5418 0.909039 25.9336 1.81753L25.9667 1.90594L26.4127 3.2101C26.5149 3.50919 26.68 3.78288 26.897 4.01272C27.114 4.24255 27.3777 4.42319 27.6704 4.54243L27.7903 4.58719L29.0945 5.0326C30.0615 5.36306 30.0908 6.69926 29.1829 7.09106L29.0945 7.12422L27.7903 7.57017C27.4911 7.6723 27.2173 7.83743 26.9874 8.0544C26.7575 8.27137 26.5767 8.53514 26.4574 8.82791L26.4127 8.94727L25.9673 10.252C25.6368 11.219 24.3006 11.2483 23.9094 10.3404L23.8751 10.252L23.4297 8.94782C23.3276 8.64863 23.1624 8.37483 22.9455 8.14489C22.7285 7.91496 22.4647 7.73424 22.172 7.61493L22.0526 7.57017L20.7484 7.12477C19.7808 6.79431 19.7515 5.4581 20.66 5.06686L20.7484 5.0326L22.0526 4.58719C22.3517 4.48499 22.6254 4.31984 22.8552 4.10287C23.085 3.88591 23.2657 3.62217 23.3849 3.32946L23.4297 3.2101L23.8751 1.90539ZM29.342 9.98493e-08C29.4454 -1.304e-07 29.5467 0.0289999 29.6345 0.0837043C29.7222 0.138409 29.7928 0.216624 29.8383 0.30946L29.8648 0.374115L30.0582 0.941091L30.6257 1.1345C30.7293 1.1697 30.8202 1.23487 30.8867 1.32174C30.9532 1.40861 30.9925 1.51327 30.9995 1.62247C31.0064 1.73166 30.9809 1.84048 30.9259 1.93511C30.871 2.02975 30.7892 2.10595 30.691 2.15406L30.6257 2.18059L30.0588 2.374L29.8654 2.94153C29.8301 3.0451 29.7649 3.13588 29.678 3.20236C29.5911 3.26883 29.4864 3.30801 29.3772 3.31494C29.268 3.32186 29.1592 3.29622 29.0646 3.24125C28.97 3.18629 28.8939 3.10448 28.8458 3.00619L28.8193 2.94153L28.6259 2.37455L28.0583 2.18114C27.9547 2.14594 27.8639 2.08078 27.7974 1.99391C27.7308 1.90704 27.6916 1.80237 27.6846 1.69318C27.6776 1.58398 27.7032 1.47517 27.7581 1.38053C27.8131 1.28589 27.8948 1.20969 27.9931 1.16158L28.0583 1.13506L28.6253 0.941643L28.8187 0.374115C28.856 0.264934 28.9265 0.170153 29.0203 0.103061C29.1142 0.0359687 29.2267 -6.92314e-05 29.342 9.98493e-08Z" fill="#695739"/>
<path opacity="0.2" d="M0.556641 59L5.45898 44.8594H9.22852L14.1113 59H10.9668L9.90234 55.7383H4.78516L3.7207 59H0.556641ZM9.16016 53.4531L7.39258 48.043H7.29492L5.52734 53.4531H9.16016ZM18.6426 59H15.7129V44.8594H18.6426V59Z" fill="#695739"/>
<path opacity="0.2" d="M149.625 53.7266H147.125V43.0234H149.625V53.7266ZM149.625 60.7969H147.125V56.5H137.398V54.5078H149.625V60.7969ZM145.25 46.0508H141.676C141.682 46.7734 141.839 47.4733 142.145 48.1504C142.457 48.8275 142.929 49.4329 143.561 49.9668C144.199 50.5007 144.983 50.9076 145.914 51.1875L144.645 53.1211C143.674 52.8216 142.835 52.3691 142.125 51.7637C141.415 51.1582 140.855 50.4421 140.445 49.6152C140.029 50.5137 139.456 51.2949 138.727 51.959C137.997 52.6165 137.125 53.1146 136.109 53.4531L134.82 51.5195C135.758 51.2135 136.549 50.7773 137.193 50.2109C137.844 49.638 138.329 48.9935 138.648 48.2773C138.967 47.5547 139.13 46.8125 139.137 46.0508H135.484V44.0586H145.25V46.0508ZM167.008 52.75H164.527V49.0391H161.715V47.0078H164.527V43.0234H167.008V52.75ZM157.613 55.1133H164.527V53.4336H167.008V60.6016H155.152V53.4336H157.613V55.1133ZM164.527 58.6094V57.0273H157.613V58.6094H164.527ZM162.281 45.8555H158.756C158.795 46.5391 158.967 47.2031 159.273 47.8477C159.586 48.4922 160.038 49.0716 160.631 49.5859C161.23 50.1003 161.962 50.4974 162.828 50.7773L161.598 52.6914C160.634 52.3724 159.807 51.9102 159.117 51.3047C158.434 50.6992 157.893 49.9863 157.496 49.166C157.092 50.084 156.529 50.8815 155.807 51.5586C155.084 52.2292 154.215 52.7305 153.199 53.0625L151.93 51.1094C152.828 50.8099 153.587 50.39 154.205 49.8496C154.83 49.3027 155.305 48.6875 155.631 48.0039C155.963 47.3203 156.152 46.6042 156.197 45.8555H152.633V43.8242H162.281V45.8555Z" fill="#695739"/>
<path opacity="0.2" d="M141.667 13.6667H145.667L148.333 11H156.333L159 13.6667H163C163.707 13.6667 164.386 13.9476 164.886 14.4477C165.386 14.9478 165.667 15.6261 165.667 16.3333V32.3333C165.667 33.0406 165.386 33.7189 164.886 34.219C164.386 34.719 163.707 35 163 35H141.667C140.959 35 140.281 34.719 139.781 34.219C139.281 33.7189 139 33.0406 139 32.3333V16.3333C139 15.6261 139.281 14.9478 139.781 14.4477C140.281 13.9476 140.959 13.6667 141.667 13.6667ZM152.333 17.6667C150.565 17.6667 148.87 18.369 147.619 19.6193C146.369 20.8695 145.667 22.5652 145.667 24.3333C145.667 26.1014 146.369 27.7971 147.619 29.0474C148.87 30.2976 150.565 31 152.333 31C154.101 31 155.797 30.2976 157.047 29.0474C158.298 27.7971 159 26.1014 159 24.3333C159 22.5652 158.298 20.8695 157.047 19.6193C155.797 18.369 154.101 17.6667 152.333 17.6667ZM152.333 20.3333C153.394 20.3333 154.412 20.7548 155.162 21.5049C155.912 22.2551 156.333 23.2725 156.333 24.3333C156.333 25.3942 155.912 26.4116 155.162 27.1618C154.412 27.9119 153.394 28.3333 152.333 28.3333C151.272 28.3333 150.255 27.9119 149.505 27.1618C148.755 26.4116 148.333 25.3942 148.333 24.3333C148.333 23.2725 148.755 22.2551 149.505 21.5049C150.255 20.7548 151.272 20.3333 152.333 20.3333Z" fill="#695739"/>
</svg>
