<svg width="125" height="166" viewBox="0 0 125 166" fill="none" xmlns="http://www.w3.org/2000/svg">
<rect width="124.5" height="166" rx="8.64583" fill="#F6F6F6"/>
<path opacity="0.2" d="M62.3789 45.5928C65.9279 45.5928 69.9716 47.8182 69.9717 58.0957C69.9717 58.7689 69.9506 59.4286 69.9131 60.0742C70.3744 59.5511 70.8609 59.0297 71.376 58.5146C78.6428 51.2479 83.0754 52.5328 85.585 55.042C88.0945 57.5515 89.3345 61.9388 82.0674 69.2061C81.5584 69.7151 81.0435 70.1953 80.5293 70.6523C81.167 70.6176 81.8193 70.5996 82.4854 70.5996C92.7626 70.5997 94.9882 74.578 94.9883 78.127C94.9883 81.6759 92.7628 85.7197 82.4854 85.7197C81.819 85.7197 81.1657 85.6998 80.5264 85.6631C81.0417 86.1209 81.5573 86.6023 82.0674 87.1123C89.3345 94.3796 88.0945 98.7669 85.585 101.276C83.0754 103.786 78.6428 105.07 71.376 97.8037C70.8823 97.3101 70.4149 96.8106 69.9707 96.3096C69.9758 96.5575 69.9814 96.8076 69.9814 97.0596C69.9814 107.337 66.003 109.562 62.4541 109.562C58.9051 109.562 54.8614 107.337 54.8613 97.0596C54.8613 96.8047 54.8665 96.5517 54.8721 96.3008C54.4257 96.8047 53.9563 97.3073 53.46 97.8037C46.1931 105.07 41.7606 103.786 39.251 101.276C36.7415 98.7669 35.5014 94.3796 42.7686 87.1123C43.2769 86.604 43.7902 86.1234 44.3037 85.667C43.6694 85.7014 43.0207 85.7197 42.3584 85.7197C32.0812 85.7197 29.8556 81.7413 29.8555 78.1924C29.8555 74.6434 32.0809 70.5997 42.3584 70.5996C43.0262 70.5996 43.6807 70.6194 44.3213 70.6562C43.802 70.1953 43.2825 69.7103 42.7686 69.1963C35.5014 61.929 36.7415 57.5417 39.251 55.0322C41.7606 52.523 46.1931 51.2382 53.46 58.5049C53.9682 59.0132 54.4484 59.5278 54.9043 60.0439C54.8698 59.4087 54.8516 58.759 54.8516 58.0957C54.8516 47.8185 58.83 45.5929 62.3789 45.5928Z" fill="#695739"/>
</svg>
