<svg width="25" height="25" viewBox="0 0 25 25" fill="none" xmlns="http://www.w3.org/2000/svg">
<path d="M12.4997 22.9168C6.74655 22.9168 2.08301 18.2533 2.08301 12.5002C2.08301 6.74704 6.74655 2.0835 12.4997 2.0835C18.2528 2.0835 22.9163 6.74704 22.9163 12.5002C22.9163 18.2533 18.2528 22.9168 12.4997 22.9168ZM12.4997 20.8335C14.7098 20.8335 16.8294 19.9555 18.3922 18.3927C19.955 16.8299 20.833 14.7103 20.833 12.5002C20.833 10.29 19.955 8.17041 18.3922 6.60761C16.8294 5.0448 14.7098 4.16683 12.4997 4.16683C10.2895 4.16683 8.16992 5.0448 6.60712 6.60761C5.04432 8.17041 4.16634 10.29 4.16634 12.5002C4.16634 14.7103 5.04432 16.8299 6.60712 18.3927C8.16992 19.9555 10.2895 20.8335 12.4997 20.8335ZM11.458 15.6252H13.5413V17.7085H11.458V15.6252ZM13.5413 13.9116V14.5835H11.458V13.021C11.458 12.7447 11.5678 12.4798 11.7631 12.2844C11.9585 12.0891 12.2234 11.9793 12.4997 11.9793C12.7956 11.9793 13.0854 11.8953 13.3354 11.737C13.5854 11.5787 13.7854 11.3526 13.9119 11.0851C14.0385 10.8177 14.0865 10.5197 14.0504 10.226C14.0143 9.93234 13.8955 9.65494 13.7078 9.42611C13.5202 9.19729 13.2715 9.02644 12.9905 8.93347C12.7096 8.84049 12.408 8.82919 12.121 8.9009C11.8339 8.9726 11.573 9.12436 11.3688 9.33851C11.1646 9.55266 11.0254 9.82041 10.9674 10.1106L8.92363 9.7012C9.05033 9.06796 9.34291 8.47972 9.77147 7.99661C10.2 7.5135 10.7492 7.15285 11.3628 6.95154C11.9764 6.75022 12.6325 6.71546 13.2639 6.8508C13.8954 6.98615 14.4796 7.28674 14.9568 7.72186C15.434 8.15697 15.7871 8.711 15.98 9.32731C16.1729 9.94362 16.1987 10.6001 16.0547 11.2297C15.9108 11.8592 15.6022 12.4392 15.1606 12.9104C14.719 13.3817 14.1602 13.7272 13.5413 13.9116Z" fill="#DFDFDF"/>
</svg>
