<svg width="324" height="477" viewBox="0 0 324 477" fill="none" xmlns="http://www.w3.org/2000/svg">
<path d="M36 89.9781L157 1.97814" stroke="#695739" stroke-width="3" stroke-linecap="round"/>
<path d="M61.4704 208L61.4704 94" stroke="#695739" stroke-width="3" stroke-linecap="round"/>
<path d="M263.47 208L263.47 94" stroke="#695739" stroke-width="3" stroke-linecap="round"/>
<path d="M287.47 90L166.47 1.99999" stroke="#695739" stroke-width="3" stroke-linecap="round"/>
<path d="M263.47 216L61.4704 216" stroke="#695739" stroke-width="3" stroke-linecap="round"/>
<path d="M160.47 92L160.47 109" stroke="#695739" stroke-width="3" stroke-linecap="round"/>
<path d="M128.47 101L140.491 113.021" stroke="#695739" stroke-width="3" stroke-linecap="round"/>
<path d="M178.47 148L190.491 160.021" stroke="#695739" stroke-width="3" stroke-linecap="round"/>
<path d="M160.47 154L160.47 171" stroke="#695739" stroke-width="3" stroke-linecap="round"/>
<path d="M184.47 131H201.47" stroke="#695739" stroke-width="3" stroke-linecap="round"/>
<path d="M178.47 113.021L190.491 101" stroke="#695739" stroke-width="3" stroke-linecap="round"/>
<path d="M128.47 160.021L140.491 148" stroke="#695739" stroke-width="3" stroke-linecap="round"/>
<path d="M119.47 131H136.47" stroke="#695739" stroke-width="3" stroke-linecap="round"/>
<path d="M79.5 328.48C17.1 324.88 4.66667 425.98 1 475.98V491.98L123.5 489.48C122 486.813 120.3 470.78 125.5 427.98C131.461 378.915 179.475 330.272 155 309.816M79.5 328.48C95 356.48 55.5 349.98 48.5 373.48C59.5 367.813 88 360.88 114 378.48M79.5 328.48C83.0961 318.063 99.83 302.831 122 301.152M122 301.152C125.694 300.872 129.539 300.969 133.5 301.526M122 301.152L133.5 301.526M133.5 301.526C128.333 304.011 116.6 312.28 111 325.48M133.5 301.526C137.081 302.031 140.757 302.912 144.5 304.234M144.5 304.234C145.165 304.469 145.831 304.717 146.5 304.98C149.982 306.348 152.787 307.967 155 309.816M144.5 304.234C141 307.649 132.6 317.58 127 329.98M155 309.816C152.5 313.371 146.6 323.88 143 337.48" stroke="black" stroke-linecap="round"/>
<path d="M244.403 328.48C306.803 324.88 319.236 425.98 322.903 475.98V491.98L200.403 489.48C201.903 486.813 203.603 470.78 198.403 427.98C192.442 378.915 144.428 330.272 168.903 309.816M244.403 328.48C228.903 356.48 268.403 349.98 275.403 373.48C264.403 367.813 235.903 360.88 209.903 378.48M244.403 328.48C240.807 318.063 224.073 302.831 201.903 301.152M201.903 301.152C198.208 300.872 194.363 300.969 190.403 301.526M201.903 301.152L190.403 301.526M190.403 301.526C195.569 304.011 207.303 312.28 212.903 325.48M190.403 301.526C186.822 302.031 183.146 302.912 179.403 304.234M179.403 304.234C178.738 304.469 178.071 304.717 177.403 304.98C173.92 306.348 171.115 307.967 168.903 309.816M179.403 304.234C182.903 307.649 191.303 317.58 196.903 329.98M168.903 309.816C171.403 313.371 177.303 323.88 180.903 337.48" stroke="black" stroke-linecap="round"/>
<circle cx="161.5" cy="300.5" r="61" fill="white" stroke="#695739"/>
<path d="M161.454 265.357C165.343 265.357 169.775 267.796 169.775 279.06C169.775 279.798 169.751 280.52 169.71 281.227C170.216 280.654 170.748 280.083 171.312 279.519C179.277 271.554 184.136 272.963 186.886 275.714C189.636 278.464 190.994 283.272 183.03 291.237C182.472 291.795 181.909 292.321 181.345 292.822C182.044 292.784 182.759 292.763 183.489 292.763C194.753 292.763 197.192 297.124 197.192 301.013C197.192 304.903 194.753 309.335 183.489 309.335C182.758 309.335 182.042 309.313 181.341 309.272C181.906 309.774 182.471 310.302 183.03 310.861C190.994 318.826 189.636 323.634 186.886 326.385C184.136 329.135 179.277 330.544 171.312 322.579C170.772 322.039 170.261 321.492 169.775 320.943C169.78 321.214 169.786 321.488 169.786 321.763C169.786 333.027 165.425 335.467 161.536 335.467C157.646 335.467 153.214 333.027 153.214 321.763C153.214 320.599 153.271 319.472 153.371 318.384C152.334 319.794 151.14 321.204 149.765 322.579C141.8 330.544 136.941 329.135 134.191 326.385C131.441 323.634 130.083 318.826 138.047 310.861C138.584 310.325 139.125 309.816 139.666 309.332C139.615 309.332 139.563 309.335 139.511 309.335C128.247 309.335 125.808 304.974 125.808 301.085C125.808 297.195 128.247 292.763 139.511 292.763C140.242 292.763 140.958 292.785 141.66 292.825C141.091 292.32 140.522 291.789 139.959 291.226C131.995 283.262 133.353 278.453 136.103 275.703C138.853 272.953 143.712 271.544 151.677 279.509C152.235 280.066 152.761 280.631 153.261 281.197C153.223 280.5 153.204 279.788 153.204 279.06C153.204 267.796 157.564 265.357 161.454 265.357Z" fill="#695739"/>
</svg>
