<svg width="145" height="91" viewBox="0 0 145 91" fill="none" xmlns="http://www.w3.org/2000/svg">
<path d="M72.7815 0C74.1285 0.000169762 75.6633 0.84533 75.6633 4.74609C75.6633 5.00133 75.6541 5.25132 75.6399 5.49609C75.8149 5.29765 76.0002 5.10068 76.1956 4.90527C78.9541 2.14674 80.6366 2.63436 81.5891 3.58691C82.5416 4.53944 83.0123 6.20454 80.2542 8.96289C80.0608 9.15622 79.8645 9.33816 79.6692 9.51172C79.9115 9.49849 80.1593 9.49219 80.4124 9.49219C84.3131 9.49219 85.1583 11.0016 85.1584 12.3486C85.1584 13.6958 84.3135 15.2314 80.4124 15.2314C80.1592 15.2314 79.9111 15.223 79.6682 15.209C79.8641 15.383 80.0603 15.5659 80.2542 15.7598C83.0124 18.5181 82.5416 20.1832 81.5891 21.1357C80.6366 22.0883 78.954 22.5767 76.1956 19.8184C76.0086 19.6314 75.8316 19.4418 75.6633 19.252C75.6653 19.3456 75.6672 19.44 75.6672 19.5352C75.6672 23.4361 74.1569 24.2811 72.8098 24.2812C71.4627 24.2812 69.928 23.4363 69.928 19.5352C69.928 19.4381 69.9288 19.3417 69.9309 19.2461C69.7613 19.4376 69.5835 19.6297 69.3948 19.8184C66.6364 22.5765 64.9537 22.0883 64.0012 21.1357C63.0488 20.1832 62.5788 18.5181 65.3372 15.7598C65.5304 15.5665 65.7249 15.3834 65.9202 15.21C65.6794 15.223 65.4333 15.2314 65.1819 15.2314C61.281 15.2314 60.4359 13.7211 60.4358 12.374C60.4358 11.0269 61.2807 9.49219 65.1819 9.49219C65.4347 9.49219 65.6825 9.49876 65.925 9.5127C65.7283 9.33798 65.5319 9.15376 65.3372 8.95898C62.5787 6.20052 63.0487 4.53558 64.0012 3.58301C64.9538 2.63045 66.6362 2.14283 69.3948 4.90137C69.588 5.09457 69.7703 5.29014 69.9436 5.48633C69.9305 5.24494 69.9241 4.99816 69.9241 4.74609C69.9241 0.844938 71.4344 1.17769e-07 72.7815 0Z" fill="white"/>
<path d="M2 77.5398L69.9878 28.0941" stroke="white" stroke-width="2.80941" stroke-linecap="round"/>
<path d="M143.297 77.5521L75.3091 28.1064" stroke="white" stroke-width="2.80941" stroke-linecap="round"/>
<path d="M46.4941 61.5859C48.0824 62.8036 48.5059 63.6242 48.4795 65.583C48.4265 69.2095 48.453 75.9596 48.4 78.3949C48.3471 81.1479 47.4471 83.292 45.5677 85.3568C45.4882 84.6156 45.3294 83.8744 45.0647 82.9744C44.8265 82.1803 44.7206 81.1744 44.6676 80.3008C44.5882 78.9508 44.6147 77.0449 44.6676 75.0331C44.1912 75.0066 43.6618 75.0066 43.2117 75.0331C43.2117 75.8802 43.1853 76.5949 43.1588 77.1243C43.1059 78.2626 42.947 79.692 42.4706 80.5655C41.8353 81.7303 41.0676 82.9215 40.5647 83.7685C40.0617 82.3656 39.6117 80.3273 39.6117 78.7655C39.6117 75.5361 39.8499 71.1684 39.7441 68.1507C39.6911 66.8007 39.4794 66.3507 38.9764 65.6889C38.6058 65.1859 38.5793 64.6301 39.2941 63.9683C40.1411 63.2006 40.4852 63.0683 41.3058 63.73C42.8676 64.9742 43.1853 65.7948 43.2117 67.7271C43.2382 68.9183 43.2382 70.2948 43.2382 71.6448C43.7412 71.6448 44.2971 71.6448 44.8 71.6713C44.8794 69.5007 44.9324 67.4624 44.8794 66.1124C44.8265 64.7624 44.6412 64.1536 44.1647 63.5712C43.6088 62.9094 43.7676 62.5124 44.5088 61.7977C45.2765 61.0565 45.7265 61.0035 46.4941 61.5859ZM37.9176 75.1919C38.897 75.9861 39.1088 76.8067 39.0029 77.9449C38.9235 78.5008 38.4735 78.9508 38.1293 79.0567C37.8117 79.1891 37.1234 79.1361 36.9117 79.0832C36.144 78.9243 35.7205 78.4479 35.244 77.8126C35.0058 77.4949 34.6881 77.0184 34.344 76.5949C33.9469 77.1243 33.5763 77.5743 33.2852 77.9449C32.2528 79.1891 31.3528 79.5067 30.0822 79.4538C29.341 79.4273 28.0704 79.0038 27.1704 78.3685C27.5674 78.2361 27.9116 78.1302 28.3616 77.7861C30.9292 75.8537 32.994 73.2596 34.1322 70.2419C33.3646 70.2948 32.1998 70.3478 31.591 70.2948C30.5587 70.2154 29.7381 69.6066 29.1822 69.0507C28.9439 68.8125 29.0498 68.3889 29.1822 68.0183C29.288 67.7007 29.5792 67.1448 29.8969 67.0918C30.1881 67.0389 30.5587 67.1183 30.8498 67.1448C31.5381 67.1977 34.1587 67.0654 35.3234 66.9066C35.6146 66.8801 36.197 66.6154 36.6205 66.6683C37.097 66.7213 37.7587 67.4624 37.997 67.9654C38.1823 68.336 38.2882 68.7066 38.2087 69.1036C38.0764 69.8184 37.7058 70.3213 37.494 70.9037C37.097 71.9625 36.594 72.9949 36.0646 73.9478C36.7528 74.3978 37.6264 74.9537 37.9176 75.1919ZM55.7879 64.6301C55.6291 64.3918 55.2585 64.2065 55.0997 63.9947C54.9673 63.8095 54.9144 63.5447 55.1261 63.2006C55.3379 62.8565 56.2909 62.2741 56.8203 62.0094C57.085 61.8771 57.4291 61.8506 57.8262 62.0624C58.2232 62.2741 59.1762 62.8565 59.5203 63.5977C59.785 64.1536 59.8644 64.9742 59.9174 67.0389C61.8498 67.0389 64.8145 67.0124 65.4763 66.986C66.641 66.9595 67.0116 66.8271 67.6204 66.8271C68.0969 66.8271 68.5204 67.1183 68.944 67.5154C69.5528 68.0713 69.5528 68.5742 68.9704 69.183C68.6263 69.5536 67.4881 70.2419 66.7733 70.2154C66.2439 70.1889 65.5027 70.1625 64.841 70.1889C63.9145 70.2154 59.7056 70.3478 58.8056 70.4007C57.9056 70.4537 57.2968 70.3742 56.9791 70.2419C56.6615 70.1095 56.1056 69.183 55.9997 68.6272C55.9203 68.0977 56.0262 67.7536 56.3438 67.4889C56.2909 66.8007 56.2379 66.1124 56.1585 65.6359C56.1056 65.2918 55.9467 64.8683 55.7879 64.6301ZM72.6234 72.5978C73.2322 73.1272 73.3381 73.3655 73.0734 74.1066C72.7293 75.0596 72.0411 75.0066 70.9557 74.9272C68.3881 74.7419 65.1851 74.8214 62.3527 74.9272C60.9233 74.9802 57.0056 75.1919 54.1997 75.3243C53.5908 75.3508 52.9555 75.2714 52.3467 75.1125C51.6849 74.9272 50.9702 74.1331 50.9702 73.789C50.9702 73.1272 52.3732 71.9625 53.3261 71.9096C55.1526 71.8037 58.0379 71.7772 62.2468 71.6713C65.1057 71.5919 67.1439 71.4066 68.2822 71.4066C69.0234 71.4066 69.7381 71.4331 70.4793 71.5654C71.2734 71.6978 72.0675 72.0948 72.6234 72.5978ZM62.8821 76.0125C65.9263 76.1714 69.1822 78.3949 68.9175 81.2008C68.6792 83.8479 65.3174 85.0127 62.4851 85.0127C58.9909 85.0127 55.3644 83.4509 55.3644 80.6714C55.3644 80.3273 55.285 79.9832 55.3644 79.6391C55.7614 77.9449 58.9644 76.5155 61.135 76.3302C61.585 76.039 62.3527 75.9861 62.8821 76.0125ZM65.3439 80.5655C65.3969 79.7185 63.9939 78.9508 62.3527 78.8185C61.188 78.8449 59.6262 79.4538 58.8321 80.5655C59.5997 81.7038 60.9497 81.8891 62.4321 81.8891C63.5968 81.8891 65.291 81.5979 65.3439 80.5655ZM95.9246 72.6507C96.507 73.1272 96.5864 73.4184 96.3217 74.1331C95.9511 75.1125 95.2893 74.9802 94.2305 74.9272C90.2599 74.7155 81.6833 74.9008 77.0509 75.1125C76.442 75.139 75.8067 75.0861 75.1979 74.8743C74.5626 74.6625 73.8479 73.8949 73.8479 73.5507C73.8479 72.889 75.2509 71.7243 76.2038 71.6978L81.4715 71.6184C81.4715 71.0625 81.4715 70.4801 81.445 69.9772C81.4186 69.3419 81.1274 69.1301 81.1009 68.733C81.0745 68.1772 81.6568 67.8066 82.5039 67.6213C83.0068 67.5154 83.8804 67.4889 84.3833 67.6477C84.7804 67.7801 85.1774 68.0183 85.151 68.5213C85.1245 68.8919 85.0716 69.0772 85.098 69.5536C85.1245 70.0036 85.1245 70.8242 85.1245 71.5654H85.151C86.1569 71.539 87.1098 71.5125 87.9834 71.4595C87.7451 69.7919 87.7187 67.3036 87.851 65.8477C85.8392 65.9007 83.1392 65.9801 82.0539 65.9271C81.3127 65.9007 80.9156 65.9536 80.1215 65.6359C79.3803 65.3448 78.798 64.9742 78.4803 64.5771C78.2685 64.3124 78.295 64.1536 78.348 63.9947C78.5332 63.4653 78.8774 62.9359 79.2215 62.5918C79.6715 62.1418 79.9097 62.2477 80.545 62.4859C80.8892 62.6183 81.4715 62.7771 82.2127 62.7771C82.9804 62.7771 87.3481 62.6447 87.6922 62.6183C88.354 62.5653 89.9422 62.3536 90.3393 62.3536C90.604 62.3536 91.054 62.433 91.3716 62.6712C91.9275 63.0683 92.3511 63.4653 92.4834 63.9683C92.5628 64.2595 92.5628 64.4712 92.4834 64.7359C92.4305 64.9477 92.1393 65.3977 92.0334 65.5565C91.8746 67.3036 91.5305 70.1095 91.2658 71.3537H91.5834C92.3246 71.3801 93.0393 71.3537 93.7805 71.539C94.5746 71.7243 95.2893 72.1478 95.9246 72.6507ZM92.8011 81.5714C93.5423 82.1009 93.807 82.9215 93.6217 83.5832C93.3834 84.4303 92.2981 85.0391 91.4511 85.0391C90.7363 85.0391 90.4187 84.8009 89.1746 84.0068C87.9834 83.2391 86.5539 82.2067 85.2304 81.7038C84.198 82.7626 83.0333 83.7685 81.7892 84.4303C80.3333 85.145 79.1156 85.2509 77.6597 84.6156C76.9185 84.2979 76.0715 83.8744 75.3832 83.3715C76.3626 83.345 76.9715 83.1067 77.9244 82.6567C79.645 81.7567 82.5039 79.4802 83.801 77.9184C84.1716 77.4684 84.2774 77.2567 84.1451 77.0979C83.9598 76.8596 83.9068 76.6214 84.3304 76.2243C84.9657 75.6155 85.3363 75.7478 86.3686 76.1714C87.0834 76.4625 87.7451 76.9655 87.904 77.3626C88.1422 77.9714 87.6392 78.8185 87.0834 79.5596C89.1746 79.7714 91.3187 80.5126 92.8011 81.5714ZM117.548 70.0301C118.131 70.5331 119.031 71.4331 119.031 71.936C119.031 72.7831 117.866 73.286 116.675 73.339C116.172 73.3655 115.484 73.3655 114.901 73.3655L114.822 74.239C114.663 75.6155 113.71 77.6008 112.439 78.8449C111.275 77.2831 110.983 75.2184 110.983 72.9419C110.983 71.5919 111.142 67.2771 111.222 65.6889C111.275 64.5506 111.169 64.3124 110.56 63.4124C110.163 62.83 110.11 62.6447 110.428 62.2741C110.613 62.0624 111.407 61.4535 111.592 61.3477C112.175 61.03 112.307 61.0035 112.836 61.3741C113.578 61.9035 113.948 62.2212 114.345 62.7506C114.901 63.4653 115.086 64.2595 115.06 65.5301L115.007 69.7389C115.325 69.686 115.669 69.6331 115.934 69.5536C116.648 69.3683 117.178 69.7125 117.548 70.0301ZM99.5216 74.239C101.427 72.9949 103.598 70.5066 104.736 68.6272C103.889 68.6536 102.195 68.733 101.533 68.6801C100.527 68.6007 99.8922 68.2301 99.0451 67.3301C98.6745 66.933 98.7804 66.7477 98.9128 66.483C99.0451 66.2183 99.8392 65.3712 100.104 65.1595C100.475 64.8683 100.686 65.0006 101.057 65.1859C101.427 65.3712 101.692 65.3712 102.275 65.3712C103.439 65.3712 105.636 65.2654 106.642 65.0271C107.542 64.8153 108.072 65.2124 108.786 66.1124C109.157 66.5889 109.263 67.1977 109.21 67.6213C109.183 67.8066 108.972 68.0977 108.892 68.336C107.781 70.8772 106.245 73.4184 104.233 75.2714C103.492 75.9596 102.46 76.3037 101.533 76.3037C99.9981 76.3037 98.1186 75.7478 97.1392 75.0861C97.9069 75.0331 98.7539 74.7419 99.5216 74.239ZM115.404 80.6714C115.775 81.0155 116.145 81.545 116.357 81.995C116.701 82.7362 116.516 83.0273 115.986 83.4773C114.742 84.5362 113.975 84.5362 112.334 84.5891C111.566 84.6156 108.31 84.5362 107.383 84.4832C105.954 84.4038 105.478 84.1921 104.525 83.1862C103.678 82.2861 102.725 81.2273 102.222 80.6714C101.851 80.2744 101.375 79.8244 100.925 79.6126C100.527 79.4273 100.263 79.1361 100.263 78.6596C100.263 78.0508 100.607 77.8126 101.401 77.5479C102.01 77.3361 102.751 77.1508 103.175 77.0979C103.757 77.0184 104.207 77.0979 104.525 77.4684C105.319 78.4214 106.086 79.4008 106.828 80.1155C107.436 80.7244 107.807 80.8038 108.522 80.8567C109.157 80.9097 110.983 80.9361 112.016 80.8832C112.572 80.8567 113.419 80.7508 113.922 80.5391C114.822 80.1685 114.928 80.2479 115.404 80.6714Z" fill="white"/>
</svg>
