<svg width="20" height="19" viewBox="0 0 20 19" fill="none" xmlns="http://www.w3.org/2000/svg">
<path d="M17.6323 18.9583L11.2885 12.6146C10.785 13.0173 10.2061 13.3362 9.55154 13.5712C8.89703 13.8061 8.20056 13.9236 7.46213 13.9236C5.63285 13.9236 4.08484 13.2899 2.8181 12.0225C1.55137 10.7551 0.917664 9.20706 0.916993 7.37845C0.916321 5.54984 1.55003 4.00183 2.8181 2.73442C4.08618 1.46702 5.63419 0.833313 7.46213 0.833313C9.29007 0.833313 10.8384 1.46702 12.1072 2.73442C13.3759 4.00183 14.0093 5.54984 14.0073 7.37845C14.0073 8.11688 13.8898 8.81335 13.6548 9.46786C13.4199 10.1224 13.101 10.7014 12.6982 11.2048L19.042 17.5486L17.6323 18.9583ZM7.46213 11.9097C8.72081 11.9097 9.79086 11.4693 10.6723 10.5886C11.5537 9.70785 11.9941 8.6378 11.9934 7.37845C11.9927 6.1191 11.5523 5.04939 10.6723 4.16932C9.7922 3.28925 8.72215 2.84854 7.46213 2.8472C6.20211 2.84586 5.1324 3.28657 4.253 4.16932C3.3736 5.05207 2.9329 6.12179 2.93088 7.37845C2.92887 8.63512 3.36957 9.70516 4.253 10.5886C5.13643 11.472 6.20614 11.9124 7.46213 11.9097Z" fill="#695739"/>
</svg>
