<svg width="393" height="1307" viewBox="0 0 393 1307" fill="none" xmlns="http://www.w3.org/2000/svg">
<path d="M383.5 692.5C382.342 692.5 381.317 692.814 380.596 693.295C379.871 693.778 379.5 694.391 379.5 695C379.5 695.609 379.871 696.222 380.596 696.705C381.317 697.186 382.342 697.5 383.5 697.5C384.658 697.5 385.683 697.186 386.404 696.705C387.129 696.222 387.5 695.609 387.5 695C387.5 694.391 387.129 693.778 386.404 693.295C385.683 692.814 384.658 692.5 383.5 692.5Z" stroke="#695739"/>
<path d="M356.5 703.5C355.342 703.5 354.317 703.814 353.596 704.295C352.871 704.778 352.5 705.391 352.5 706C352.5 706.609 352.871 707.222 353.596 707.705C354.317 708.186 355.342 708.5 356.5 708.5C357.658 708.5 358.683 708.186 359.404 707.705C360.129 707.222 360.5 706.609 360.5 706C360.5 705.391 360.129 704.778 359.404 704.295C358.683 703.814 357.658 703.5 356.5 703.5Z" stroke="#695739"/>
<path d="M383.5 706.5C384.658 706.5 385.683 706.814 386.404 707.295C387.129 707.778 387.5 708.391 387.5 709C387.5 709.609 387.129 710.222 386.404 710.705C385.683 711.186 384.658 711.5 383.5 711.5C382.342 711.5 381.317 711.186 380.596 710.705C379.871 710.222 379.5 709.609 379.5 709C379.5 708.391 379.871 707.778 380.596 707.295C381.317 706.814 382.342 706.5 383.5 706.5Z" stroke="#695739"/>
<path d="M146.5 355.5C147.658 355.5 148.683 355.814 149.404 356.295C150.129 356.778 150.5 357.391 150.5 358C150.5 358.609 150.129 359.222 149.404 359.705C148.683 360.186 147.658 360.5 146.5 360.5C145.342 360.5 144.317 360.186 143.596 359.705C142.871 359.222 142.5 358.609 142.5 358C142.5 357.391 142.871 356.778 143.596 356.295C144.317 355.814 145.342 355.5 146.5 355.5Z" stroke="#695739"/>
<path d="M158.5 369.5C159.658 369.5 160.683 369.814 161.404 370.295C162.129 370.778 162.5 371.391 162.5 372C162.5 372.609 162.129 373.222 161.404 373.705C160.683 374.186 159.658 374.5 158.5 374.5C157.342 374.5 156.317 374.186 155.596 373.705C154.871 373.222 154.5 372.609 154.5 372C154.5 371.391 154.871 370.778 155.596 370.295C156.317 369.814 157.342 369.5 158.5 369.5Z" stroke="#695739"/>
<path d="M173.5 366.5C174.658 366.5 175.683 366.814 176.404 367.295C177.129 367.778 177.5 368.391 177.5 369C177.5 369.609 177.129 370.222 176.404 370.705C175.683 371.186 174.658 371.5 173.5 371.5C172.342 371.5 171.317 371.186 170.596 370.705C169.871 370.222 169.5 369.609 169.5 369C169.5 368.391 169.871 367.778 170.596 367.295C171.317 366.814 172.342 366.5 173.5 366.5Z" stroke="#695739"/>
<path d="M82.8226 136.5C88.2673 128.105 94.3315 113.881 104 102.405M82.8226 136.5C86.4453 145.791 90.664 154.279 95.3419 162M82.8226 136.5C80.9263 137.666 78.281 140.702 79.4461 145C79.7807 146.234 80.4294 147.572 81.5002 149C78.1669 151 72.7002 156.4 77.5002 162C75.5002 164.833 73.5002 171.7 81.5002 176.5C77.3336 187 78.3003 210.2 115.5 219C117.167 223.543 123 230.505 133 222C135 225.273 140.6 230.255 147 224C150.334 230 162.1 240 182.5 232C185.932 233.37 192.015 233.977 188.898 225.442M188.898 225.442C177.36 224.39 164.673 220.934 152 214.772M188.898 225.442C204.265 217.408 217.954 207.809 230 197.343M95.3419 162C96.4802 163.878 97.6456 165.712 98.8361 167.5M95.3419 162C92.5465 166.8 96.5067 167.666 98.8361 167.5M95.3419 162C96.6468 160.712 98.0033 159.377 99.4072 158M235.5 39.9938C227.024 35.2093 219.332 31.7429 213.628 29.6587C197.59 34.276 183.157 40.4208 170.203 47.4998M235.5 39.9938C236.653 40.6447 237.821 41.3201 239 42.0196M235.5 39.9938C233.67 40.6944 231.415 41.8849 228.796 43.5M148 212.736C130.273 203.303 112.818 188.499 98.8361 167.5M148 212.736C149.333 213.445 150.666 214.124 152 214.772M148 212.736C147.834 214.094 148.4 216.401 152 214.772M148 212.736C149.273 211.597 150.608 210.391 152 209.124M274 69.29C263.12 57.9896 250.513 48.8495 239 42.0196M274 69.29C274.844 70.1667 275.678 71.0565 276.5 71.9592M274 69.29C277.2 67.9221 277 70.4995 276.5 71.9592M274 69.29C273.164 70.8388 272.282 72.4095 271.356 74M106.739 99.2062C105.806 100.278 104.893 101.345 104 102.405M106.739 99.2062C121.417 82.3333 140.989 64.1745 166.5 49.5709M106.739 99.2062C103.329 98.1713 103.493 100.908 104 102.405M106.739 99.2062C107.77 100.371 108.858 101.585 110 102.842M233.76 194C232.525 195.123 231.272 196.238 230 197.343M233.76 194C234.768 197.6 231.673 197.728 230 197.343M233.76 194C253.567 175.982 268.674 155.688 279.248 136.5M233.76 194C231.886 193.717 229.964 193.316 228 192.804M170.203 47.4998C168.955 48.1817 167.721 48.8722 166.5 49.5709M170.203 47.4998C167.165 46.2998 166.469 48.3805 166.5 49.5709M170.203 47.4998C170.787 48.3856 171.505 49.3879 172.363 50.5M281.134 133C287.493 120.918 292.031 109.366 294.792 99.2062C290.257 89.1244 283.846 80.0254 276.5 71.9592M281.134 133C280.522 134.162 279.894 135.329 279.248 136.5M281.134 133C282.642 136.2 280.505 136.667 279.248 136.5M281.134 133C279.949 132.332 278.775 131.665 277.612 131M98.8361 167.5C100.492 165.93 102.216 164.299 104 162.613M239 42.0196C237.679 42.4622 234.875 44.3931 230.911 47.4998M152 214.772C153.599 213.335 155.269 211.824 157 210.246M276.5 71.9592C276.266 72.9308 275.965 73.9452 275.6 75M104 102.405C105.432 104.042 106.962 105.766 108.583 107.562M230 197.343C228.235 197.296 226.399 197.094 224.5 196.749M166.5 49.5709C167.543 50.902 168.76 52.3843 170.146 54M279.248 136.5C278.328 136.041 277.412 135.58 276.5 135.115M99.4072 158L104 162.613M99.4072 158C102.295 155.167 105.382 152.154 108.634 149M104 162.613C106.409 160.336 108.928 157.96 111.539 155.5M108.634 149L111.539 155.5M108.634 149C111.453 146.264 114.396 143.423 117.437 140.5M111.539 155.5C117.361 150.016 123.644 144.12 130.193 138M117.437 140.5L121.5 145M117.437 140.5C119.146 138.857 120.887 137.189 122.654 135.5M122.654 135.5L130.193 138M122.654 135.5C127.746 130.633 133.062 125.591 138.5 120.482M130.193 138C134.565 133.914 139.056 129.728 143.606 125.5M138.5 120.482L143.606 125.5M138.5 120.482C141.633 117.538 144.806 114.571 148 111.603M143.606 125.5C146.285 123.011 148.984 120.507 151.692 118M148 111.603L151.692 118M148 111.603C149.651 110.068 151.308 108.533 152.968 107M151.692 118C154.124 115.749 156.563 113.495 159 111.247M159 111.247L152.968 107M159 111.247C160.334 110.017 161.668 108.788 163 107.562M152.968 107C154.976 105.145 156.988 103.294 159 101.451M159 101.451L163 107.562M159 101.451C160.627 99.961 162.253 98.4765 163.876 97M163 107.562C164.841 105.868 166.679 104.179 168.51 102.5M168.51 102.5L163.876 97M168.51 102.5C171.822 99.4617 175.111 96.4546 178.353 93.5M163.876 97C165.721 95.3215 167.563 93.6536 169.397 92M169.397 92L178.353 93.5M169.397 92C173.14 88.6263 176.851 85.3125 180.5 82.0917M178.353 93.5C179.914 92.0784 181.463 90.6689 183 89.274M183 89.274L180.5 82.0917M183 89.274C185.441 87.0586 187.848 84.8799 190.213 82.7475M180.5 82.0917C181.872 80.8807 183.235 79.6829 184.588 78.5M184.588 78.5L190.213 82.7475M184.588 78.5C188.983 74.6559 193.268 70.9691 197.384 67.5M190.213 82.7475C194.38 78.9901 198.414 75.3766 202.261 71.9592M202.261 71.9592L197.384 67.5M202.261 71.9592C204.402 70.0577 206.484 68.217 208.5 66.446M197.384 67.5C199.995 65.2994 202.539 63.1864 205 61.1764M205 61.1764L208.5 66.446M205 61.1764C207.238 59.3482 209.409 57.6053 211.5 55.9591M208.5 66.446C211.297 63.9883 213.965 61.6649 216.479 59.5M216.479 59.5L211.5 55.9591M216.479 59.5C218.767 57.5293 220.928 55.6899 222.942 54M211.5 55.9591C214.466 53.6239 217.274 51.4834 219.89 49.5709M219.89 49.5709L222.942 54M219.89 49.5709C223.182 47.1646 226.171 45.119 228.796 43.5M222.942 54C225.944 51.4811 228.621 49.2943 230.911 47.4998M230.911 47.4998L228.796 43.5M152 209.124L157 210.246M152 209.124C154.049 207.258 156.222 205.259 158.5 203.138M157 210.246C157.981 209.352 158.981 208.436 160 207.5M160 207.5L158.5 203.138M160 207.5C162.093 205.577 164.264 203.568 166.5 201.482M158.5 203.138C159.594 202.12 160.713 201.073 161.854 200M161.854 200L166.5 201.482M161.854 200C164.15 197.841 166.537 195.575 169 193.213M166.5 201.482C167.973 200.108 169.474 198.701 171 197.264M171 197.264L169 193.213M171 197.264C173.122 195.264 175.292 193.206 177.5 191.097M169 193.213C170.431 191.84 171.888 190.435 173.367 189M173.367 189L177.5 191.097M173.367 189C174.94 187.474 176.538 185.914 178.158 184.323M177.5 191.097C178.569 190.076 179.646 189.044 180.731 188M178.158 184.323L180.731 188M178.158 184.323C179.52 182.985 180.897 181.626 182.287 180.246M180.731 188C182.269 186.521 183.822 185.02 185.387 183.5M185.387 183.5L182.287 180.246M185.387 183.5C188.83 180.156 192.332 176.717 195.86 173.21M182.287 180.246C185.947 176.612 189.698 172.836 193.5 168.949M193.5 168.949L195.86 173.21M193.5 168.949C194.615 167.808 195.735 166.659 196.857 165.5M195.86 173.21C197.329 171.75 198.802 170.278 200.277 168.796M200.277 168.796L196.857 165.5M200.277 168.796C202.022 167.044 203.77 165.277 205.517 163.5M196.857 165.5C198.565 163.738 200.28 161.955 202 160.155M202 160.155L205.517 163.5M202 160.155C203.664 158.412 205.332 156.654 207 154.88M205.517 163.5C206.679 162.318 207.84 161.131 209 159.94M209 159.94L207 154.88M209 159.94C211.175 157.707 213.344 155.46 215.5 153.206M207 154.88C208.21 153.594 209.421 152.3 210.631 151M210.631 151L215.5 153.206M210.631 151C212.172 149.343 213.712 147.676 215.247 146M215.5 153.206C216.503 152.157 217.503 151.106 218.5 150.054M218.5 150.054L215.247 146M218.5 150.054C220.726 147.706 222.933 145.352 225.113 143M215.247 146C216.312 144.837 217.376 143.67 218.436 142.5M218.436 142.5L225.113 143M218.436 142.5C220.301 140.442 222.157 138.373 224 136.296M225.113 143C226.081 141.956 227.043 140.912 228 139.868M228 139.868L224 136.296M228 139.868C229.093 138.676 230.179 137.485 231.255 136.296M224 136.296C225.341 134.785 226.675 133.27 228 131.752M228 131.752L231.255 136.296M228 131.752C229.564 129.96 231.116 128.165 232.653 126.368M231.255 136.296C233.375 133.954 235.46 131.62 237.5 129.302M237.5 129.302L232.653 126.368M237.5 129.302C238.62 128.03 239.726 126.762 240.818 125.5M232.653 126.368C233.946 124.855 235.229 123.341 236.5 121.826M236.5 121.826L240.818 125.5M236.5 121.826C237.634 120.475 238.759 119.123 239.872 117.772M240.818 125.5C241.722 124.454 242.617 123.413 243.5 122.376M243.5 122.376L239.872 117.772M243.5 122.376C247.405 117.791 251.095 113.296 254.5 108.948M239.872 117.772C242.566 114.504 245.193 111.242 247.738 108M247.738 108L254.5 108.948M247.738 108C249.711 105.485 251.635 102.982 253.5 100.496M254.5 108.948C255.882 107.183 257.217 105.441 258.5 103.728M258.5 103.728L253.5 100.496M258.5 103.728C259.777 102.023 261.002 100.346 262.172 98.6995M253.5 100.496C255.939 97.2451 258.279 94.0246 260.5 90.848M257.5 94.5L262.172 98.6995M262.172 98.6995C263.678 96.5786 265.092 94.5095 266.403 92.5M266.403 92.5L260.5 90.848M266.403 92.5C267.405 90.964 268.346 89.4628 269.223 88M260.5 90.848C261.995 88.7107 263.436 86.5933 264.818 84.5M264.818 84.5L269.223 88M264.818 84.5C265.917 82.835 266.978 81.1852 268 79.5528M269.223 88C270.58 85.7371 271.783 83.5661 272.814 81.5M272.814 81.5L268 79.5528M272.814 81.5C273.963 79.197 274.899 77.0243 275.6 75M268 79.5528C269.173 77.6779 270.293 75.8259 271.356 74M271.356 74L275.6 75M108.583 107.562L110 102.842M108.583 107.562C109.448 108.521 110.339 109.501 111.254 110.5M110 102.842C111.374 104.355 112.826 105.932 114.349 107.562M114.349 107.562L111.254 110.5M114.349 107.562C115.211 108.484 116.094 109.423 117 110.378M111.254 110.5C112.257 111.595 113.29 112.713 114.349 113.851M114.349 113.851L117 110.378M114.349 113.851C115.375 114.951 116.425 116.07 117.5 117.206M117 110.378C118.276 111.723 119.595 113.098 120.953 114.5M120.953 114.5L117.5 117.206M120.953 114.5C121.817 115.392 122.698 116.294 123.593 117.206M117.5 117.206C120.041 119.891 122.716 122.666 125.502 125.5M120.953 121L123.593 117.206M123.593 117.206C125.296 118.94 127.055 120.707 128.862 122.5M125.502 125.5L128.862 122.5M125.502 125.5C129.985 130.061 134.756 134.772 139.722 139.5M128.862 122.5C132.855 126.46 137.088 130.544 141.5 134.659M139.722 139.5L141.5 134.659M139.722 139.5C141.004 140.721 142.299 141.942 143.606 143.163M141.5 134.659C143.405 136.436 145.344 138.218 147.31 140M147.31 140L143.606 143.163M147.31 140C148.756 141.31 150.218 142.619 151.692 143.925M143.606 143.163C145.516 144.947 147.45 146.728 149.403 148.5M149.403 148.5L151.692 143.925M149.403 148.5C150.585 149.571 151.773 150.639 152.968 151.702M151.692 143.925C153.423 145.456 155.171 146.983 156.935 148.5M156.935 148.5L152.968 151.702M156.935 148.5C158.282 149.658 159.637 150.811 161 151.956M152.968 151.702C154.635 153.185 156.313 154.657 158 156.116M158 156.116L161 151.956M158 156.116C159.328 157.264 160.662 158.403 162 159.531M161 151.956C162.821 153.486 164.656 155.002 166.5 156.499M162 159.531L166.5 156.499M162 159.531C163.827 161.072 165.662 162.593 167.5 164.087M166.5 156.499C167.663 157.443 168.83 158.379 170 159.307M170 159.307L167.5 164.087M170 159.307C171.164 160.23 172.331 161.144 173.5 162.048M167.5 164.087C168.499 164.9 169.499 165.704 170.5 166.5M170.5 166.5L173.5 162.048M170.5 166.5C172.833 168.356 175.169 170.166 177.5 171.918M173.5 162.048C176.315 164.226 179.142 166.346 181.97 168.39M177.5 171.918L181.97 168.39M177.5 171.918C183.408 176.359 189.282 180.429 195 183.95M181.97 168.39C182.814 169 183.657 169.603 184.5 170.199M184.5 170.199L182.287 176M184.5 170.199C189.243 173.552 193.978 176.679 198.649 179.5M195 183.95L198.649 179.5M195 183.95C196.736 185.019 198.457 186.037 200.16 187M198.649 179.5C200.106 180.38 201.557 181.23 203 182.047M203 182.047L200.16 187M203 182.047C205.572 183.504 208.118 184.859 210.631 186.097M200.16 187C201.719 187.881 203.263 188.716 204.79 189.5M204.79 189.5L210.631 186.097M204.79 189.5C207.767 191.029 210.677 192.367 213.5 193.484M210.631 186.097C211.761 186.654 212.884 187.187 214 187.696M214 187.696L213.5 193.484M214 187.696C216.863 189 219.674 190.142 222.418 191.097M213.5 193.484C214.922 194.046 216.322 194.553 217.697 195M217.697 195L222.418 191.097M217.697 195C220.04 195.762 222.312 196.351 224.5 196.749M222.418 191.097C224.312 191.757 226.174 192.328 228 192.804M224.5 196.749L228 192.804M276.5 135.115L277.612 131M276.5 135.115C273.966 133.825 271.466 132.513 269 131.183M277.612 131C275.714 129.915 273.843 128.834 272 127.757M272 127.757L269 131.183M272 127.757C269.556 126.33 267.161 124.911 264.813 123.5M269 131.183C267.24 130.234 265.498 129.275 263.774 128.308M263.774 128.308L264.813 123.5M263.774 128.308C261.655 127.12 259.564 125.919 257.5 124.708M264.813 123.5C263.269 122.572 261.745 121.648 260.242 120.727M260.242 120.727L257.5 124.708M260.242 120.727C258.12 119.429 256.04 118.138 254 116.856M257.5 124.708C256.182 123.935 254.875 123.157 253.58 122.376M253.58 122.376L254 116.856M253.58 122.376C248.364 119.229 243.334 116.022 238.5 112.788M254 116.856C249.285 113.893 244.787 110.976 240.5 108.115M238.5 112.788L240.5 108.115M238.5 112.788C236.591 111.511 234.713 110.231 232.866 108.948M240.5 108.115C238.973 107.096 237.473 106.084 236 105.079M236 105.079L232.866 108.948M236 105.079C233.596 103.44 231.263 101.82 229 100.222M232.866 108.948C231.561 108.042 230.273 107.135 229 106.229M229 106.229L229 100.222M229 106.229C226.188 104.225 223.452 102.22 220.796 100.222M229 100.222C227.468 99.1404 225.968 98.0684 224.5 97.0066M224.5 97.0066L220.796 100.222M224.5 97.0066C222.533 95.5842 220.623 94.1801 218.768 92.7955M220.796 100.222C219.684 99.3852 218.585 98.5495 217.5 97.7156M217.5 97.7156L218.768 92.7955M217.5 97.7156C215.449 96.1392 213.449 94.5692 211.5 93.0096M218.768 92.7955C217.176 91.607 215.625 90.4329 214.115 89.274M214.115 89.274L211.5 93.0096M214.115 89.274C212.452 87.9972 210.837 86.7389 209.272 85.5M211.5 93.0096C209.794 91.6443 208.127 90.2869 206.5 88.9401M206.5 88.9401L209.272 85.5M206.5 88.9401C204.9 87.6156 203.339 86.3014 201.817 85M209.272 85.5C207.338 83.9697 205.478 82.469 203.692 81M203.692 81L201.817 85M203.692 81C198.244 76.5207 193.477 72.3356 189.354 68.5M201.817 85C199.987 83.4349 198.215 81.8882 196.5 80.3645M196.5 80.3645L201 79M196.5 80.3645C193.484 77.684 190.648 75.0744 188 72.5595M188 72.5595L189.354 68.5M188 72.5595C185.799 70.4696 183.728 68.4452 181.79 66.5M189.354 68.5C188 67.2406 186.716 66.0188 185.5 64.8368M185.5 64.8368L181.79 66.5M185.5 64.8368C183.274 62.6724 181.276 60.6409 179.5 58.7544M181.79 66.5C180.09 64.7938 178.492 63.1486 177 61.5736M177 61.5736L179.5 58.7544M177 61.5736C175.374 59.8575 173.873 58.2247 172.5 56.6873M179.5 58.7544C178.219 57.394 177.053 56.109 176 54.9038M176 54.9038L172.5 56.6873M176 54.9038C174.588 53.2889 173.378 51.8173 172.363 50.5M172.5 56.6873C171.668 55.7556 170.883 54.859 170.146 54M170.146 54L172.363 50.5" stroke="#695739"/>
<path d="M99.5 198.5C100.658 198.5 101.683 198.814 102.404 199.295C103.129 199.778 103.5 200.391 103.5 201C103.5 201.609 103.129 202.222 102.404 202.705C101.683 203.186 100.658 203.5 99.5 203.5C98.3424 203.5 97.3171 203.186 96.5957 202.705C95.8708 202.222 95.5 201.609 95.5 201C95.5 200.391 95.8708 199.778 96.5957 199.295C97.3171 198.814 98.3424 198.5 99.5 198.5Z" stroke="#695739"/>
<path d="M146.5 230.5C147.658 230.5 148.683 230.814 149.404 231.295C150.129 231.778 150.5 232.391 150.5 233C150.5 233.609 150.129 234.222 149.404 234.705C148.683 235.186 147.658 235.5 146.5 235.5C145.342 235.5 144.317 235.186 143.596 234.705C142.871 234.222 142.5 233.609 142.5 233C142.5 232.391 142.871 231.778 143.596 231.295C144.317 230.814 145.342 230.5 146.5 230.5Z" stroke="#695739"/>
<path d="M41.5 164.5C42.6576 164.5 43.6829 164.814 44.4043 165.295C45.1292 165.778 45.5 166.391 45.5 167C45.5 167.609 45.1292 168.222 44.4043 168.705C43.6829 169.186 42.6576 169.5 41.5 169.5C40.3424 169.5 39.3171 169.186 38.5957 168.705C37.8708 168.222 37.5 167.609 37.5 167C37.5 166.391 37.8708 165.778 38.5957 165.295C39.3171 164.814 40.3424 164.5 41.5 164.5Z" stroke="#695739"/>
<path d="M173.5 241.5C174.658 241.5 175.683 241.814 176.404 242.295C177.129 242.778 177.5 243.391 177.5 244C177.5 244.609 177.129 245.222 176.404 245.705C175.683 246.186 174.658 246.5 173.5 246.5C172.342 246.5 171.317 246.186 170.596 245.705C169.871 245.222 169.5 244.609 169.5 244C169.5 243.391 169.871 242.778 170.596 242.295C171.317 241.814 172.342 241.5 173.5 241.5Z" stroke="#695739"/>
<path d="M68.5 175.5C69.6576 175.5 70.6829 175.814 71.4043 176.295C72.1292 176.778 72.5 177.391 72.5 178C72.5 178.609 72.1292 179.222 71.4043 179.705C70.6829 180.186 69.6576 180.5 68.5 180.5C67.3424 180.5 66.3171 180.186 65.5957 179.705C64.8708 179.222 64.5 178.609 64.5 178C64.5 177.391 64.8708 176.778 65.5957 176.295C66.3171 175.814 67.3424 175.5 68.5 175.5Z" stroke="#695739"/>
<path d="M244.5 214.5C245.658 214.5 246.683 214.814 247.404 215.295C248.129 215.778 248.5 216.391 248.5 217C248.5 217.609 248.129 218.222 247.404 218.705C246.683 219.186 245.658 219.5 244.5 219.5C243.342 219.5 242.317 219.186 241.596 218.705C240.871 218.222 240.5 217.609 240.5 217C240.5 216.391 240.871 215.778 241.596 215.295C242.317 214.814 243.342 214.5 244.5 214.5Z" stroke="#695739"/>
<path d="M55.5 186.5C56.6576 186.5 57.6829 186.814 58.4043 187.295C59.1292 187.778 59.5 188.391 59.5 189C59.5 189.609 59.1292 190.222 58.4043 190.705C57.6829 191.186 56.6576 191.5 55.5 191.5C54.3424 191.5 53.3171 191.186 52.5957 190.705C51.8708 190.222 51.5 189.609 51.5 189C51.5 188.391 51.8708 187.778 52.5957 187.295C53.3171 186.814 54.3424 186.5 55.5 186.5Z" stroke="#695739"/>
<path d="M340 786.111C367.5 763.778 423.1 719.111 425.5 719.111M340 786.111L425.5 733.111V719.111M340 786.111L331.941 778.611M425.5 719.111C428.5 719.111 417.5 586.111 268 719.111L270.5 721.438M270.5 721.438L331.941 778.611M270.5 721.438C281.668 711.222 295.868 699.86 311 690.104M270.5 721.438L291.5 706.111C291.9 702.911 294.667 702.778 296 703.111C300.8 695.511 307 695.278 309.5 696.111C309.667 696.778 309.9 697.511 309.5 695.111C309.1 692.711 310.333 690.773 311 690.104M331.941 778.611L415 713.611C413.302 699.52 409.643 689.067 404.514 681.611M311 690.104C312.5 689.144 316.5 687.097 319.5 690.104C323.333 684.773 334.6 675.411 349 680.611C350.5 678.778 354.3 676.011 357.5 679.611C359.333 676.278 365.6 671.211 376 677.611C377.333 676.111 380.4 674.011 382 677.611C385.51 675.611 394.926 673.611 404.514 681.611M311 690.104C345.731 667.712 385.37 653.783 404.514 681.611M319.5 707.611C320.5 705.611 323.7 702.511 328.5 706.111C329 704.778 330.7 702.911 333.5 706.111M341 745.111C343.667 741.778 350.7 736.511 357.5 742.111C358.833 740.611 362.4 738.511 366 742.111" stroke="#695739"/>
<path d="M399.5 1015C435.675 1015 465 1044.33 465 1080.5C465 1085.46 464.446 1090.29 463.401 1094.94C467.009 1094.32 470.717 1094 474.5 1094C510.675 1094 540 1123.33 540 1159.5C540 1192.87 515.039 1220.42 482.767 1224.48C484.223 1229.91 485 1235.61 485 1241.5C485 1277.67 455.675 1307 419.5 1307C403.75 1307 389.298 1301.44 378 1292.18C366.702 1301.44 352.25 1307 336.5 1307C304.949 1307 278.61 1284.69 272.392 1254.99C236.728 1254.4 208 1225.3 208 1189.5C208 1170.41 216.17 1153.22 229.205 1141.25C227.781 1137.44 227 1133.31 227 1129C227 1110.48 241.386 1095.32 259.593 1094.08C266.16 1064.84 292.278 1043 323.5 1043C330.55 1043 337.341 1044.11 343.704 1046.17C355.236 1027.47 375.912 1015 399.5 1015Z" fill="#8FC4A4"/>
<circle cx="276" cy="1211" r="6" fill="white"/>
<circle cx="355" cy="1248" r="6" fill="white"/>
<circle cx="372" cy="1098" r="4" fill="white"/>
<circle cx="338" cy="1144" r="4" fill="white"/>
<circle cx="276" cy="1131" r="4" fill="white"/>
<circle cx="318" cy="1073" r="4" fill="white"/>
<path d="M342.291 1046.48C343.091 1023.28 372.958 1013.14 387.791 1010.98C396.191 1003.78 401.291 1007.98 402.791 1010.98L398.791 1281.98C377.991 1300.38 359.124 1289.64 352.291 1281.98C248.691 1320.78 212.458 1271.14 207.291 1241.48C168.891 1203.08 207.291 1161.81 231.291 1145.98C214.091 1111.98 240.124 1099.48 255.291 1097.48C251.691 1057.08 311.791 1046.64 342.291 1046.48Z" stroke="black"/>
<path d="M18.9404 416C-4.47397 416 -23.4551 434.981 -23.4551 458.396C-23.4551 461.607 -23.0947 464.735 -22.418 467.742C-24.7539 467.343 -27.1548 467.134 -29.6045 467.134C-53.0189 467.134 -72 486.115 -72 509.529C-71.9998 531.132 -55.8413 548.961 -34.9512 551.59C-35.8938 555.103 -36.4004 558.794 -36.4004 562.604C-36.4004 586.019 -17.4193 605 5.99512 605C16.19 605 25.5434 601.4 32.8564 595.404C40.1695 601.4 49.523 605 59.7178 605C80.14 605 97.1879 590.56 101.212 571.333C124.295 570.95 142.89 552.122 142.891 528.947C142.891 516.589 137.602 505.466 129.165 497.717C130.087 495.249 130.593 492.577 130.593 489.787C130.593 477.799 121.28 467.986 109.495 467.187C105.244 448.262 88.3397 434.123 68.1318 434.123C63.5682 434.123 59.1738 434.847 55.0547 436.182C47.5906 424.073 34.209 416 18.9404 416Z" fill="#8FC4A4"/>
<path d="M51 438.192C29 404.192 1.83333 416.692 -9 427.192L-5 599.692C13.8 606.892 26.5 596.692 30.5 590.692C64.9 629.892 93.1667 595.359 103 573.192C166.6 551.992 144.167 512.692 125 495.692C134.6 484.092 117.667 467.526 108 460.692C88.4 421.092 61.8333 429.192 51 438.192Z" stroke="#695739"/>
<circle cx="112" cy="524" r="4" fill="white"/>
<circle cx="78" cy="570" r="4" fill="white"/>
<circle cx="16" cy="557" r="4" fill="white"/>
<circle cx="58" cy="499" r="4" fill="white"/>
<circle cx="31" cy="444" r="4" fill="white"/>
<path d="M246.5 453.5C247.658 453.5 248.683 453.814 249.404 454.295C250.129 454.778 250.5 455.391 250.5 456C250.5 456.609 250.129 457.222 249.404 457.705C248.683 458.186 247.658 458.5 246.5 458.5C245.342 458.5 244.317 458.186 243.596 457.705C242.871 457.222 242.5 456.609 242.5 456C242.5 455.391 242.871 454.778 243.596 454.295C244.317 453.814 245.342 453.5 246.5 453.5Z" stroke="#695739"/>
<path d="M273.5 464.5C274.658 464.5 275.683 464.814 276.404 465.295C277.129 465.778 277.5 466.391 277.5 467C277.5 467.609 277.129 468.222 276.404 468.705C275.683 469.186 274.658 469.5 273.5 469.5C272.342 469.5 271.317 469.186 270.596 468.705C269.871 468.222 269.5 467.609 269.5 467C269.5 466.391 269.871 465.778 270.596 465.295C271.317 464.814 272.342 464.5 273.5 464.5Z" stroke="#695739"/>
<path d="M192.5 669.5C191.342 669.5 190.317 669.814 189.596 670.295C188.871 670.778 188.5 671.391 188.5 672C188.5 672.609 188.871 673.222 189.596 673.705C190.317 674.186 191.342 674.5 192.5 674.5C193.658 674.5 194.683 674.186 195.404 673.705C196.129 673.222 196.5 672.609 196.5 672C196.5 671.391 196.129 670.778 195.404 670.295C194.683 669.814 193.658 669.5 192.5 669.5Z" stroke="#695739"/>
<path d="M165.5 680.5C164.342 680.5 163.317 680.814 162.596 681.295C161.871 681.778 161.5 682.391 161.5 683C161.5 683.609 161.871 684.222 162.596 684.705C163.317 685.186 164.342 685.5 165.5 685.5C166.658 685.5 167.683 685.186 168.404 684.705C169.129 684.222 169.5 683.609 169.5 683C169.5 682.391 169.129 681.778 168.404 681.295C167.683 680.814 166.658 680.5 165.5 680.5Z" stroke="#695739"/>
<path d="M262.5 953.5C261.342 953.5 260.317 953.814 259.596 954.295C258.871 954.778 258.5 955.391 258.5 956C258.5 956.609 258.871 957.222 259.596 957.705C260.317 958.186 261.342 958.5 262.5 958.5C263.658 958.5 264.683 958.186 265.404 957.705C266.129 957.222 266.5 956.609 266.5 956C266.5 955.391 266.129 954.778 265.404 954.295C264.683 953.814 263.658 953.5 262.5 953.5Z" stroke="#695739"/>
<path d="M235.5 964.5C234.342 964.5 233.317 964.814 232.596 965.295C231.871 965.778 231.5 966.391 231.5 967C231.5 967.609 231.871 968.222 232.596 968.705C233.317 969.186 234.342 969.5 235.5 969.5C236.658 969.5 237.683 969.186 238.404 968.705C239.129 968.222 239.5 967.609 239.5 967C239.5 966.391 239.129 965.778 238.404 965.295C237.683 964.814 236.658 964.5 235.5 964.5Z" stroke="#695739"/>
<path d="M290.5 565.5C289.342 565.5 288.317 565.814 287.596 566.295C286.871 566.778 286.5 567.391 286.5 568C286.5 568.609 286.871 569.222 287.596 569.705C288.317 570.186 289.342 570.5 290.5 570.5C291.658 570.5 292.683 570.186 293.404 569.705C294.129 569.222 294.5 568.609 294.5 568C294.5 567.391 294.129 566.778 293.404 566.295C292.683 565.814 291.658 565.5 290.5 565.5Z" stroke="#695739"/>
<path d="M263.5 576.5C262.342 576.5 261.317 576.814 260.596 577.295C259.871 577.778 259.5 578.391 259.5 579C259.5 579.609 259.871 580.222 260.596 580.705C261.317 581.186 262.342 581.5 263.5 581.5C264.658 581.5 265.683 581.186 266.404 580.705C267.129 580.222 267.5 579.609 267.5 579C267.5 578.391 267.129 577.778 266.404 577.295C265.683 576.814 264.658 576.5 263.5 576.5Z" stroke="#695739"/>
<path d="M290.5 579.5C291.658 579.5 292.683 579.814 293.404 580.295C294.129 580.778 294.5 581.391 294.5 582C294.5 582.609 294.129 583.222 293.404 583.705C292.683 584.186 291.658 584.5 290.5 584.5C289.342 584.5 288.317 584.186 287.596 583.705C286.871 583.222 286.5 582.609 286.5 582C286.5 581.391 286.871 580.778 287.596 580.295C288.317 579.814 289.342 579.5 290.5 579.5Z" stroke="#695739"/>
<path d="M309.5 760.5C310.658 760.5 311.683 760.814 312.404 761.295C313.129 761.778 313.5 762.391 313.5 763C313.5 763.609 313.129 764.222 312.404 764.705C311.683 765.186 310.658 765.5 309.5 765.5C308.342 765.5 307.317 765.186 306.596 764.705C305.871 764.222 305.5 763.609 305.5 763C305.5 762.391 305.871 761.778 306.596 761.295C307.317 760.814 308.342 760.5 309.5 760.5Z" stroke="#695739"/>
<path d="M282.5 763.5C281.342 763.5 280.317 763.814 279.596 764.295C278.871 764.778 278.5 765.391 278.5 766C278.5 766.609 278.871 767.222 279.596 767.705C280.317 768.186 281.342 768.5 282.5 768.5C283.658 768.5 284.683 768.186 285.404 767.705C286.129 767.222 286.5 766.609 286.5 766C286.5 765.391 286.129 764.778 285.404 764.295C284.683 763.814 283.658 763.5 282.5 763.5Z" stroke="#695739"/>
<path d="M138.5 777.5C139.658 777.5 140.683 777.814 141.404 778.295C142.129 778.778 142.5 779.391 142.5 780C142.5 780.609 142.129 781.222 141.404 781.705C140.683 782.186 139.658 782.5 138.5 782.5C137.342 782.5 136.317 782.186 135.596 781.705C134.871 781.222 134.5 780.609 134.5 780C134.5 779.391 134.871 778.778 135.596 778.295C136.317 777.814 137.342 777.5 138.5 777.5Z" stroke="#695739"/>
<path d="M145.5 1049.5C146.658 1049.5 147.683 1049.81 148.404 1050.29C149.129 1050.78 149.5 1051.39 149.5 1052C149.5 1052.61 149.129 1053.22 148.404 1053.71C147.683 1054.19 146.658 1054.5 145.5 1054.5C144.342 1054.5 143.317 1054.19 142.596 1053.71C141.871 1053.22 141.5 1052.61 141.5 1052C141.5 1051.39 141.871 1050.78 142.596 1050.29C143.317 1049.81 144.342 1049.5 145.5 1049.5Z" stroke="#695739"/>
<path d="M228.5 864.5C229.658 864.5 230.683 864.814 231.404 865.295C232.129 865.778 232.5 866.391 232.5 867C232.5 867.609 232.129 868.222 231.404 868.705C230.683 869.186 229.658 869.5 228.5 869.5C227.342 869.5 226.317 869.186 225.596 868.705C224.871 868.222 224.5 867.609 224.5 867C224.5 866.391 224.871 865.778 225.596 865.295C226.317 864.814 227.342 864.5 228.5 864.5Z" stroke="#695739"/>
</svg>
