<svg width="31" height="30" viewBox="0 0 31 30" fill="none" xmlns="http://www.w3.org/2000/svg">
<path d="M14.3619 1.08676C14.8532 0.185911 16.1468 0.18591 16.6381 1.08676L20.6571 8.45614C20.8435 8.79801 21.1738 9.03796 21.5565 9.10963L29.8072 10.6547C30.8158 10.8436 31.2155 12.0738 30.5105 12.8194L24.7438 18.919C24.4763 19.202 24.3501 19.5902 24.4002 19.9764L25.4804 28.3006C25.6124 29.3182 24.5659 30.0785 23.639 29.6385L16.0559 26.0389C15.7041 25.8719 15.2959 25.8719 14.9441 26.0389L7.36103 29.6385C6.43406 30.0785 5.38758 29.3182 5.51962 28.3006L6.59977 19.9764C6.64988 19.5902 6.52373 19.202 6.25621 18.919L0.48946 12.8194C-0.215481 12.0738 0.184237 10.8436 1.19281 10.6547L9.44346 9.10963C9.82622 9.03796 10.1565 8.79801 10.3429 8.45614L14.3619 1.08676Z" fill="#FFF098"/>
</svg>
