<svg width="16" height="16" viewBox="0 0 16 16" fill="none" xmlns="http://www.w3.org/2000/svg">
<path opacity="0.1" d="M7.98926 0C8.86106 -7.62156e-08 9.85446 0.546678 9.85449 3.07129C9.85449 3.2371 9.84812 3.3996 9.83887 3.55859C9.9525 3.42967 10.0723 3.30076 10.1992 3.17383C11.9841 1.38906 13.073 1.70501 13.6895 2.32129C14.3059 2.93776 14.6104 4.01553 12.8252 5.80078C12.6999 5.92607 12.5729 6.04379 12.4463 6.15625C12.6035 6.14764 12.7644 6.14258 12.9287 6.14258C15.4533 6.14261 16 7.12038 16 7.99219C15.9999 8.86395 15.4532 9.85739 12.9287 9.85742C12.7643 9.85742 12.603 9.85188 12.4453 9.84277C12.5722 9.95551 12.6996 10.0736 12.8252 10.1992C14.6104 11.9845 14.3059 13.0622 13.6895 13.6787C13.073 14.295 11.9841 14.6109 10.1992 12.8262C10.0772 12.7042 9.96225 12.5799 9.85254 12.4561C9.85383 12.5177 9.85742 12.5799 9.85742 12.6426C9.85742 15.1673 8.87963 15.7139 8.00781 15.7139C7.13609 15.7137 6.14355 15.1669 6.14355 12.6426C6.14356 12.5779 6.14699 12.5138 6.14844 12.4502C6.03741 12.5757 5.92151 12.7025 5.79785 12.8262C4.0129 14.6109 2.92405 14.2951 2.30762 13.6787C1.69115 13.0622 1.38662 11.9845 3.17188 10.1992C3.29715 10.0739 3.42324 9.95522 3.5498 9.84277C3.39377 9.85124 3.23421 9.85742 3.07129 9.85742C0.546678 9.85739 3.81078e-08 8.87962 0 8.00781C6.8294e-05 7.13605 0.546836 6.14261 3.07129 6.14258C3.23537 6.14258 3.39631 6.14718 3.55371 6.15625C3.42614 6.04301 3.29814 5.92411 3.17188 5.79785C1.3868 4.01269 1.69117 2.93481 2.30762 2.31836C2.92412 1.70208 4.01295 1.38705 5.79785 3.17188C5.92312 3.29715 6.04101 3.42455 6.15332 3.55176C6.14478 3.39513 6.13965 3.23487 6.13965 3.07129C6.13968 0.546703 7.11746 1.08822e-05 7.98926 0Z" fill="#695739"/>
</svg>
