<svg width="66" height="59" viewBox="0 0 66 59" fill="none" xmlns="http://www.w3.org/2000/svg">
<path d="M0.439453 56L3.54492 47.5156H4.6582L7.76367 56H6.65039L5.80078 53.6094H2.39062L1.54102 56H0.439453ZM5.47852 52.6836L4.13086 48.8867H4.06055L2.71289 52.6836H5.47852ZM9.9668 56H8.91211V47.5156H9.9668V56ZM23.877 55.6602H14.3379V54.875H18.6152V52.4727H15.2051V51.7344H16.834V48.3125H15.1816V47.5508H22.9629V48.3125H21.3105V51.7344H22.9395V52.4727H19.5176V54.875H23.877V55.6602ZM20.4082 51.7344V48.3125H17.748V51.7344H20.4082ZM33.1465 52.918H25.9395V47.4336H33.0293V48.207H26.877V49.7539H32.8066V50.4922H26.877V52.168H33.1465V52.918ZM34.248 55.5898H24.709V54.8281H34.248V55.5898ZM43.6699 47.5273H42.0645V49.5664H43.6348V50.2695H40.2715V51.2891H44.5723V52.0273H35.0801V51.2891H39.3574V50.2695H36.0059V49.5664H37.5762V47.5273H35.9707V46.8125H43.6699V47.5273ZM43.3535 55.0977H37.166V56.1289H43.6699V56.832H36.252V54.4297H42.4512V53.5391H36.2285V52.8594H43.3535V55.0977ZM41.1504 49.5664V47.5273H38.4902V49.5664H41.1504ZM54.0527 56.9727H53.1387V46.5312H54.0527V56.9727ZM50.8887 51.207H46.998V53.668C47.9316 53.668 48.7988 53.6406 49.5996 53.5859C50.4043 53.5312 51.248 53.4336 52.1309 53.293L52.2246 54.0664C51.3223 54.2109 50.459 54.3105 49.6348 54.3652C48.8105 54.416 47.9082 54.4414 46.9277 54.4414H46.0605V50.457H49.9629V48.2656H46.0371V47.5039H50.8887V51.207ZM60.5684 47.2109C61.3027 47.2148 61.959 47.3301 62.5371 47.5566C63.1152 47.7832 63.5664 48.1035 63.8906 48.5176C64.2148 48.9277 64.377 49.4023 64.377 49.9414C64.377 50.4492 64.2344 50.9004 63.9492 51.2949C63.668 51.6895 63.2734 52.0039 62.7656 52.2383C62.2578 52.4727 61.6738 52.6113 61.0137 52.6543V54.8398H65.3613V55.6133H55.8223V54.8398H60.1113V52.6543C59.4551 52.6113 58.873 52.4727 58.3652 52.2383C57.8574 52 57.4629 51.6855 57.1816 51.2949C56.9004 50.9004 56.7598 50.4492 56.7598 49.9414C56.7598 49.4023 56.9219 48.9277 57.2461 48.5176C57.5703 48.1035 58.0215 47.7832 58.5996 47.5566C59.1777 47.3301 59.834 47.2148 60.5684 47.2109ZM60.5684 47.9727C60.0098 47.9727 59.5078 48.0566 59.0625 48.2246C58.6211 48.3887 58.2754 48.6211 58.0254 48.9219C57.7754 49.2188 57.6504 49.5586 57.6504 49.9414C57.6504 50.3359 57.7754 50.6836 58.0254 50.9844C58.2754 51.2852 58.6211 51.5176 59.0625 51.6816C59.5039 51.8457 60.0059 51.9297 60.5684 51.9336C61.1309 51.9297 61.6328 51.8457 62.0742 51.6816C62.5156 51.5176 62.8613 51.2852 63.1113 50.9844C63.3613 50.6836 63.4863 50.3359 63.4863 49.9414C63.4863 49.5586 63.3613 49.2188 63.1113 48.9219C62.8613 48.6211 62.5137 48.3887 62.0684 48.2246C61.627 48.0566 61.127 47.9727 60.5684 47.9727Z" fill="#695739"/>
<path d="M44.9336 2.95096C45.2575 2.00305 46.5673 1.97434 46.9513 2.86484L46.9838 2.95151L47.421 4.22984C47.5211 4.52301 47.683 4.79128 47.8957 5.01657C48.1084 5.24185 48.3669 5.41891 48.6538 5.5358L48.7713 5.57967L50.0497 6.01626C50.9976 6.34017 51.0263 7.64992 50.1363 8.03396L50.0497 8.06646L48.7713 8.50359C48.4781 8.6037 48.2097 8.76555 47.9843 8.97823C47.7589 9.1909 47.5818 9.44945 47.4648 9.73642L47.421 9.85342L46.9844 11.1323C46.6605 12.0802 45.3507 12.1089 44.9672 11.219L44.9336 11.1323L44.497 9.85396C44.3969 9.5607 44.2351 9.29232 44.0224 9.06693C43.8097 8.84155 43.5512 8.66441 43.2642 8.54746L43.1472 8.50359L41.8689 8.06701C40.9204 7.74309 40.8917 6.43334 41.7822 6.04984L41.8689 6.01626L43.1472 5.57967C43.4404 5.4795 43.7087 5.31761 43.9339 5.10494C44.1592 4.89227 44.3363 4.63376 44.4532 4.34684L44.497 4.22984L44.9336 2.95096ZM50.2923 1.0833C50.3937 1.0833 50.493 1.11172 50.579 1.16534C50.6649 1.21897 50.7342 1.29563 50.7788 1.38663L50.8047 1.45001L50.9943 2.00576L51.5506 2.19534C51.6522 2.22984 51.7412 2.29371 51.8064 2.37886C51.8716 2.46401 51.9101 2.56661 51.9169 2.67364C51.9238 2.78068 51.8987 2.88734 51.8449 2.9801C51.791 3.07286 51.7109 3.14756 51.6145 3.19471L51.5506 3.22071L50.9949 3.4103L50.8053 3.96659C50.7707 4.06811 50.7068 4.15709 50.6216 4.22225C50.5364 4.28741 50.4338 4.32582 50.3268 4.33261C50.2198 4.33939 50.1131 4.31426 50.0204 4.26038C49.9277 4.2065 49.853 4.12631 49.8059 4.02996L49.7799 3.96659L49.5903 3.41084L49.034 3.22126C48.9325 3.18675 48.8435 3.12288 48.7783 3.03773C48.713 2.95258 48.6746 2.84999 48.6677 2.74295C48.6609 2.63592 48.686 2.52926 48.7398 2.4365C48.7936 2.34373 48.8738 2.26904 48.9701 2.22188L49.034 2.19588L49.5898 2.0063L49.7794 1.45001C49.8159 1.34299 49.885 1.25008 49.977 1.18432C50.069 1.11855 50.1793 1.08323 50.2923 1.0833Z" fill="#695739"/>
<path d="M24.25 19.25H31.75M24.25 24.25H28M18 8V28C18 28.663 18.2634 29.2989 18.7322 29.7678C19.2011 30.2366 19.837 30.5 20.5 30.5H35.5C36.163 30.5 36.7989 30.2366 37.2678 29.7678C37.7366 29.2989 38 28.663 38 28V13.4275C38 13.0944 37.9334 12.7648 37.8041 12.4578C37.6749 12.1508 37.4857 11.8728 37.2475 11.64L31.6975 6.2125C31.2305 5.75582 30.6032 5.50008 29.95 5.5H20.5C19.837 5.5 19.2011 5.76339 18.7322 6.23223C18.2634 6.70107 18 7.33696 18 8Z" stroke="#695739" stroke-width="2.5" stroke-linecap="round" stroke-linejoin="round"/>
<path d="M30.5 5.5V10.5C30.5 11.163 30.7634 11.7989 31.2322 12.2678C31.7011 12.7366 32.337 13 33 13H38" stroke="#695739" stroke-width="2.5" stroke-linejoin="round"/>
</svg>
