<svg width="41" height="60" viewBox="0 0 41 60" fill="none" xmlns="http://www.w3.org/2000/svg">
<path d="M33.4833 35.875L22.7208 25.1125C21.8667 25.7958 20.8844 26.3368 19.774 26.7354C18.6635 27.134 17.4819 27.3333 16.2292 27.3333C13.1257 27.3333 10.4994 26.2582 8.35033 24.108C6.20125 21.9578 5.12614 19.3315 5.125 16.2292C5.12386 13.1268 6.19897 10.5006 8.35033 8.35033C10.5017 6.20011 13.128 5.125 16.2292 5.125C19.3304 5.125 21.9572 6.20011 24.1097 8.35033C26.2622 10.5006 27.3368 13.1268 27.3333 16.2292C27.3333 17.4819 27.134 18.6635 26.7354 19.774C26.3368 20.8844 25.7958 21.8667 25.1125 22.7208L35.875 33.4833L33.4833 35.875ZM16.2292 23.9167C18.3646 23.9167 20.18 23.1696 21.6753 21.6753C23.1707 20.1811 23.9178 18.3657 23.9167 16.2292C23.9155 14.0926 23.1684 12.2778 21.6753 10.7847C20.1823 9.29163 18.3669 8.54394 16.2292 8.54167C14.0915 8.53939 12.2767 9.28707 10.7847 10.7847C9.29277 12.2823 8.54508 14.0972 8.54167 16.2292C8.53825 18.3612 9.28593 20.1766 10.7847 21.6753C12.2835 23.1741 14.0983 23.9212 16.2292 23.9167Z" fill="#A3A3A3"/>
<path d="M31.9336 3.95096C32.2575 3.00304 33.5673 2.97434 33.9513 3.86484L33.9838 3.9515L34.421 5.22984C34.5211 5.523 34.683 5.79128 34.8957 6.01656C35.1084 6.24185 35.3669 6.41891 35.6538 6.53579L35.7713 6.57967L37.0497 7.01625C37.9976 7.34017 38.0263 8.64992 37.1363 9.03396L37.0497 9.06646L35.7713 9.50359C35.4781 9.6037 35.2097 9.76555 34.9843 9.97823C34.7589 10.1909 34.5818 10.4494 34.4648 10.7364L34.421 10.8534L33.9844 12.1323C33.6605 13.0802 32.3507 13.1089 31.9672 12.219L31.9336 12.1323L31.497 10.854C31.3969 10.5607 31.2351 10.2923 31.0224 10.0669C30.8097 9.84155 30.5512 9.6644 30.2642 9.54746L30.1472 9.50359L28.8689 9.067C27.9204 8.74309 27.8917 7.43334 28.7822 7.04984L28.8689 7.01625L30.1472 6.57967C30.4404 6.47949 30.7087 6.31761 30.9339 6.10494C31.1592 5.89226 31.3363 5.63375 31.4532 5.34684L31.497 5.22984L31.9336 3.95096ZM37.2923 2.08329C37.3937 2.08329 37.493 2.11172 37.579 2.16534C37.6649 2.21896 37.7342 2.29563 37.7788 2.38663L37.8047 2.45L37.9943 3.00575L38.5506 3.19534C38.6522 3.22984 38.7412 3.29371 38.8064 3.37886C38.8716 3.46401 38.9101 3.5666 38.9169 3.67364C38.9238 3.78067 38.8987 3.88733 38.8449 3.9801C38.791 4.07286 38.7109 4.14755 38.6145 4.19471L38.5506 4.22071L37.9949 4.41029L37.8053 4.96659C37.7707 5.06811 37.7068 5.15709 37.6216 5.22225C37.5364 5.28741 37.4338 5.32581 37.3268 5.3326C37.2198 5.33939 37.1131 5.31425 37.0204 5.26037C36.9277 5.2065 36.853 5.12631 36.8059 5.02996L36.7799 4.96659L36.5903 4.41084L36.034 4.22125C35.9325 4.18675 35.8435 4.12288 35.7783 4.03773C35.713 3.95258 35.6746 3.84998 35.6677 3.74295C35.6609 3.63591 35.686 3.52926 35.7398 3.43649C35.7936 3.34373 35.8738 3.26904 35.9701 3.22188L36.034 3.19588L36.5898 3.00629L36.7794 2.45C36.8159 2.34298 36.885 2.25008 36.977 2.18431C37.069 2.11855 37.1793 2.08323 37.2923 2.08329Z" fill="#A3A3A3"/>
<path d="M3.49609 57L6.60156 48.5156H7.71484L10.8203 57H9.70703L8.85742 54.6094H5.44727L4.59766 57H3.49609ZM8.53516 53.6836L7.1875 49.8867H7.11719L5.76953 53.6836H8.53516ZM13.0234 57H11.9688V48.5156H13.0234V57ZM22.1055 54.1172C22.8516 54.1172 23.498 54.1934 24.0449 54.3457C24.5957 54.4941 25.0195 54.7129 25.3164 55.002C25.6133 55.2871 25.7617 55.6289 25.7617 56.0273C25.7617 56.4219 25.6133 56.7617 25.3164 57.0469C25.0195 57.332 24.5957 57.5488 24.0449 57.6973C23.4941 57.8496 22.8477 57.9258 22.1055 57.9258C21.3633 57.9258 20.7188 57.8496 20.1719 57.6973C19.625 57.5488 19.2031 57.332 18.9062 57.0469C18.6094 56.7617 18.4609 56.4219 18.4609 56.0273C18.4609 55.6289 18.6094 55.2871 18.9062 55.002C19.2031 54.7129 19.625 54.4941 20.1719 54.3457C20.7188 54.1934 21.3633 54.1172 22.1055 54.1172ZM22.1055 54.8203C21.5547 54.8242 21.0723 54.875 20.6582 54.9727C20.2441 55.0703 19.9258 55.2109 19.7031 55.3945C19.4805 55.5742 19.3711 55.7852 19.375 56.0273C19.3711 56.2656 19.4805 56.4746 19.7031 56.6543C19.9258 56.8301 20.2441 56.9648 20.6582 57.0586C21.0723 57.1523 21.5547 57.1992 22.1055 57.1992C22.6562 57.1992 23.1367 57.1523 23.5469 57.0586C23.9609 56.9648 24.2793 56.8301 24.502 56.6543C24.7285 56.4746 24.8438 56.2656 24.8477 56.0273C24.8438 55.7852 24.7285 55.5742 24.502 55.3945C24.2793 55.2109 23.9609 55.0703 23.5469 54.9727C23.1367 54.875 22.6562 54.8242 22.1055 54.8203ZM25.6797 48.9492C25.6797 49.5117 25.6621 49.9941 25.627 50.3965C25.5957 50.7949 25.5156 51.2344 25.3867 51.7148L24.4844 51.6094C24.6094 51.1289 24.6875 50.6992 24.7188 50.3203C24.75 49.9414 24.7656 49.4844 24.7656 48.9492V48.8203H18.5312V48.0703H25.6797V48.9492ZM26.8867 53.1445H17.4062V52.3945H21.332V50.3789H22.2344V52.3945H26.8867V53.1445ZM36.1211 49.6289V49.7578C36.1133 50.6172 36.0859 51.3887 36.0391 52.0723C35.9961 52.752 35.8945 53.5391 35.7344 54.4336L34.7969 54.3281C34.9219 53.7109 35.0117 53.1289 35.0664 52.582C35.125 52.0352 35.1602 51.5488 35.1719 51.123C35.1875 50.6973 35.1953 50.1992 35.1953 49.6289V49.3477H28.7734V48.5859H36.1211V49.6289ZM37.2578 56.4727H27.7656V55.7109H31.4922V51.9844H32.3945V55.7109H37.2578V56.4727Z" fill="#A3A3A3"/>
</svg>
