<svg width="45" height="56" viewBox="0 0 45 56" fill="none" xmlns="http://www.w3.org/2000/svg">
<path d="M5.38477 50.1172C6.13086 50.1172 6.77734 50.1934 7.32422 50.3457C7.875 50.4941 8.29883 50.7129 8.5957 51.002C8.89258 51.2871 9.04102 51.6289 9.04102 52.0273C9.04102 52.4219 8.89258 52.7617 8.5957 53.0469C8.29883 53.332 7.875 53.5488 7.32422 53.6973C6.77344 53.8496 6.12695 53.9258 5.38477 53.9258C4.64258 53.9258 3.99805 53.8496 3.45117 53.6973C2.9043 53.5488 2.48242 53.332 2.18555 53.0469C1.88867 52.7617 1.74023 52.4219 1.74023 52.0273C1.74023 51.6289 1.88867 51.2871 2.18555 51.002C2.48242 50.7129 2.9043 50.4941 3.45117 50.3457C3.99805 50.1934 4.64258 50.1172 5.38477 50.1172ZM5.38477 50.8203C4.83398 50.8242 4.35156 50.875 3.9375 50.9727C3.52344 51.0703 3.20508 51.2109 2.98242 51.3945C2.75977 51.5742 2.65039 51.7852 2.6543 52.0273C2.65039 52.2656 2.75977 52.4746 2.98242 52.6543C3.20508 52.8301 3.52344 52.9648 3.9375 53.0586C4.35156 53.1523 4.83398 53.1992 5.38477 53.1992C5.93555 53.1992 6.41602 53.1523 6.82617 53.0586C7.24023 52.9648 7.55859 52.8301 7.78125 52.6543C8.00781 52.4746 8.12305 52.2656 8.12695 52.0273C8.12305 51.7852 8.00781 51.5742 7.78125 51.3945C7.55859 51.2109 7.24023 51.0703 6.82617 50.9727C6.41602 50.875 5.93555 50.8242 5.38477 50.8203ZM8.95898 44.9492C8.95898 45.5117 8.94141 45.9941 8.90625 46.3965C8.875 46.7949 8.79492 47.2344 8.66602 47.7148L7.76367 47.6094C7.88867 47.1289 7.9668 46.6992 7.99805 46.3203C8.0293 45.9414 8.04492 45.4844 8.04492 44.9492V44.8203H1.81055V44.0703H8.95898V44.9492ZM10.166 49.1445H0.685547V48.3945H4.61133V46.3789H5.51367V48.3945H10.166V49.1445ZM19.4004 45.6289V45.7578C19.3926 46.6172 19.3652 47.3887 19.3184 48.0723C19.2754 48.752 19.1738 49.5391 19.0137 50.4336L18.0762 50.3281C18.2012 49.7109 18.291 49.1289 18.3457 48.582C18.4043 48.0352 18.4395 47.5488 18.4512 47.123C18.4668 46.6973 18.4746 46.1992 18.4746 45.6289V45.3477H12.0527V44.5859H19.4004V45.6289ZM20.5371 52.4727H11.0449V51.7109H14.7715V47.9844H15.6738V51.7109H20.5371V52.4727ZM33.0176 53.9727H32.0918V43.5312H33.0176V53.9727ZM27.4746 44.3398C27.9902 44.3438 28.4492 44.4961 28.8516 44.7969C29.2539 45.0938 29.5684 45.5156 29.7949 46.0625C30.0215 46.6094 30.1348 47.2461 30.1348 47.9727C30.1348 48.6992 30.0215 49.3359 29.7949 49.8828C29.5684 50.4297 29.2539 50.8516 28.8516 51.1484C28.4492 51.4453 27.9902 51.5938 27.4746 51.5938C26.959 51.5938 26.498 51.4453 26.0918 51.1484C25.6895 50.8516 25.375 50.4297 25.1484 49.8828C24.9258 49.3359 24.8145 48.6992 24.8145 47.9727C24.8145 47.2461 24.9258 46.6094 25.1484 46.0625C25.375 45.5156 25.6895 45.0938 26.0918 44.7969C26.4941 44.4961 26.9551 44.3438 27.4746 44.3398ZM27.4746 45.1602C27.127 45.1641 26.8184 45.2832 26.5488 45.5176C26.2832 45.748 26.0762 46.0762 25.9277 46.502C25.7793 46.9238 25.7051 47.4141 25.7051 47.9727C25.7051 48.5312 25.7793 49.0234 25.9277 49.4492C26.0762 49.8711 26.2852 50.1973 26.5547 50.4277C26.8242 50.6582 27.1309 50.7734 27.4746 50.7734C27.8184 50.7734 28.125 50.6582 28.3945 50.4277C28.6641 50.1973 28.873 49.8711 29.0215 49.4492C29.1699 49.0234 29.2441 48.5312 29.2441 47.9727C29.2441 47.4141 29.1699 46.9238 29.0215 46.502C28.873 46.0762 28.6641 45.748 28.3945 45.5176C28.1289 45.2832 27.8223 45.1641 27.4746 45.1602ZM39.7441 47.0938H36.1582V48.7109C37.2168 48.7109 38.0352 48.6953 38.6133 48.6641C39.1914 48.6328 39.7715 48.5625 40.3535 48.4531L40.4473 49.2148C39.8262 49.3164 39.2051 49.3828 38.584 49.4141C37.9668 49.4453 37.0996 49.4609 35.9824 49.4609H35.2441V46.3906H38.8301V44.9141H35.2207V44.1758H39.7441V47.0938ZM43.4355 49.9414H42.5098V48.0078H40.4355V47.2461H42.5098V45.8398H40.4355V45.0898H42.5098V43.543H43.4355V49.9414ZM43.4355 53.9727H42.5098V51.2539H36.416V50.5039H43.4355V53.9727Z" fill="#A3A3A3"/>
<path d="M23 28C19.9333 28 17.2613 26.9836 14.984 24.9507C12.7067 22.9178 11.4009 20.3787 11.0667 17.3333H13.8C14.1111 19.6444 15.1391 21.5556 16.884 23.0667C18.6289 24.5778 20.6676 25.3333 23 25.3333C25.6 25.3333 27.8058 24.428 29.6173 22.6173C31.4289 20.8067 32.3342 18.6009 32.3333 16C32.3324 13.3991 31.4271 11.1938 29.6173 9.384C27.8076 7.57422 25.6018 6.66844 23 6.66667C21.4667 6.66667 20.0333 7.02222 18.7 7.73333C17.3667 8.44444 16.2444 9.42222 15.3333 10.6667H19V13.3333H11V5.33333H13.6667V8.46667C14.8 7.04444 16.1836 5.94444 17.8173 5.16667C19.4511 4.38889 21.1787 4 23 4C24.6667 4 26.228 4.31689 27.684 4.95067C29.14 5.58444 30.4067 6.43956 31.484 7.516C32.5613 8.59244 33.4169 9.85911 34.0507 11.316C34.6844 12.7729 35.0009 14.3342 35 16C34.9991 17.6658 34.6827 19.2271 34.0507 20.684C33.4187 22.1409 32.5631 23.4076 31.484 24.484C30.4049 25.5604 29.1382 26.416 27.684 27.0507C26.2298 27.6853 24.6684 28.0018 23 28ZM26.7333 21.6L21.6667 16.5333V9.33333H24.3333V15.4667L28.6 19.7333L26.7333 21.6Z" fill="#A3A3A3"/>
</svg>
