<svg width="66" height="60" viewBox="0 0 66 60" fill="none" xmlns="http://www.w3.org/2000/svg">
<path d="M0.439453 56.5L3.54492 48.0156H4.6582L7.76367 56.5H6.65039L5.80078 54.1094H2.39062L1.54102 56.5H0.439453ZM5.47852 53.1836L4.13086 49.3867H4.06055L2.71289 53.1836H5.47852ZM9.9668 56.5H8.91211V48.0156H9.9668V56.5ZM23.877 56.1602H14.3379V55.375H18.6152V52.9727H15.2051V52.2344H16.834V48.8125H15.1816V48.0508H22.9629V48.8125H21.3105V52.2344H22.9395V52.9727H19.5176V55.375H23.877V56.1602ZM20.4082 52.2344V48.8125H17.748V52.2344H20.4082ZM33.1465 53.418H25.9395V47.9336H33.0293V48.707H26.877V50.2539H32.8066V50.9922H26.877V52.668H33.1465V53.418ZM34.248 56.0898H24.709V55.3281H34.248V56.0898ZM43.6699 48.0273H42.0645V50.0664H43.6348V50.7695H40.2715V51.7891H44.5723V52.5273H35.0801V51.7891H39.3574V50.7695H36.0059V50.0664H37.5762V48.0273H35.9707V47.3125H43.6699V48.0273ZM43.3535 55.5977H37.166V56.6289H43.6699V57.332H36.252V54.9297H42.4512V54.0391H36.2285V53.3594H43.3535V55.5977ZM41.1504 50.0664V48.0273H38.4902V50.0664H41.1504ZM54.0527 57.4727H53.1387V47.0312H54.0527V57.4727ZM50.8887 51.707H46.998V54.168C47.9316 54.168 48.7988 54.1406 49.5996 54.0859C50.4043 54.0312 51.248 53.9336 52.1309 53.793L52.2246 54.5664C51.3223 54.7109 50.459 54.8105 49.6348 54.8652C48.8105 54.916 47.9082 54.9414 46.9277 54.9414H46.0605V50.957H49.9629V48.7656H46.0371V48.0039H50.8887V51.707ZM60.5684 47.7109C61.3027 47.7148 61.959 47.8301 62.5371 48.0566C63.1152 48.2832 63.5664 48.6035 63.8906 49.0176C64.2148 49.4277 64.377 49.9023 64.377 50.4414C64.377 50.9492 64.2344 51.4004 63.9492 51.7949C63.668 52.1895 63.2734 52.5039 62.7656 52.7383C62.2578 52.9727 61.6738 53.1113 61.0137 53.1543V55.3398H65.3613V56.1133H55.8223V55.3398H60.1113V53.1543C59.4551 53.1113 58.873 52.9727 58.3652 52.7383C57.8574 52.5 57.4629 52.1855 57.1816 51.7949C56.9004 51.4004 56.7598 50.9492 56.7598 50.4414C56.7598 49.9023 56.9219 49.4277 57.2461 49.0176C57.5703 48.6035 58.0215 48.2832 58.5996 48.0566C59.1777 47.8301 59.834 47.7148 60.5684 47.7109ZM60.5684 48.4727C60.0098 48.4727 59.5078 48.5566 59.0625 48.7246C58.6211 48.8887 58.2754 49.1211 58.0254 49.4219C57.7754 49.7188 57.6504 50.0586 57.6504 50.4414C57.6504 50.8359 57.7754 51.1836 58.0254 51.4844C58.2754 51.7852 58.6211 52.0176 59.0625 52.1816C59.5039 52.3457 60.0059 52.4297 60.5684 52.4336C61.1309 52.4297 61.6328 52.3457 62.0742 52.1816C62.5156 52.0176 62.8613 51.7852 63.1113 51.4844C63.3613 51.1836 63.4863 50.8359 63.4863 50.4414C63.4863 50.0586 63.3613 49.7188 63.1113 49.4219C62.8613 49.1211 62.5137 48.8887 62.0684 48.7246C61.627 48.5566 61.127 48.4727 60.5684 48.4727Z" fill="#A3A3A3"/>
<path d="M44.9341 3.45092C45.258 2.503 46.5678 2.47429 46.9518 3.36479L46.9843 3.45146L47.4214 4.72979C47.5216 5.02296 47.6835 5.29124 47.8962 5.51652C48.1089 5.74181 48.3674 5.91887 48.6543 6.03575L48.7718 6.07963L50.0502 6.51621C50.9981 6.84013 51.0268 8.14988 50.1368 8.53392L50.0502 8.56642L48.7718 9.00354C48.4786 9.10365 48.2102 9.26551 47.9848 9.47818C47.7594 9.69086 47.5823 9.94941 47.4653 10.2364L47.4214 10.3534L46.9849 11.6323C46.6609 12.5802 45.3512 12.6089 44.9677 11.7189L44.9341 11.6323L44.4975 10.3539C44.3974 10.0607 44.2356 9.79227 44.0229 9.56689C43.8102 9.3415 43.5517 9.16436 43.2647 9.04742L43.1477 9.00354L41.8694 8.56696C40.9209 8.24304 40.8922 6.93329 41.7827 6.54979L41.8694 6.51621L43.1477 6.07963C43.4409 5.97945 43.7091 5.81757 43.9344 5.60489C44.1597 5.39222 44.3368 5.13371 44.4537 4.84679L44.4975 4.72979L44.9341 3.45092ZM50.2928 1.58325C50.3942 1.58325 50.4935 1.61168 50.5794 1.6653C50.6654 1.71892 50.7347 1.79559 50.7792 1.88659L50.8052 1.94996L50.9948 2.50571L51.5511 2.69529C51.6527 2.7298 51.7417 2.79367 51.8069 2.87882C51.8721 2.96397 51.9106 3.06656 51.9174 3.1736C51.9243 3.28063 51.8992 3.38729 51.8454 3.48005C51.7915 3.57282 51.7114 3.64751 51.615 3.69467L51.5511 3.72067L50.9954 3.91025L50.8058 4.46654C50.7712 4.56807 50.7073 4.65705 50.6221 4.72221C50.5369 4.78737 50.4343 4.82577 50.3273 4.83256C50.2203 4.83935 50.1136 4.81421 50.0209 4.76033C49.9282 4.70645 49.8535 4.62626 49.8064 4.52992L49.7804 4.46654L49.5908 3.91079L49.0345 3.72121C48.933 3.68671 48.844 3.62284 48.7787 3.53769C48.7135 3.45254 48.6751 3.34994 48.6682 3.24291C48.6614 3.13587 48.6865 3.02921 48.7403 2.93645C48.7941 2.84369 48.8743 2.76899 48.9706 2.72184L49.0345 2.69584L49.5903 2.50625L49.7799 1.94996C49.8164 1.84294 49.8855 1.75004 49.9775 1.68427C50.0695 1.61851 50.1797 1.58318 50.2928 1.58325Z" fill="#A3A3A3"/>
<path d="M24.25 19.75H31.75M24.25 24.75H28M18 8.5V28.5C18 29.163 18.2634 29.7989 18.7322 30.2678C19.2011 30.7366 19.837 31 20.5 31H35.5C36.163 31 36.7989 30.7366 37.2678 30.2678C37.7366 29.7989 38 29.163 38 28.5V13.9275C38 13.5944 37.9334 13.2648 37.8041 12.9578C37.6749 12.6508 37.4857 12.3728 37.2475 12.14L31.6975 6.7125C31.2305 6.25582 30.6032 6.00008 29.95 6H20.5C19.837 6 19.2011 6.26339 18.7322 6.73223C18.2634 7.20107 18 7.83696 18 8.5Z" stroke="#A3A3A3" stroke-width="2.5" stroke-linecap="round" stroke-linejoin="round"/>
<path d="M30.5 6V11C30.5 11.663 30.7634 12.2989 31.2322 12.7678C31.7011 13.2366 32.337 13.5 33 13.5H38" stroke="#A3A3A3" stroke-width="2.5" stroke-linejoin="round"/>
</svg>
