<svg width="41" height="60" viewBox="0 0 41 60" fill="none" xmlns="http://www.w3.org/2000/svg">
<path d="M33.4833 35.875L22.7208 25.1125C21.8667 25.7958 20.8844 26.3368 19.774 26.7354C18.6635 27.134 17.4819 27.3333 16.2292 27.3333C13.1257 27.3333 10.4994 26.2582 8.35033 24.108C6.20125 21.9578 5.12614 19.3315 5.125 16.2292C5.12386 13.1268 6.19897 10.5006 8.35033 8.35033C10.5017 6.20011 13.128 5.125 16.2292 5.125C19.3304 5.125 21.9572 6.20011 24.1097 8.35033C26.2622 10.5006 27.3368 13.1268 27.3333 16.2292C27.3333 17.4819 27.134 18.6635 26.7354 19.774C26.3368 20.8844 25.7958 21.8667 25.1125 22.7208L35.875 33.4833L33.4833 35.875ZM16.2292 23.9167C18.3646 23.9167 20.18 23.1696 21.6753 21.6753C23.1707 20.1811 23.9178 18.3657 23.9167 16.2292C23.9155 14.0926 23.1684 12.2778 21.6753 10.7847C20.1823 9.29163 18.3669 8.54394 16.2292 8.54167C14.0915 8.53939 12.2767 9.28707 10.7847 10.7847C9.29277 12.2823 8.54508 14.0972 8.54167 16.2292C8.53825 18.3612 9.28593 20.1766 10.7847 21.6753C12.2835 23.1741 14.0983 23.9212 16.2292 23.9167Z" fill="#695739"/>
<path d="M31.9341 3.95092C32.258 3.003 33.5678 2.97429 33.9518 3.86479L33.9843 3.95146L34.4214 5.22979C34.5216 5.52296 34.6835 5.79124 34.8962 6.01652C35.1089 6.24181 35.3674 6.41887 35.6543 6.53575L35.7718 6.57963L37.0502 7.01621C37.9981 7.34013 38.0268 8.64988 37.1368 9.03392L37.0502 9.06642L35.7718 9.50354C35.4786 9.60365 35.2102 9.76551 34.9848 9.97818C34.7594 10.1909 34.5823 10.4494 34.4653 10.7364L34.4214 10.8534L33.9849 12.1323C33.6609 13.0802 32.3512 13.1089 31.9677 12.2189L31.9341 12.1323L31.4975 10.8539C31.3974 10.5607 31.2356 10.2923 31.0229 10.0669C30.8102 9.8415 30.5517 9.66436 30.2647 9.54742L30.1477 9.50354L28.8694 9.06696C27.9209 8.74304 27.8922 7.43329 28.7827 7.04979L28.8694 7.01621L30.1477 6.57963C30.4409 6.47945 30.7091 6.31757 30.9344 6.10489C31.1597 5.89222 31.3368 5.63371 31.4537 5.34679L31.4975 5.22979L31.9341 3.95092ZM37.2928 2.08325C37.3942 2.08325 37.4935 2.11168 37.5794 2.1653C37.6654 2.21892 37.7347 2.29559 37.7792 2.38659L37.8052 2.44996L37.9948 3.00571L38.5511 3.19529C38.6527 3.2298 38.7417 3.29367 38.8069 3.37882C38.8721 3.46397 38.9106 3.56656 38.9174 3.6736C38.9243 3.78063 38.8992 3.88729 38.8454 3.98005C38.7915 4.07282 38.7114 4.14751 38.615 4.19467L38.5511 4.22067L37.9954 4.41025L37.8058 4.96654C37.7712 5.06807 37.7073 5.15705 37.6221 5.22221C37.5369 5.28737 37.4343 5.32577 37.3273 5.33256C37.2203 5.33935 37.1136 5.31421 37.0209 5.26033C36.9282 5.20645 36.8535 5.12626 36.8064 5.02992L36.7804 4.96654L36.5908 4.41079L36.0345 4.22121C35.933 4.18671 35.844 4.12284 35.7787 4.03769C35.7135 3.95254 35.6751 3.84994 35.6682 3.74291C35.6614 3.63587 35.6865 3.52921 35.7403 3.43645C35.7941 3.34369 35.8743 3.26899 35.9706 3.22184L36.0345 3.19584L36.5903 3.00625L36.7799 2.44996C36.8164 2.34294 36.8855 2.25004 36.9775 2.18427C37.0695 2.11851 37.1797 2.08318 37.2928 2.08325Z" fill="#695739"/>
<path d="M3.49609 57L6.60156 48.5156H7.71484L10.8203 57H9.70703L8.85742 54.6094H5.44727L4.59766 57H3.49609ZM8.53516 53.6836L7.1875 49.8867H7.11719L5.76953 53.6836H8.53516ZM13.0234 57H11.9688V48.5156H13.0234V57ZM22.1055 54.1172C22.8516 54.1172 23.498 54.1934 24.0449 54.3457C24.5957 54.4941 25.0195 54.7129 25.3164 55.002C25.6133 55.2871 25.7617 55.6289 25.7617 56.0273C25.7617 56.4219 25.6133 56.7617 25.3164 57.0469C25.0195 57.332 24.5957 57.5488 24.0449 57.6973C23.4941 57.8496 22.8477 57.9258 22.1055 57.9258C21.3633 57.9258 20.7188 57.8496 20.1719 57.6973C19.625 57.5488 19.2031 57.332 18.9062 57.0469C18.6094 56.7617 18.4609 56.4219 18.4609 56.0273C18.4609 55.6289 18.6094 55.2871 18.9062 55.002C19.2031 54.7129 19.625 54.4941 20.1719 54.3457C20.7188 54.1934 21.3633 54.1172 22.1055 54.1172ZM22.1055 54.8203C21.5547 54.8242 21.0723 54.875 20.6582 54.9727C20.2441 55.0703 19.9258 55.2109 19.7031 55.3945C19.4805 55.5742 19.3711 55.7852 19.375 56.0273C19.3711 56.2656 19.4805 56.4746 19.7031 56.6543C19.9258 56.8301 20.2441 56.9648 20.6582 57.0586C21.0723 57.1523 21.5547 57.1992 22.1055 57.1992C22.6562 57.1992 23.1367 57.1523 23.5469 57.0586C23.9609 56.9648 24.2793 56.8301 24.502 56.6543C24.7285 56.4746 24.8438 56.2656 24.8477 56.0273C24.8438 55.7852 24.7285 55.5742 24.502 55.3945C24.2793 55.2109 23.9609 55.0703 23.5469 54.9727C23.1367 54.875 22.6562 54.8242 22.1055 54.8203ZM25.6797 48.9492C25.6797 49.5117 25.6621 49.9941 25.627 50.3965C25.5957 50.7949 25.5156 51.2344 25.3867 51.7148L24.4844 51.6094C24.6094 51.1289 24.6875 50.6992 24.7188 50.3203C24.75 49.9414 24.7656 49.4844 24.7656 48.9492V48.8203H18.5312V48.0703H25.6797V48.9492ZM26.8867 53.1445H17.4062V52.3945H21.332V50.3789H22.2344V52.3945H26.8867V53.1445ZM36.1211 49.6289V49.7578C36.1133 50.6172 36.0859 51.3887 36.0391 52.0723C35.9961 52.752 35.8945 53.5391 35.7344 54.4336L34.7969 54.3281C34.9219 53.7109 35.0117 53.1289 35.0664 52.582C35.125 52.0352 35.1602 51.5488 35.1719 51.123C35.1875 50.6973 35.1953 50.1992 35.1953 49.6289V49.3477H28.7734V48.5859H36.1211V49.6289ZM37.2578 56.4727H27.7656V55.7109H31.4922V51.9844H32.3945V55.7109H37.2578V56.4727Z" fill="#695739"/>
</svg>
