<svg width="32" height="58" viewBox="0 0 32 58" fill="none" xmlns="http://www.w3.org/2000/svg">
<path d="M6.05664 47.0664C6.05664 47.6328 6.24609 48.1816 6.625 48.7129C7.00781 49.2402 7.49805 49.6895 8.0957 50.0605C8.69336 50.4277 9.29883 50.668 9.91211 50.7812L9.49023 51.5547C8.95898 51.4297 8.43555 51.2266 7.91992 50.9453C7.4043 50.6641 6.94141 50.3164 6.53125 49.9023C6.12109 49.4883 5.80664 49.0332 5.58789 48.5371C5.36914 49.0293 5.05469 49.4824 4.64453 49.8965C4.23438 50.3105 3.77148 50.6602 3.25586 50.9453C2.74414 51.2266 2.2207 51.4297 1.68555 51.5547L1.26367 50.7812C1.87695 50.6602 2.48047 50.418 3.07422 50.0547C3.66797 49.6875 4.15234 49.2402 4.52734 48.7129C4.90625 48.1855 5.0957 47.6367 5.0957 47.0664V46.2695H6.05664V47.0664ZM10.4043 54.5312H0.865234V53.7695H10.4043V54.5312ZM15.748 46.9727H12.584V48.25H15.6309V48.9883H12.584V50.3828C13.4043 50.3789 14.0742 50.3594 14.5938 50.3242C15.1172 50.2891 15.6426 50.2188 16.1699 50.1133L16.2637 50.8516C15.7246 50.9609 15.1992 51.0352 14.6875 51.0742C14.1758 51.1133 13.5488 51.1328 12.8066 51.1328H12.3613H11.7051V46.2109H15.748V46.9727ZM20.084 51.6953H19.2051V48.9766H17.7402V51.5547H16.8848V45.7422H17.7402V48.2031H19.2051V45.543H20.084V51.6953ZM20.084 55.8086H13.2051V52.2109H20.084V55.8086ZM14.1074 55.0586H19.1816V52.9492H14.1074V55.0586ZM31.1465 54.6133H21.6074V53.8281H31.1465V54.6133ZM30.2324 47.3477H28.5801V50.9922H30.209V51.7422H22.4746V50.9922H24.1035V47.3477H22.4512V46.5859H30.2324V47.3477ZM27.6777 50.9922V47.3477H25.0176V50.9922H27.6777Z" fill="#A3A3A3"/>
<path d="M16.6133 3C18.5329 3.00016 20.1226 7.78553 20.4092 14.0391C23.7708 8.81338 27.5111 5.5041 29.165 6.45898C31.0032 7.52025 29.5682 13.4465 25.96 19.6963C22.5827 25.5458 18.4989 29.6046 16.4824 29.2305C14.4658 29.6038 10.3818 25.5453 7.00488 19.6963C3.39701 13.4471 1.96226 7.52085 3.7998 6.45898C5.49421 5.48072 9.37739 8.97866 12.8008 14.4268C13.0381 7.98428 14.6541 3 16.6133 3Z" fill="#A3A3A3"/>
</svg>
