<svg width="52" height="57" viewBox="0 0 52 57" fill="none" xmlns="http://www.w3.org/2000/svg">
<path d="M9.44727 54.9492H8.55664V49.5352H7.13867V54.4219H6.25977V44.7539H7.13867V48.75H8.55664V44.5312H9.44727V54.9492ZM3.57617 47.3789C3.57617 48.0195 3.66211 48.625 3.83398 49.1953C4.00977 49.7617 4.26758 50.2637 4.60742 50.7012C4.94727 51.1348 5.36133 51.4766 5.84961 51.7266L5.29883 52.4414C4.7793 52.1602 4.33789 51.7734 3.97461 51.2812C3.61523 50.7852 3.3418 50.2109 3.1543 49.5586C2.97461 50.2969 2.69922 50.9414 2.32812 51.4922C1.96094 52.043 1.50586 52.4766 0.962891 52.793L0.388672 52.0898C0.880859 51.8203 1.29883 51.4512 1.64258 50.9824C1.98633 50.5137 2.24609 49.9727 2.42188 49.3594C2.59766 48.7461 2.68555 48.0859 2.68555 47.3789V46.5469H0.634766V45.7734H5.50977V46.5469H3.57617V47.3789ZM19.2793 48.2109H12.166V44.7422H13.0801V47.4492H19.2793V48.2109ZM20.3691 50.1914H10.8652V49.4297H20.3691V50.1914ZM15.6113 51.1289C16.3574 51.1289 16.998 51.2031 17.5332 51.3516C18.0684 51.4961 18.4785 51.7109 18.7637 51.9961C19.0488 52.2773 19.1934 52.6172 19.1973 53.0156C19.1934 53.4141 19.0488 53.7539 18.7637 54.0352C18.4785 54.3203 18.0684 54.5352 17.5332 54.6797C16.998 54.8281 16.3574 54.9023 15.6113 54.9023C14.8613 54.9023 14.2168 54.8281 13.6777 54.6797C13.1387 54.5352 12.7266 54.3203 12.4414 54.0352C12.1562 53.7539 12.0137 53.4141 12.0137 53.0156C12.0137 52.6172 12.1562 52.2773 12.4414 51.9961C12.7266 51.7109 13.1387 51.4961 13.6777 51.3516C14.2168 51.2031 14.8613 51.1289 15.6113 51.1289ZM15.6113 51.8555C14.7676 51.8633 14.1113 51.9668 13.6426 52.166C13.1777 52.3652 12.9473 52.6484 12.9512 53.0156C12.9473 53.2578 13.0508 53.4668 13.2617 53.6426C13.4727 53.8184 13.7773 53.9531 14.1758 54.0469C14.5781 54.1406 15.0566 54.1875 15.6113 54.1875C16.1582 54.1875 16.6309 54.1406 17.0293 54.0469C17.4316 53.9531 17.7383 53.8184 17.9492 53.6426C18.1641 53.4668 18.2715 53.2578 18.2715 53.0156C18.2715 52.6484 18.0371 52.3652 17.5684 52.166C17.0996 51.9668 16.4473 51.8633 15.6113 51.8555ZM24.9629 47.7305C24.9629 48.3047 25.0898 48.877 25.3438 49.4473C25.5977 50.0137 25.9395 50.5195 26.3691 50.9648C26.8027 51.4062 27.2754 51.7383 27.7871 51.9609L27.2715 52.6875C26.6582 52.4062 26.1055 51.9824 25.6133 51.416C25.1211 50.8457 24.7539 50.2031 24.5117 49.4883C24.2695 50.2539 23.9023 50.9473 23.4102 51.5684C22.9219 52.1855 22.3809 52.6445 21.7871 52.9453L21.2363 52.2188C21.7285 51.9805 22.1875 51.6211 22.6133 51.1406C23.043 50.6602 23.3867 50.1191 23.6445 49.5176C23.9023 48.9121 24.0332 48.3164 24.0371 47.7305V46.3711H21.5762V45.6094H27.4473V46.3711H24.9629V47.7305ZM29.8262 54.9492H28.9004V44.5312H29.8262V54.9492ZM40.1973 52.4531H39.2715V51.375H37.1152V50.707H39.2715V44.543H40.1973V52.4531ZM40.4551 54.7266H33.0488V51.6797H33.9746V53.9531H40.4551V54.7266ZM31.5488 49.3711C32.9785 49.3633 34.2207 49.3418 35.2754 49.3066C36.334 49.2715 37.3535 49.1914 38.334 49.0664L38.3926 49.7344C37.5332 49.8711 36.5801 49.9707 35.5332 50.0332V52.0898H34.6074V50.0801C33.8301 50.1074 33.041 50.1211 32.2402 50.1211H31.6777L31.5488 49.3711ZM34.9707 44.9648C35.4746 44.9648 35.9199 45.041 36.3066 45.1934C36.6973 45.3418 37 45.5547 37.2148 45.832C37.4336 46.1055 37.5449 46.4219 37.5488 46.7812C37.5449 47.1484 37.4336 47.4688 37.2148 47.7422C37 48.0117 36.6973 48.2207 36.3066 48.3691C35.9199 48.5137 35.4746 48.5859 34.9707 48.5859C34.4629 48.5859 34.0137 48.5137 33.623 48.3691C33.2324 48.2207 32.9297 48.0117 32.7148 47.7422C32.5 47.4688 32.3926 47.1484 32.3926 46.7812C32.3926 46.4219 32.5 46.1055 32.7148 45.832C32.9297 45.5547 33.2324 45.3418 33.623 45.1934C34.0137 45.041 34.4629 44.9648 34.9707 44.9648ZM34.9707 45.668C34.6348 45.6641 34.3379 45.709 34.0801 45.8027C33.8223 45.8965 33.6211 46.0293 33.4766 46.2012C33.3359 46.3691 33.2676 46.5625 33.2715 46.7812C33.2676 47.0039 33.3359 47.2012 33.4766 47.373C33.6172 47.541 33.8164 47.6719 34.0742 47.7656C34.3359 47.8594 34.6348 47.9062 34.9707 47.9062C35.2949 47.9062 35.5859 47.8594 35.8438 47.7656C36.1016 47.6719 36.3027 47.541 36.4473 47.373C36.5918 47.2012 36.666 47.0039 36.6699 46.7812C36.666 46.5625 36.5898 46.3691 36.4414 46.2012C36.2969 46.0293 36.0957 45.8965 35.8379 45.8027C35.584 45.709 35.2949 45.6641 34.9707 45.668ZM50.123 47.3086H51.6934V48.0938H50.123V50.8125H49.209V44.5312H50.123V47.3086ZM50.123 54.8086H43.5488V51.4102H50.123V54.8086ZM44.4512 54.0586H49.209V52.1484H44.4512V54.0586ZM48.2129 46.4062H42.002V45.6445H44.6504V44.4492H45.5645V45.6445H48.2129V46.4062ZM45.1074 46.9219C45.6035 46.9219 46.0391 47 46.4141 47.1562C46.793 47.3086 47.0859 47.5254 47.293 47.8066C47.5039 48.084 47.6113 48.4062 47.6152 48.7734C47.6113 49.1484 47.5039 49.4766 47.293 49.7578C47.0859 50.0391 46.793 50.2559 46.4141 50.4082C46.0391 50.5605 45.6035 50.6367 45.1074 50.6367C44.6074 50.6367 44.166 50.5605 43.7832 50.4082C43.4043 50.2559 43.1113 50.0391 42.9043 49.7578C42.6973 49.4766 42.5957 49.1484 42.5996 48.7734C42.5957 48.4062 42.6973 48.084 42.9043 47.8066C43.1113 47.5254 43.4043 47.3086 43.7832 47.1562C44.166 47 44.6074 46.9219 45.1074 46.9219ZM45.1074 47.6367C44.7832 47.6367 44.4961 47.6855 44.2461 47.7832C44 47.877 43.8086 48.0098 43.6719 48.1816C43.5391 48.3535 43.4746 48.5508 43.4785 48.7734C43.4746 49.0078 43.5391 49.2129 43.6719 49.3887C43.8086 49.5605 44 49.6934 44.2461 49.7871C44.4922 49.8809 44.7793 49.9297 45.1074 49.9336C45.4316 49.9297 45.7168 49.8809 45.9629 49.7871C46.209 49.6934 46.4004 49.5605 46.5371 49.3887C46.6738 49.2129 46.7441 49.0078 46.748 48.7734C46.7441 48.5508 46.6719 48.3535 46.5312 48.1816C46.3945 48.0098 46.2031 47.877 45.957 47.7832C45.7109 47.6855 45.4277 47.6367 45.1074 47.6367Z" fill="#695739"/>
<path d="M33.0005 25.5008V28.5008H12.0005V25.5008C12.0005 25.5008 12.0005 19.5008 22.5005 19.5008C33.0005 19.5008 33.0005 25.5008 33.0005 25.5008ZM27.7505 11.2508C27.7505 10.2124 27.4426 9.1974 26.8657 8.33404C26.2888 7.47069 25.4689 6.79778 24.5096 6.40042C23.5503 6.00306 22.4947 5.89909 21.4763 6.10167C20.4579 6.30424 19.5224 6.80425 18.7882 7.53848C18.054 8.2727 17.5539 9.20816 17.3514 10.2266C17.1488 11.245 17.2528 12.3006 17.6501 13.2599C18.0475 14.2192 18.7204 15.0391 19.5837 15.616C20.4471 16.1929 21.4621 16.5008 22.5005 16.5008C23.8929 16.5008 25.2282 15.9477 26.2128 14.9631C27.1974 13.9785 27.7505 12.6432 27.7505 11.2508ZM32.9105 19.5008C33.8326 20.2144 34.5871 21.1214 35.121 22.158C35.6549 23.1947 35.9551 24.3357 36.0005 25.5008V28.5008H42.0005V25.5008C42.0005 25.5008 42.0005 20.0558 32.9105 19.5008ZM31.5005 6.00079C30.4682 5.99599 29.4587 6.30458 28.6055 6.88579C29.5167 8.15889 30.0066 9.68522 30.0066 11.2508C30.0066 12.8164 29.5167 14.3427 28.6055 15.6158C29.4587 16.197 30.4682 16.5056 31.5005 16.5008C32.8929 16.5008 34.2282 15.9477 35.2128 14.9631C36.1974 13.9785 36.7505 12.6432 36.7505 11.2508C36.7505 9.8584 36.1974 8.52304 35.2128 7.53848C34.2282 6.55391 32.8929 6.00079 31.5005 6.00079Z" fill="#695739"/>
</svg>
