<svg width="21" height="20" viewBox="0 0 21 20" fill="none" xmlns="http://www.w3.org/2000/svg">
<path d="M10.168 0C11.2776 5.01529e-05 12.542 0.695929 12.542 3.90918C12.542 4.11953 12.5351 4.32561 12.5234 4.52734C12.6676 4.36388 12.8195 4.20099 12.9805 4.04004C15.2527 1.76784 16.6392 2.16948 17.4238 2.9541C18.2084 3.73872 18.5954 5.11061 16.3232 7.38281C16.1636 7.54245 16.0011 7.69169 15.8398 7.83496C16.0404 7.82396 16.2456 7.81836 16.4551 7.81836C19.6683 7.81838 20.3642 9.06229 20.3643 10.1719C20.3643 11.2815 19.6684 12.5459 16.4551 12.5459C16.2454 12.5459 16.04 12.539 15.8389 12.5273C16.0007 12.671 16.1631 12.8213 16.3232 12.9814C18.5954 15.2536 18.2084 16.6255 17.4238 17.4102C16.6392 18.1947 15.2526 18.5964 12.9805 16.3242C12.8265 16.1702 12.6806 16.0147 12.542 15.8584C12.5436 15.9353 12.5459 16.0127 12.5459 16.0908C12.5459 19.3042 11.302 20 10.1924 20C9.08282 19.9999 7.81836 19.304 7.81836 16.0908C7.81836 16.0108 7.81954 15.9313 7.82129 15.8525C7.68146 16.0104 7.53541 16.1687 7.37988 16.3242C5.10768 18.5964 3.72114 18.1948 2.93652 17.4102C2.15191 16.6255 1.76492 15.2536 4.03711 12.9814C4.19654 12.822 4.35748 12.6714 4.51855 12.5283C4.31982 12.5391 4.1167 12.5459 3.90918 12.5459C0.695978 12.5459 7.09994e-05 11.302 0 10.1924C-4.85029e-08 9.08277 0.695814 7.81836 3.90918 7.81836C4.11817 7.81836 4.32296 7.82438 4.52344 7.83594C4.36096 7.69173 4.19792 7.54069 4.03711 7.37988C1.76504 5.10782 2.152 3.73581 2.93652 2.95117C3.72114 2.16655 5.10768 1.76491 7.37988 4.03711C7.53862 4.19585 7.68867 4.35639 7.83105 4.51758C7.82029 4.31916 7.81445 4.11635 7.81445 3.90918C7.81446 0.695814 9.05835 9.70058e-08 10.168 0Z" fill="#695739"/>
</svg>
