<svg width="16" height="17" viewBox="0 0 16 17" fill="none" xmlns="http://www.w3.org/2000/svg">
<path fill-rule="evenodd" clip-rule="evenodd" d="M7.13345 3.43254C7.22118 3.28038 7.34743 3.154 7.49952 3.06613C7.6516 2.97827 7.82414 2.93201 7.99978 2.93201C8.17542 2.93201 8.34797 2.97827 8.50005 3.06613C8.65213 3.154 8.77839 3.28038 8.86612 3.43254L14.6221 13.4019C14.7099 13.5539 14.7561 13.7263 14.7561 13.9019C14.7561 14.0774 14.7099 14.2498 14.6221 14.4019C14.5344 14.5539 14.4081 14.6801 14.2561 14.7679C14.1041 14.8557 13.9317 14.9019 13.7561 14.9019L2.24412 14.9019C2.06858 14.9019 1.89614 14.8557 1.74413 14.7679C1.59211 14.6801 1.46588 14.5539 1.37811 14.4019C1.29035 14.2498 1.24414 14.0774 1.24414 13.9019C1.24414 13.7263 1.29035 13.5539 1.37812 13.4019L7.13412 3.43254L7.13345 3.43254Z" fill="#A3A3A3"/>
</svg>
