<svg width="14" height="12" viewBox="0 0 14 12" fill="none" xmlns="http://www.w3.org/2000/svg">
<path fill-rule="evenodd" clip-rule="evenodd" d="M5.88931 0.500549C5.97703 0.348385 6.10329 0.222011 6.25537 0.134144C6.40746 0.0462766 6.58 1.52588e-05 6.75564 1.52588e-05C6.93128 1.52588e-05 7.10383 0.0462766 7.25591 0.134144C7.40799 0.222011 7.53425 0.348385 7.62197 0.500549L13.378 10.4699C13.4657 10.6219 13.5119 10.7943 13.512 10.9699C13.512 11.1454 13.4657 11.3179 13.378 11.4699C13.2902 11.6219 13.164 11.7481 13.012 11.8359C12.86 11.9237 12.6875 11.9699 12.512 11.9699L0.999975 11.9699C0.82444 11.9699 0.651999 11.9237 0.499983 11.8359C0.347968 11.7481 0.221734 11.6219 0.133968 11.4699C0.0462029 11.3179 -1.11483e-06 11.1454 0 10.9699C1.11487e-06 10.7943 0.0462073 10.6219 0.133975 10.4699L5.88997 0.500549H5.88931Z" fill="#695739"/>
</svg>
