<svg width="16" height="17" viewBox="0 0 16 17" fill="none" xmlns="http://www.w3.org/2000/svg">
<path fill-rule="evenodd" clip-rule="evenodd" d="M8.86655 13.5675C8.77882 13.7196 8.65257 13.846 8.50048 13.9339C8.3484 14.0217 8.17586 14.068 8.00022 14.068C7.82458 14.068 7.65203 14.0217 7.49995 13.9339C7.34787 13.846 7.22161 13.7196 7.13388 13.5675L1.37788 3.59813C1.29012 3.44611 1.24391 3.27367 1.24391 3.09813C1.24391 2.9226 1.29011 2.75016 1.37788 2.59814C1.46564 2.44612 1.59188 2.31988 1.74389 2.23211C1.89591 2.14434 2.06835 2.09813 2.24388 2.09813L13.7559 2.09813C13.9314 2.09813 14.1039 2.14434 14.2559 2.23211C14.4079 2.31988 14.5341 2.44612 14.6219 2.59814C14.7097 2.75016 14.7559 2.9226 14.7559 3.09813C14.7559 3.27367 14.7097 3.44611 14.6219 3.59813L8.86588 13.5675L8.86655 13.5675Z" fill="#A3A3A3"/>
</svg>
