<svg width="14" height="12" viewBox="0 0 14 12" fill="none" xmlns="http://www.w3.org/2000/svg">
<path fill-rule="evenodd" clip-rule="evenodd" d="M7.62265 11.4693C7.53493 11.6215 7.40867 11.7479 7.25659 11.8358C7.10451 11.9236 6.93196 11.9699 6.75632 11.9699C6.58068 11.9699 6.40814 11.9236 6.25605 11.8358C6.10397 11.7479 5.97771 11.6215 5.88999 11.4693L0.133987 1.50001C0.0462189 1.348 1.24078e-05 1.17555 1.14388e-05 1.00002C1.04697e-05 0.824485 0.0462141 0.652043 0.13398 0.500024C0.221745 0.348006 0.347979 0.221768 0.499995 0.133997C0.652011 0.0462267 0.824451 1.82753e-05 0.999986 1.34916e-05L12.512 1.24852e-05C12.6875 1.72382e-05 12.86 0.0462256 13.012 0.133996C13.164 0.221767 13.2902 0.348004 13.378 0.500023C13.4658 0.652041 13.512 0.824484 13.512 1.00002C13.512 1.17555 13.4658 1.34799 13.378 1.50001L7.62199 11.4693L7.62265 11.4693Z" fill="#695739"/>
</svg>
