<svg width="57" height="57" viewBox="0 0 57 57" fill="none" xmlns="http://www.w3.org/2000/svg">
<circle cx="28.5" cy="28.5" r="28.5" fill="#695739"/>
<path d="M40.4697 23.325C41.1009 22.694 41.4555 21.8381 41.4556 20.9456C41.4558 20.0532 41.1013 19.1972 40.4703 18.566C39.8393 17.9348 38.9834 17.5802 38.0909 17.5801C37.1984 17.58 36.3424 17.9344 35.7113 18.5654L19.779 34.5013C19.5018 34.7777 19.2968 35.1179 19.1821 35.4921L17.6051 40.6875C17.5742 40.7908 17.5719 40.9004 17.5983 41.0049C17.6248 41.1093 17.679 41.2047 17.7552 41.2808C17.8315 41.357 17.9269 41.411 18.0314 41.4373C18.1359 41.4636 18.2456 41.4611 18.3488 41.4301L23.5454 39.8542C23.9192 39.7405 24.2595 39.5368 24.5362 39.2609L40.4697 23.325Z" stroke="white" stroke-width="2.38758" stroke-linecap="round" stroke-linejoin="round"/>
</svg>
